%TF.GenerationSoftware,KiCad,Pcbnew,8.0.3*%
%TF.CreationDate,2024-07-18T11:22:14-07:00*%
%TF.ProjectId,pcb_test,7063625f-7465-4737-942e-6b696361645f,rev?*%
%TF.SameCoordinates,Original*%
%TF.FileFunction,Drillmap*%
%TF.FilePolarity,Positive*%
%FSLAX45Y45*%
G04 Gerber Fmt 4.5, Leading zero omitted, Abs format (unit mm)*
G04 Created by KiCad (PCBNEW 8.0.3) date 2024-07-18 11:22:14*
%MOMM*%
%LPD*%
G01*
G04 APERTURE LIST*
%ADD10C,0.050000*%
%ADD11C,0.200000*%
%ADD12C,0.100000*%
%ADD13C,0.120000*%
G04 APERTURE END LIST*
D10*
X6000000Y-2800000D02*
X15000000Y-2800000D01*
X15000000Y-11800000D01*
X6000000Y-11800000D01*
X6000000Y-2800000D01*
D11*
D12*
X6698000Y-4012000D02*
X6778000Y-4092000D01*
X6778000Y-4012000D02*
X6698000Y-4092000D01*
X6698000Y-4266000D02*
X6778000Y-4346000D01*
X6778000Y-4266000D02*
X6698000Y-4346000D01*
X6698000Y-4520000D02*
X6778000Y-4600000D01*
X6778000Y-4520000D02*
X6698000Y-4600000D01*
X6698000Y-4774000D02*
X6778000Y-4854000D01*
X6778000Y-4774000D02*
X6698000Y-4854000D01*
X6698000Y-5028000D02*
X6778000Y-5108000D01*
X6778000Y-5028000D02*
X6698000Y-5108000D01*
X6698000Y-5282000D02*
X6778000Y-5362000D01*
X6778000Y-5282000D02*
X6698000Y-5362000D01*
X6698000Y-5536000D02*
X6778000Y-5616000D01*
X6778000Y-5536000D02*
X6698000Y-5616000D01*
X6698000Y-5790000D02*
X6778000Y-5870000D01*
X6778000Y-5790000D02*
X6698000Y-5870000D01*
X6698000Y-6044000D02*
X6778000Y-6124000D01*
X6778000Y-6044000D02*
X6698000Y-6124000D01*
X6698000Y-6298000D02*
X6778000Y-6378000D01*
X6778000Y-6298000D02*
X6698000Y-6378000D01*
X6698000Y-6552000D02*
X6778000Y-6632000D01*
X6778000Y-6552000D02*
X6698000Y-6632000D01*
X6698000Y-6806000D02*
X6778000Y-6886000D01*
X6778000Y-6806000D02*
X6698000Y-6886000D01*
X6698000Y-7060000D02*
X6778000Y-7140000D01*
X6778000Y-7060000D02*
X6698000Y-7140000D01*
X6698000Y-7314000D02*
X6778000Y-7394000D01*
X6778000Y-7314000D02*
X6698000Y-7394000D01*
X6698000Y-7568000D02*
X6778000Y-7648000D01*
X6778000Y-7568000D02*
X6698000Y-7648000D01*
X6698000Y-7822000D02*
X6778000Y-7902000D01*
X6778000Y-7822000D02*
X6698000Y-7902000D01*
X8998000Y-4012000D02*
X9078000Y-4092000D01*
X9078000Y-4012000D02*
X8998000Y-4092000D01*
X8998000Y-4266000D02*
X9078000Y-4346000D01*
X9078000Y-4266000D02*
X8998000Y-4346000D01*
X8998000Y-4520000D02*
X9078000Y-4600000D01*
X9078000Y-4520000D02*
X8998000Y-4600000D01*
X8998000Y-4774000D02*
X9078000Y-4854000D01*
X9078000Y-4774000D02*
X8998000Y-4854000D01*
X8998000Y-5028000D02*
X9078000Y-5108000D01*
X9078000Y-5028000D02*
X8998000Y-5108000D01*
X8998000Y-5282000D02*
X9078000Y-5362000D01*
X9078000Y-5282000D02*
X8998000Y-5362000D01*
X8998000Y-5536000D02*
X9078000Y-5616000D01*
X9078000Y-5536000D02*
X8998000Y-5616000D01*
X8998000Y-5790000D02*
X9078000Y-5870000D01*
X9078000Y-5790000D02*
X8998000Y-5870000D01*
X8998000Y-6044000D02*
X9078000Y-6124000D01*
X9078000Y-6044000D02*
X8998000Y-6124000D01*
X8998000Y-6298000D02*
X9078000Y-6378000D01*
X9078000Y-6298000D02*
X8998000Y-6378000D01*
X8998000Y-6552000D02*
X9078000Y-6632000D01*
X9078000Y-6552000D02*
X8998000Y-6632000D01*
X8998000Y-6806000D02*
X9078000Y-6886000D01*
X9078000Y-6806000D02*
X8998000Y-6886000D01*
X8998000Y-7060000D02*
X9078000Y-7140000D01*
X9078000Y-7060000D02*
X8998000Y-7140000D01*
X8998000Y-7314000D02*
X9078000Y-7394000D01*
X9078000Y-7314000D02*
X8998000Y-7394000D01*
X8998000Y-7568000D02*
X9078000Y-7648000D01*
X9078000Y-7568000D02*
X8998000Y-7648000D01*
X8998000Y-7822000D02*
X9078000Y-7902000D01*
X9078000Y-7822000D02*
X8998000Y-7902000D01*
X10674000Y-4012000D02*
X10754000Y-4092000D01*
X10754000Y-4012000D02*
X10674000Y-4092000D01*
X10674000Y-4266000D02*
X10754000Y-4346000D01*
X10754000Y-4266000D02*
X10674000Y-4346000D01*
X10674000Y-4520000D02*
X10754000Y-4600000D01*
X10754000Y-4520000D02*
X10674000Y-4600000D01*
X10674000Y-4774000D02*
X10754000Y-4854000D01*
X10754000Y-4774000D02*
X10674000Y-4854000D01*
X10674000Y-5028000D02*
X10754000Y-5108000D01*
X10754000Y-5028000D02*
X10674000Y-5108000D01*
X10674000Y-5282000D02*
X10754000Y-5362000D01*
X10754000Y-5282000D02*
X10674000Y-5362000D01*
X10674000Y-5536000D02*
X10754000Y-5616000D01*
X10754000Y-5536000D02*
X10674000Y-5616000D01*
X10674000Y-5790000D02*
X10754000Y-5870000D01*
X10754000Y-5790000D02*
X10674000Y-5870000D01*
X10674000Y-6044000D02*
X10754000Y-6124000D01*
X10754000Y-6044000D02*
X10674000Y-6124000D01*
X10674000Y-6298000D02*
X10754000Y-6378000D01*
X10754000Y-6298000D02*
X10674000Y-6378000D01*
X10674000Y-6552000D02*
X10754000Y-6632000D01*
X10754000Y-6552000D02*
X10674000Y-6632000D01*
X10674000Y-6806000D02*
X10754000Y-6886000D01*
X10754000Y-6806000D02*
X10674000Y-6886000D01*
X10674000Y-7060000D02*
X10754000Y-7140000D01*
X10754000Y-7060000D02*
X10674000Y-7140000D01*
X10674000Y-7314000D02*
X10754000Y-7394000D01*
X10754000Y-7314000D02*
X10674000Y-7394000D01*
X10674000Y-7568000D02*
X10754000Y-7648000D01*
X10754000Y-7568000D02*
X10674000Y-7648000D01*
X10674000Y-7822000D02*
X10754000Y-7902000D01*
X10754000Y-7822000D02*
X10674000Y-7902000D01*
X10674000Y-8076000D02*
X10754000Y-8156000D01*
X10754000Y-8076000D02*
X10674000Y-8156000D01*
X10674000Y-8330000D02*
X10754000Y-8410000D01*
X10754000Y-8330000D02*
X10674000Y-8410000D01*
X10674000Y-8584000D02*
X10754000Y-8664000D01*
X10754000Y-8584000D02*
X10674000Y-8664000D01*
X10674000Y-8838000D02*
X10754000Y-8918000D01*
X10754000Y-8838000D02*
X10674000Y-8918000D01*
X10674000Y-9092000D02*
X10754000Y-9172000D01*
X10754000Y-9092000D02*
X10674000Y-9172000D01*
X10674000Y-9346000D02*
X10754000Y-9426000D01*
X10754000Y-9346000D02*
X10674000Y-9426000D01*
X10674000Y-9600000D02*
X10754000Y-9680000D01*
X10754000Y-9600000D02*
X10674000Y-9680000D01*
X10674000Y-9854000D02*
X10754000Y-9934000D01*
X10754000Y-9854000D02*
X10674000Y-9934000D01*
X12198000Y-4012000D02*
X12278000Y-4092000D01*
X12278000Y-4012000D02*
X12198000Y-4092000D01*
X12198000Y-4266000D02*
X12278000Y-4346000D01*
X12278000Y-4266000D02*
X12198000Y-4346000D01*
X12198000Y-4520000D02*
X12278000Y-4600000D01*
X12278000Y-4520000D02*
X12198000Y-4600000D01*
X12198000Y-4774000D02*
X12278000Y-4854000D01*
X12278000Y-4774000D02*
X12198000Y-4854000D01*
X12198000Y-5028000D02*
X12278000Y-5108000D01*
X12278000Y-5028000D02*
X12198000Y-5108000D01*
X12198000Y-5282000D02*
X12278000Y-5362000D01*
X12278000Y-5282000D02*
X12198000Y-5362000D01*
X12198000Y-5536000D02*
X12278000Y-5616000D01*
X12278000Y-5536000D02*
X12198000Y-5616000D01*
X12198000Y-5790000D02*
X12278000Y-5870000D01*
X12278000Y-5790000D02*
X12198000Y-5870000D01*
X12198000Y-6044000D02*
X12278000Y-6124000D01*
X12278000Y-6044000D02*
X12198000Y-6124000D01*
X12198000Y-6298000D02*
X12278000Y-6378000D01*
X12278000Y-6298000D02*
X12198000Y-6378000D01*
X12198000Y-6552000D02*
X12278000Y-6632000D01*
X12278000Y-6552000D02*
X12198000Y-6632000D01*
X12198000Y-6806000D02*
X12278000Y-6886000D01*
X12278000Y-6806000D02*
X12198000Y-6886000D01*
X12198000Y-7060000D02*
X12278000Y-7140000D01*
X12278000Y-7060000D02*
X12198000Y-7140000D01*
X12198000Y-7314000D02*
X12278000Y-7394000D01*
X12278000Y-7314000D02*
X12198000Y-7394000D01*
X12198000Y-7568000D02*
X12278000Y-7648000D01*
X12278000Y-7568000D02*
X12198000Y-7648000D01*
X12198000Y-7822000D02*
X12278000Y-7902000D01*
X12278000Y-7822000D02*
X12198000Y-7902000D01*
X12198000Y-8076000D02*
X12278000Y-8156000D01*
X12278000Y-8076000D02*
X12198000Y-8156000D01*
X12198000Y-8330000D02*
X12278000Y-8410000D01*
X12278000Y-8330000D02*
X12198000Y-8410000D01*
X12198000Y-8584000D02*
X12278000Y-8664000D01*
X12278000Y-8584000D02*
X12198000Y-8664000D01*
X12198000Y-8838000D02*
X12278000Y-8918000D01*
X12278000Y-8838000D02*
X12198000Y-8918000D01*
X12198000Y-9092000D02*
X12278000Y-9172000D01*
X12278000Y-9092000D02*
X12198000Y-9172000D01*
X12198000Y-9346000D02*
X12278000Y-9426000D01*
X12278000Y-9346000D02*
X12198000Y-9426000D01*
X12198000Y-9600000D02*
X12278000Y-9680000D01*
X12278000Y-9600000D02*
X12198000Y-9680000D01*
X12198000Y-9854000D02*
X12278000Y-9934000D01*
X12278000Y-9854000D02*
X12198000Y-9934000D01*
X6780000Y-8900000D02*
G75*
G02*
X6680000Y-8900000I-50000J0D01*
G01*
X6680000Y-8900000D02*
G75*
G02*
X6780000Y-8900000I50000J0D01*
G01*
X7034000Y-8900000D02*
G75*
G02*
X6934000Y-8900000I-50000J0D01*
G01*
X6934000Y-8900000D02*
G75*
G02*
X7034000Y-8900000I50000J0D01*
G01*
X7288000Y-8900000D02*
G75*
G02*
X7188000Y-8900000I-50000J0D01*
G01*
X7188000Y-8900000D02*
G75*
G02*
X7288000Y-8900000I50000J0D01*
G01*
X7542000Y-8900000D02*
G75*
G02*
X7442000Y-8900000I-50000J0D01*
G01*
X7442000Y-8900000D02*
G75*
G02*
X7542000Y-8900000I50000J0D01*
G01*
X7796000Y-8900000D02*
G75*
G02*
X7696000Y-8900000I-50000J0D01*
G01*
X7696000Y-8900000D02*
G75*
G02*
X7796000Y-8900000I50000J0D01*
G01*
X8050000Y-8900000D02*
G75*
G02*
X7950000Y-8900000I-50000J0D01*
G01*
X7950000Y-8900000D02*
G75*
G02*
X8050000Y-8900000I50000J0D01*
G01*
X8304000Y-8900000D02*
G75*
G02*
X8204000Y-8900000I-50000J0D01*
G01*
X8204000Y-8900000D02*
G75*
G02*
X8304000Y-8900000I50000J0D01*
G01*
X8558000Y-8900000D02*
G75*
G02*
X8458000Y-8900000I-50000J0D01*
G01*
X8458000Y-8900000D02*
G75*
G02*
X8558000Y-8900000I50000J0D01*
G01*
X8812000Y-8900000D02*
G75*
G02*
X8712000Y-8900000I-50000J0D01*
G01*
X8712000Y-8900000D02*
G75*
G02*
X8812000Y-8900000I50000J0D01*
G01*
X9888000Y-8052000D02*
G75*
G02*
X9788000Y-8052000I-50000J0D01*
G01*
X9788000Y-8052000D02*
G75*
G02*
X9888000Y-8052000I50000J0D01*
G01*
X9888000Y-8306000D02*
G75*
G02*
X9788000Y-8306000I-50000J0D01*
G01*
X9788000Y-8306000D02*
G75*
G02*
X9888000Y-8306000I50000J0D01*
G01*
X9888000Y-8560000D02*
G75*
G02*
X9788000Y-8560000I-50000J0D01*
G01*
X9788000Y-8560000D02*
G75*
G02*
X9888000Y-8560000I50000J0D01*
G01*
X9888000Y-8814000D02*
G75*
G02*
X9788000Y-8814000I-50000J0D01*
G01*
X9788000Y-8814000D02*
G75*
G02*
X9888000Y-8814000I50000J0D01*
G01*
X9888000Y-9068000D02*
G75*
G02*
X9788000Y-9068000I-50000J0D01*
G01*
X9788000Y-9068000D02*
G75*
G02*
X9888000Y-9068000I50000J0D01*
G01*
X9888000Y-9322000D02*
G75*
G02*
X9788000Y-9322000I-50000J0D01*
G01*
X9788000Y-9322000D02*
G75*
G02*
X9888000Y-9322000I50000J0D01*
G01*
X9888000Y-9576000D02*
G75*
G02*
X9788000Y-9576000I-50000J0D01*
G01*
X9788000Y-9576000D02*
G75*
G02*
X9888000Y-9576000I50000J0D01*
G01*
X9888000Y-9830000D02*
G75*
G02*
X9788000Y-9830000I-50000J0D01*
G01*
X9788000Y-9830000D02*
G75*
G02*
X9888000Y-9830000I50000J0D01*
G01*
X13588000Y-4852000D02*
G75*
G02*
X13488000Y-4852000I-50000J0D01*
G01*
X13488000Y-4852000D02*
G75*
G02*
X13588000Y-4852000I50000J0D01*
G01*
X13588000Y-5106000D02*
G75*
G02*
X13488000Y-5106000I-50000J0D01*
G01*
X13488000Y-5106000D02*
G75*
G02*
X13588000Y-5106000I50000J0D01*
G01*
X13588000Y-5360000D02*
G75*
G02*
X13488000Y-5360000I-50000J0D01*
G01*
X13488000Y-5360000D02*
G75*
G02*
X13588000Y-5360000I50000J0D01*
G01*
X13588000Y-5614000D02*
G75*
G02*
X13488000Y-5614000I-50000J0D01*
G01*
X13488000Y-5614000D02*
G75*
G02*
X13588000Y-5614000I50000J0D01*
G01*
X13588000Y-5868000D02*
G75*
G02*
X13488000Y-5868000I-50000J0D01*
G01*
X13488000Y-5868000D02*
G75*
G02*
X13588000Y-5868000I50000J0D01*
G01*
X13588000Y-6122000D02*
G75*
G02*
X13488000Y-6122000I-50000J0D01*
G01*
X13488000Y-6122000D02*
G75*
G02*
X13588000Y-6122000I50000J0D01*
G01*
X13588000Y-6376000D02*
G75*
G02*
X13488000Y-6376000I-50000J0D01*
G01*
X13488000Y-6376000D02*
G75*
G02*
X13588000Y-6376000I50000J0D01*
G01*
X13588000Y-6630000D02*
G75*
G02*
X13488000Y-6630000I-50000J0D01*
G01*
X13488000Y-6630000D02*
G75*
G02*
X13588000Y-6630000I50000J0D01*
G01*
D13*
X13388000Y-9140000D02*
X13388000Y-9260000D01*
X13328000Y-9200000D02*
X13448000Y-9200000D01*
X13738000Y-9140000D02*
X13738000Y-9260000D01*
X13678000Y-9200000D02*
X13798000Y-9200000D01*
D11*
X6258277Y-12113984D02*
X6258277Y-11913984D01*
X6258277Y-11913984D02*
X6305896Y-11913984D01*
X6305896Y-11913984D02*
X6334467Y-11923508D01*
X6334467Y-11923508D02*
X6353515Y-11942555D01*
X6353515Y-11942555D02*
X6363039Y-11961603D01*
X6363039Y-11961603D02*
X6372562Y-11999698D01*
X6372562Y-11999698D02*
X6372562Y-12028269D01*
X6372562Y-12028269D02*
X6363039Y-12066365D01*
X6363039Y-12066365D02*
X6353515Y-12085412D01*
X6353515Y-12085412D02*
X6334467Y-12104460D01*
X6334467Y-12104460D02*
X6305896Y-12113984D01*
X6305896Y-12113984D02*
X6258277Y-12113984D01*
X6458277Y-12113984D02*
X6458277Y-11980650D01*
X6458277Y-12018746D02*
X6467801Y-11999698D01*
X6467801Y-11999698D02*
X6477324Y-11990174D01*
X6477324Y-11990174D02*
X6496372Y-11980650D01*
X6496372Y-11980650D02*
X6515420Y-11980650D01*
X6582086Y-12113984D02*
X6582086Y-11980650D01*
X6582086Y-11913984D02*
X6572562Y-11923508D01*
X6572562Y-11923508D02*
X6582086Y-11933031D01*
X6582086Y-11933031D02*
X6591610Y-11923508D01*
X6591610Y-11923508D02*
X6582086Y-11913984D01*
X6582086Y-11913984D02*
X6582086Y-11933031D01*
X6705896Y-12113984D02*
X6686848Y-12104460D01*
X6686848Y-12104460D02*
X6677324Y-12085412D01*
X6677324Y-12085412D02*
X6677324Y-11913984D01*
X6810658Y-12113984D02*
X6791610Y-12104460D01*
X6791610Y-12104460D02*
X6782086Y-12085412D01*
X6782086Y-12085412D02*
X6782086Y-11913984D01*
X7039229Y-12113984D02*
X7039229Y-11913984D01*
X7039229Y-11913984D02*
X7105896Y-12056841D01*
X7105896Y-12056841D02*
X7172562Y-11913984D01*
X7172562Y-11913984D02*
X7172562Y-12113984D01*
X7353515Y-12113984D02*
X7353515Y-12009222D01*
X7353515Y-12009222D02*
X7343991Y-11990174D01*
X7343991Y-11990174D02*
X7324943Y-11980650D01*
X7324943Y-11980650D02*
X7286848Y-11980650D01*
X7286848Y-11980650D02*
X7267801Y-11990174D01*
X7353515Y-12104460D02*
X7334467Y-12113984D01*
X7334467Y-12113984D02*
X7286848Y-12113984D01*
X7286848Y-12113984D02*
X7267801Y-12104460D01*
X7267801Y-12104460D02*
X7258277Y-12085412D01*
X7258277Y-12085412D02*
X7258277Y-12066365D01*
X7258277Y-12066365D02*
X7267801Y-12047317D01*
X7267801Y-12047317D02*
X7286848Y-12037793D01*
X7286848Y-12037793D02*
X7334467Y-12037793D01*
X7334467Y-12037793D02*
X7353515Y-12028269D01*
X7448753Y-11980650D02*
X7448753Y-12180650D01*
X7448753Y-11990174D02*
X7467801Y-11980650D01*
X7467801Y-11980650D02*
X7505896Y-11980650D01*
X7505896Y-11980650D02*
X7524943Y-11990174D01*
X7524943Y-11990174D02*
X7534467Y-11999698D01*
X7534467Y-11999698D02*
X7543991Y-12018746D01*
X7543991Y-12018746D02*
X7543991Y-12075888D01*
X7543991Y-12075888D02*
X7534467Y-12094936D01*
X7534467Y-12094936D02*
X7524943Y-12104460D01*
X7524943Y-12104460D02*
X7505896Y-12113984D01*
X7505896Y-12113984D02*
X7467801Y-12113984D01*
X7467801Y-12113984D02*
X7448753Y-12104460D01*
X7629705Y-12094936D02*
X7639229Y-12104460D01*
X7639229Y-12104460D02*
X7629705Y-12113984D01*
X7629705Y-12113984D02*
X7620182Y-12104460D01*
X7620182Y-12104460D02*
X7629705Y-12094936D01*
X7629705Y-12094936D02*
X7629705Y-12113984D01*
X7629705Y-11990174D02*
X7639229Y-11999698D01*
X7639229Y-11999698D02*
X7629705Y-12009222D01*
X7629705Y-12009222D02*
X7620182Y-11999698D01*
X7620182Y-11999698D02*
X7629705Y-11990174D01*
X7629705Y-11990174D02*
X7629705Y-12009222D01*
D12*
X5917500Y-12402500D02*
X5997500Y-12482500D01*
X5997500Y-12402500D02*
X5917500Y-12482500D01*
D11*
X6296372Y-12333984D02*
X6315420Y-12333984D01*
X6315420Y-12333984D02*
X6334467Y-12343508D01*
X6334467Y-12343508D02*
X6343991Y-12353031D01*
X6343991Y-12353031D02*
X6353515Y-12372079D01*
X6353515Y-12372079D02*
X6363039Y-12410174D01*
X6363039Y-12410174D02*
X6363039Y-12457793D01*
X6363039Y-12457793D02*
X6353515Y-12495888D01*
X6353515Y-12495888D02*
X6343991Y-12514936D01*
X6343991Y-12514936D02*
X6334467Y-12524460D01*
X6334467Y-12524460D02*
X6315420Y-12533984D01*
X6315420Y-12533984D02*
X6296372Y-12533984D01*
X6296372Y-12533984D02*
X6277324Y-12524460D01*
X6277324Y-12524460D02*
X6267801Y-12514936D01*
X6267801Y-12514936D02*
X6258277Y-12495888D01*
X6258277Y-12495888D02*
X6248753Y-12457793D01*
X6248753Y-12457793D02*
X6248753Y-12410174D01*
X6248753Y-12410174D02*
X6258277Y-12372079D01*
X6258277Y-12372079D02*
X6267801Y-12353031D01*
X6267801Y-12353031D02*
X6277324Y-12343508D01*
X6277324Y-12343508D02*
X6296372Y-12333984D01*
X6448753Y-12514936D02*
X6458277Y-12524460D01*
X6458277Y-12524460D02*
X6448753Y-12533984D01*
X6448753Y-12533984D02*
X6439229Y-12524460D01*
X6439229Y-12524460D02*
X6448753Y-12514936D01*
X6448753Y-12514936D02*
X6448753Y-12533984D01*
X6572562Y-12419698D02*
X6553515Y-12410174D01*
X6553515Y-12410174D02*
X6543991Y-12400650D01*
X6543991Y-12400650D02*
X6534467Y-12381603D01*
X6534467Y-12381603D02*
X6534467Y-12372079D01*
X6534467Y-12372079D02*
X6543991Y-12353031D01*
X6543991Y-12353031D02*
X6553515Y-12343508D01*
X6553515Y-12343508D02*
X6572562Y-12333984D01*
X6572562Y-12333984D02*
X6610658Y-12333984D01*
X6610658Y-12333984D02*
X6629705Y-12343508D01*
X6629705Y-12343508D02*
X6639229Y-12353031D01*
X6639229Y-12353031D02*
X6648753Y-12372079D01*
X6648753Y-12372079D02*
X6648753Y-12381603D01*
X6648753Y-12381603D02*
X6639229Y-12400650D01*
X6639229Y-12400650D02*
X6629705Y-12410174D01*
X6629705Y-12410174D02*
X6610658Y-12419698D01*
X6610658Y-12419698D02*
X6572562Y-12419698D01*
X6572562Y-12419698D02*
X6553515Y-12429222D01*
X6553515Y-12429222D02*
X6543991Y-12438746D01*
X6543991Y-12438746D02*
X6534467Y-12457793D01*
X6534467Y-12457793D02*
X6534467Y-12495888D01*
X6534467Y-12495888D02*
X6543991Y-12514936D01*
X6543991Y-12514936D02*
X6553515Y-12524460D01*
X6553515Y-12524460D02*
X6572562Y-12533984D01*
X6572562Y-12533984D02*
X6610658Y-12533984D01*
X6610658Y-12533984D02*
X6629705Y-12524460D01*
X6629705Y-12524460D02*
X6639229Y-12514936D01*
X6639229Y-12514936D02*
X6648753Y-12495888D01*
X6648753Y-12495888D02*
X6648753Y-12457793D01*
X6648753Y-12457793D02*
X6639229Y-12438746D01*
X6639229Y-12438746D02*
X6629705Y-12429222D01*
X6629705Y-12429222D02*
X6610658Y-12419698D01*
X6772562Y-12333984D02*
X6791610Y-12333984D01*
X6791610Y-12333984D02*
X6810658Y-12343508D01*
X6810658Y-12343508D02*
X6820182Y-12353031D01*
X6820182Y-12353031D02*
X6829705Y-12372079D01*
X6829705Y-12372079D02*
X6839229Y-12410174D01*
X6839229Y-12410174D02*
X6839229Y-12457793D01*
X6839229Y-12457793D02*
X6829705Y-12495888D01*
X6829705Y-12495888D02*
X6820182Y-12514936D01*
X6820182Y-12514936D02*
X6810658Y-12524460D01*
X6810658Y-12524460D02*
X6791610Y-12533984D01*
X6791610Y-12533984D02*
X6772562Y-12533984D01*
X6772562Y-12533984D02*
X6753515Y-12524460D01*
X6753515Y-12524460D02*
X6743991Y-12514936D01*
X6743991Y-12514936D02*
X6734467Y-12495888D01*
X6734467Y-12495888D02*
X6724943Y-12457793D01*
X6724943Y-12457793D02*
X6724943Y-12410174D01*
X6724943Y-12410174D02*
X6734467Y-12372079D01*
X6734467Y-12372079D02*
X6743991Y-12353031D01*
X6743991Y-12353031D02*
X6753515Y-12343508D01*
X6753515Y-12343508D02*
X6772562Y-12333984D01*
X6963039Y-12333984D02*
X6982086Y-12333984D01*
X6982086Y-12333984D02*
X7001134Y-12343508D01*
X7001134Y-12343508D02*
X7010658Y-12353031D01*
X7010658Y-12353031D02*
X7020182Y-12372079D01*
X7020182Y-12372079D02*
X7029705Y-12410174D01*
X7029705Y-12410174D02*
X7029705Y-12457793D01*
X7029705Y-12457793D02*
X7020182Y-12495888D01*
X7020182Y-12495888D02*
X7010658Y-12514936D01*
X7010658Y-12514936D02*
X7001134Y-12524460D01*
X7001134Y-12524460D02*
X6982086Y-12533984D01*
X6982086Y-12533984D02*
X6963039Y-12533984D01*
X6963039Y-12533984D02*
X6943991Y-12524460D01*
X6943991Y-12524460D02*
X6934467Y-12514936D01*
X6934467Y-12514936D02*
X6924943Y-12495888D01*
X6924943Y-12495888D02*
X6915420Y-12457793D01*
X6915420Y-12457793D02*
X6915420Y-12410174D01*
X6915420Y-12410174D02*
X6924943Y-12372079D01*
X6924943Y-12372079D02*
X6934467Y-12353031D01*
X6934467Y-12353031D02*
X6943991Y-12343508D01*
X6943991Y-12343508D02*
X6963039Y-12333984D01*
X7115420Y-12533984D02*
X7115420Y-12400650D01*
X7115420Y-12419698D02*
X7124943Y-12410174D01*
X7124943Y-12410174D02*
X7143991Y-12400650D01*
X7143991Y-12400650D02*
X7172563Y-12400650D01*
X7172563Y-12400650D02*
X7191610Y-12410174D01*
X7191610Y-12410174D02*
X7201134Y-12429222D01*
X7201134Y-12429222D02*
X7201134Y-12533984D01*
X7201134Y-12429222D02*
X7210658Y-12410174D01*
X7210658Y-12410174D02*
X7229705Y-12400650D01*
X7229705Y-12400650D02*
X7258277Y-12400650D01*
X7258277Y-12400650D02*
X7277324Y-12410174D01*
X7277324Y-12410174D02*
X7286848Y-12429222D01*
X7286848Y-12429222D02*
X7286848Y-12533984D01*
X7382086Y-12533984D02*
X7382086Y-12400650D01*
X7382086Y-12419698D02*
X7391610Y-12410174D01*
X7391610Y-12410174D02*
X7410658Y-12400650D01*
X7410658Y-12400650D02*
X7439229Y-12400650D01*
X7439229Y-12400650D02*
X7458277Y-12410174D01*
X7458277Y-12410174D02*
X7467801Y-12429222D01*
X7467801Y-12429222D02*
X7467801Y-12533984D01*
X7467801Y-12429222D02*
X7477324Y-12410174D01*
X7477324Y-12410174D02*
X7496372Y-12400650D01*
X7496372Y-12400650D02*
X7524943Y-12400650D01*
X7524943Y-12400650D02*
X7543991Y-12410174D01*
X7543991Y-12410174D02*
X7553515Y-12429222D01*
X7553515Y-12429222D02*
X7553515Y-12533984D01*
X7943991Y-12324460D02*
X7772563Y-12581603D01*
X8201134Y-12333984D02*
X8220182Y-12333984D01*
X8220182Y-12333984D02*
X8239229Y-12343508D01*
X8239229Y-12343508D02*
X8248753Y-12353031D01*
X8248753Y-12353031D02*
X8258277Y-12372079D01*
X8258277Y-12372079D02*
X8267801Y-12410174D01*
X8267801Y-12410174D02*
X8267801Y-12457793D01*
X8267801Y-12457793D02*
X8258277Y-12495888D01*
X8258277Y-12495888D02*
X8248753Y-12514936D01*
X8248753Y-12514936D02*
X8239229Y-12524460D01*
X8239229Y-12524460D02*
X8220182Y-12533984D01*
X8220182Y-12533984D02*
X8201134Y-12533984D01*
X8201134Y-12533984D02*
X8182086Y-12524460D01*
X8182086Y-12524460D02*
X8172563Y-12514936D01*
X8172563Y-12514936D02*
X8163039Y-12495888D01*
X8163039Y-12495888D02*
X8153515Y-12457793D01*
X8153515Y-12457793D02*
X8153515Y-12410174D01*
X8153515Y-12410174D02*
X8163039Y-12372079D01*
X8163039Y-12372079D02*
X8172563Y-12353031D01*
X8172563Y-12353031D02*
X8182086Y-12343508D01*
X8182086Y-12343508D02*
X8201134Y-12333984D01*
X8353515Y-12514936D02*
X8363039Y-12524460D01*
X8363039Y-12524460D02*
X8353515Y-12533984D01*
X8353515Y-12533984D02*
X8343991Y-12524460D01*
X8343991Y-12524460D02*
X8353515Y-12514936D01*
X8353515Y-12514936D02*
X8353515Y-12533984D01*
X8486848Y-12333984D02*
X8505896Y-12333984D01*
X8505896Y-12333984D02*
X8524944Y-12343508D01*
X8524944Y-12343508D02*
X8534468Y-12353031D01*
X8534468Y-12353031D02*
X8543991Y-12372079D01*
X8543991Y-12372079D02*
X8553515Y-12410174D01*
X8553515Y-12410174D02*
X8553515Y-12457793D01*
X8553515Y-12457793D02*
X8543991Y-12495888D01*
X8543991Y-12495888D02*
X8534468Y-12514936D01*
X8534468Y-12514936D02*
X8524944Y-12524460D01*
X8524944Y-12524460D02*
X8505896Y-12533984D01*
X8505896Y-12533984D02*
X8486848Y-12533984D01*
X8486848Y-12533984D02*
X8467801Y-12524460D01*
X8467801Y-12524460D02*
X8458277Y-12514936D01*
X8458277Y-12514936D02*
X8448753Y-12495888D01*
X8448753Y-12495888D02*
X8439229Y-12457793D01*
X8439229Y-12457793D02*
X8439229Y-12410174D01*
X8439229Y-12410174D02*
X8448753Y-12372079D01*
X8448753Y-12372079D02*
X8458277Y-12353031D01*
X8458277Y-12353031D02*
X8467801Y-12343508D01*
X8467801Y-12343508D02*
X8486848Y-12333984D01*
X8620182Y-12333984D02*
X8743991Y-12333984D01*
X8743991Y-12333984D02*
X8677325Y-12410174D01*
X8677325Y-12410174D02*
X8705896Y-12410174D01*
X8705896Y-12410174D02*
X8724944Y-12419698D01*
X8724944Y-12419698D02*
X8734468Y-12429222D01*
X8734468Y-12429222D02*
X8743991Y-12448269D01*
X8743991Y-12448269D02*
X8743991Y-12495888D01*
X8743991Y-12495888D02*
X8734468Y-12514936D01*
X8734468Y-12514936D02*
X8724944Y-12524460D01*
X8724944Y-12524460D02*
X8705896Y-12533984D01*
X8705896Y-12533984D02*
X8648753Y-12533984D01*
X8648753Y-12533984D02*
X8629706Y-12524460D01*
X8629706Y-12524460D02*
X8620182Y-12514936D01*
X8934468Y-12533984D02*
X8820182Y-12533984D01*
X8877325Y-12533984D02*
X8877325Y-12333984D01*
X8877325Y-12333984D02*
X8858277Y-12362555D01*
X8858277Y-12362555D02*
X8839229Y-12381603D01*
X8839229Y-12381603D02*
X8820182Y-12391127D01*
X9115420Y-12333984D02*
X9020182Y-12333984D01*
X9020182Y-12333984D02*
X9010658Y-12429222D01*
X9010658Y-12429222D02*
X9020182Y-12419698D01*
X9020182Y-12419698D02*
X9039229Y-12410174D01*
X9039229Y-12410174D02*
X9086849Y-12410174D01*
X9086849Y-12410174D02*
X9105896Y-12419698D01*
X9105896Y-12419698D02*
X9115420Y-12429222D01*
X9115420Y-12429222D02*
X9124944Y-12448269D01*
X9124944Y-12448269D02*
X9124944Y-12495888D01*
X9124944Y-12495888D02*
X9115420Y-12514936D01*
X9115420Y-12514936D02*
X9105896Y-12524460D01*
X9105896Y-12524460D02*
X9086849Y-12533984D01*
X9086849Y-12533984D02*
X9039229Y-12533984D01*
X9039229Y-12533984D02*
X9020182Y-12524460D01*
X9020182Y-12524460D02*
X9010658Y-12514936D01*
X9201134Y-12333984D02*
X9201134Y-12372079D01*
X9277325Y-12333984D02*
X9277325Y-12372079D01*
X9572563Y-12610174D02*
X9563039Y-12600650D01*
X9563039Y-12600650D02*
X9543991Y-12572079D01*
X9543991Y-12572079D02*
X9534468Y-12553031D01*
X9534468Y-12553031D02*
X9524944Y-12524460D01*
X9524944Y-12524460D02*
X9515420Y-12476841D01*
X9515420Y-12476841D02*
X9515420Y-12438746D01*
X9515420Y-12438746D02*
X9524944Y-12391127D01*
X9524944Y-12391127D02*
X9534468Y-12362555D01*
X9534468Y-12362555D02*
X9543991Y-12343508D01*
X9543991Y-12343508D02*
X9563039Y-12314936D01*
X9563039Y-12314936D02*
X9572563Y-12305412D01*
X9677325Y-12419698D02*
X9658277Y-12410174D01*
X9658277Y-12410174D02*
X9648753Y-12400650D01*
X9648753Y-12400650D02*
X9639230Y-12381603D01*
X9639230Y-12381603D02*
X9639230Y-12372079D01*
X9639230Y-12372079D02*
X9648753Y-12353031D01*
X9648753Y-12353031D02*
X9658277Y-12343508D01*
X9658277Y-12343508D02*
X9677325Y-12333984D01*
X9677325Y-12333984D02*
X9715420Y-12333984D01*
X9715420Y-12333984D02*
X9734468Y-12343508D01*
X9734468Y-12343508D02*
X9743991Y-12353031D01*
X9743991Y-12353031D02*
X9753515Y-12372079D01*
X9753515Y-12372079D02*
X9753515Y-12381603D01*
X9753515Y-12381603D02*
X9743991Y-12400650D01*
X9743991Y-12400650D02*
X9734468Y-12410174D01*
X9734468Y-12410174D02*
X9715420Y-12419698D01*
X9715420Y-12419698D02*
X9677325Y-12419698D01*
X9677325Y-12419698D02*
X9658277Y-12429222D01*
X9658277Y-12429222D02*
X9648753Y-12438746D01*
X9648753Y-12438746D02*
X9639230Y-12457793D01*
X9639230Y-12457793D02*
X9639230Y-12495888D01*
X9639230Y-12495888D02*
X9648753Y-12514936D01*
X9648753Y-12514936D02*
X9658277Y-12524460D01*
X9658277Y-12524460D02*
X9677325Y-12533984D01*
X9677325Y-12533984D02*
X9715420Y-12533984D01*
X9715420Y-12533984D02*
X9734468Y-12524460D01*
X9734468Y-12524460D02*
X9743991Y-12514936D01*
X9743991Y-12514936D02*
X9753515Y-12495888D01*
X9753515Y-12495888D02*
X9753515Y-12457793D01*
X9753515Y-12457793D02*
X9743991Y-12438746D01*
X9743991Y-12438746D02*
X9734468Y-12429222D01*
X9734468Y-12429222D02*
X9715420Y-12419698D01*
X9877325Y-12333984D02*
X9896372Y-12333984D01*
X9896372Y-12333984D02*
X9915420Y-12343508D01*
X9915420Y-12343508D02*
X9924944Y-12353031D01*
X9924944Y-12353031D02*
X9934468Y-12372079D01*
X9934468Y-12372079D02*
X9943991Y-12410174D01*
X9943991Y-12410174D02*
X9943991Y-12457793D01*
X9943991Y-12457793D02*
X9934468Y-12495888D01*
X9934468Y-12495888D02*
X9924944Y-12514936D01*
X9924944Y-12514936D02*
X9915420Y-12524460D01*
X9915420Y-12524460D02*
X9896372Y-12533984D01*
X9896372Y-12533984D02*
X9877325Y-12533984D01*
X9877325Y-12533984D02*
X9858277Y-12524460D01*
X9858277Y-12524460D02*
X9848753Y-12514936D01*
X9848753Y-12514936D02*
X9839230Y-12495888D01*
X9839230Y-12495888D02*
X9829706Y-12457793D01*
X9829706Y-12457793D02*
X9829706Y-12410174D01*
X9829706Y-12410174D02*
X9839230Y-12372079D01*
X9839230Y-12372079D02*
X9848753Y-12353031D01*
X9848753Y-12353031D02*
X9858277Y-12343508D01*
X9858277Y-12343508D02*
X9877325Y-12333984D01*
X10182087Y-12533984D02*
X10182087Y-12333984D01*
X10267801Y-12533984D02*
X10267801Y-12429222D01*
X10267801Y-12429222D02*
X10258277Y-12410174D01*
X10258277Y-12410174D02*
X10239230Y-12400650D01*
X10239230Y-12400650D02*
X10210658Y-12400650D01*
X10210658Y-12400650D02*
X10191611Y-12410174D01*
X10191611Y-12410174D02*
X10182087Y-12419698D01*
X10391611Y-12533984D02*
X10372563Y-12524460D01*
X10372563Y-12524460D02*
X10363039Y-12514936D01*
X10363039Y-12514936D02*
X10353515Y-12495888D01*
X10353515Y-12495888D02*
X10353515Y-12438746D01*
X10353515Y-12438746D02*
X10363039Y-12419698D01*
X10363039Y-12419698D02*
X10372563Y-12410174D01*
X10372563Y-12410174D02*
X10391611Y-12400650D01*
X10391611Y-12400650D02*
X10420182Y-12400650D01*
X10420182Y-12400650D02*
X10439230Y-12410174D01*
X10439230Y-12410174D02*
X10448753Y-12419698D01*
X10448753Y-12419698D02*
X10458277Y-12438746D01*
X10458277Y-12438746D02*
X10458277Y-12495888D01*
X10458277Y-12495888D02*
X10448753Y-12514936D01*
X10448753Y-12514936D02*
X10439230Y-12524460D01*
X10439230Y-12524460D02*
X10420182Y-12533984D01*
X10420182Y-12533984D02*
X10391611Y-12533984D01*
X10572563Y-12533984D02*
X10553515Y-12524460D01*
X10553515Y-12524460D02*
X10543992Y-12505412D01*
X10543992Y-12505412D02*
X10543992Y-12333984D01*
X10724944Y-12524460D02*
X10705896Y-12533984D01*
X10705896Y-12533984D02*
X10667801Y-12533984D01*
X10667801Y-12533984D02*
X10648753Y-12524460D01*
X10648753Y-12524460D02*
X10639230Y-12505412D01*
X10639230Y-12505412D02*
X10639230Y-12429222D01*
X10639230Y-12429222D02*
X10648753Y-12410174D01*
X10648753Y-12410174D02*
X10667801Y-12400650D01*
X10667801Y-12400650D02*
X10705896Y-12400650D01*
X10705896Y-12400650D02*
X10724944Y-12410174D01*
X10724944Y-12410174D02*
X10734468Y-12429222D01*
X10734468Y-12429222D02*
X10734468Y-12448269D01*
X10734468Y-12448269D02*
X10639230Y-12467317D01*
X10810658Y-12524460D02*
X10829706Y-12533984D01*
X10829706Y-12533984D02*
X10867801Y-12533984D01*
X10867801Y-12533984D02*
X10886849Y-12524460D01*
X10886849Y-12524460D02*
X10896373Y-12505412D01*
X10896373Y-12505412D02*
X10896373Y-12495888D01*
X10896373Y-12495888D02*
X10886849Y-12476841D01*
X10886849Y-12476841D02*
X10867801Y-12467317D01*
X10867801Y-12467317D02*
X10839230Y-12467317D01*
X10839230Y-12467317D02*
X10820182Y-12457793D01*
X10820182Y-12457793D02*
X10810658Y-12438746D01*
X10810658Y-12438746D02*
X10810658Y-12429222D01*
X10810658Y-12429222D02*
X10820182Y-12410174D01*
X10820182Y-12410174D02*
X10839230Y-12400650D01*
X10839230Y-12400650D02*
X10867801Y-12400650D01*
X10867801Y-12400650D02*
X10886849Y-12410174D01*
X10963039Y-12610174D02*
X10972563Y-12600650D01*
X10972563Y-12600650D02*
X10991611Y-12572079D01*
X10991611Y-12572079D02*
X11001134Y-12553031D01*
X11001134Y-12553031D02*
X11010658Y-12524460D01*
X11010658Y-12524460D02*
X11020182Y-12476841D01*
X11020182Y-12476841D02*
X11020182Y-12438746D01*
X11020182Y-12438746D02*
X11010658Y-12391127D01*
X11010658Y-12391127D02*
X11001134Y-12362555D01*
X11001134Y-12362555D02*
X10991611Y-12343508D01*
X10991611Y-12343508D02*
X10972563Y-12314936D01*
X10972563Y-12314936D02*
X10963039Y-12305412D01*
D12*
X5997500Y-12706500D02*
G75*
G02*
X5897500Y-12706500I-50000J0D01*
G01*
X5897500Y-12706500D02*
G75*
G02*
X5997500Y-12706500I50000J0D01*
G01*
D11*
X6363039Y-12797984D02*
X6248753Y-12797984D01*
X6305896Y-12797984D02*
X6305896Y-12597984D01*
X6305896Y-12597984D02*
X6286848Y-12626555D01*
X6286848Y-12626555D02*
X6267801Y-12645603D01*
X6267801Y-12645603D02*
X6248753Y-12655127D01*
X6448753Y-12778936D02*
X6458277Y-12788460D01*
X6458277Y-12788460D02*
X6448753Y-12797984D01*
X6448753Y-12797984D02*
X6439229Y-12788460D01*
X6439229Y-12788460D02*
X6448753Y-12778936D01*
X6448753Y-12778936D02*
X6448753Y-12797984D01*
X6582086Y-12597984D02*
X6601134Y-12597984D01*
X6601134Y-12597984D02*
X6620182Y-12607508D01*
X6620182Y-12607508D02*
X6629705Y-12617031D01*
X6629705Y-12617031D02*
X6639229Y-12636079D01*
X6639229Y-12636079D02*
X6648753Y-12674174D01*
X6648753Y-12674174D02*
X6648753Y-12721793D01*
X6648753Y-12721793D02*
X6639229Y-12759888D01*
X6639229Y-12759888D02*
X6629705Y-12778936D01*
X6629705Y-12778936D02*
X6620182Y-12788460D01*
X6620182Y-12788460D02*
X6601134Y-12797984D01*
X6601134Y-12797984D02*
X6582086Y-12797984D01*
X6582086Y-12797984D02*
X6563039Y-12788460D01*
X6563039Y-12788460D02*
X6553515Y-12778936D01*
X6553515Y-12778936D02*
X6543991Y-12759888D01*
X6543991Y-12759888D02*
X6534467Y-12721793D01*
X6534467Y-12721793D02*
X6534467Y-12674174D01*
X6534467Y-12674174D02*
X6543991Y-12636079D01*
X6543991Y-12636079D02*
X6553515Y-12617031D01*
X6553515Y-12617031D02*
X6563039Y-12607508D01*
X6563039Y-12607508D02*
X6582086Y-12597984D01*
X6772562Y-12597984D02*
X6791610Y-12597984D01*
X6791610Y-12597984D02*
X6810658Y-12607508D01*
X6810658Y-12607508D02*
X6820182Y-12617031D01*
X6820182Y-12617031D02*
X6829705Y-12636079D01*
X6829705Y-12636079D02*
X6839229Y-12674174D01*
X6839229Y-12674174D02*
X6839229Y-12721793D01*
X6839229Y-12721793D02*
X6829705Y-12759888D01*
X6829705Y-12759888D02*
X6820182Y-12778936D01*
X6820182Y-12778936D02*
X6810658Y-12788460D01*
X6810658Y-12788460D02*
X6791610Y-12797984D01*
X6791610Y-12797984D02*
X6772562Y-12797984D01*
X6772562Y-12797984D02*
X6753515Y-12788460D01*
X6753515Y-12788460D02*
X6743991Y-12778936D01*
X6743991Y-12778936D02*
X6734467Y-12759888D01*
X6734467Y-12759888D02*
X6724943Y-12721793D01*
X6724943Y-12721793D02*
X6724943Y-12674174D01*
X6724943Y-12674174D02*
X6734467Y-12636079D01*
X6734467Y-12636079D02*
X6743991Y-12617031D01*
X6743991Y-12617031D02*
X6753515Y-12607508D01*
X6753515Y-12607508D02*
X6772562Y-12597984D01*
X6963039Y-12597984D02*
X6982086Y-12597984D01*
X6982086Y-12597984D02*
X7001134Y-12607508D01*
X7001134Y-12607508D02*
X7010658Y-12617031D01*
X7010658Y-12617031D02*
X7020182Y-12636079D01*
X7020182Y-12636079D02*
X7029705Y-12674174D01*
X7029705Y-12674174D02*
X7029705Y-12721793D01*
X7029705Y-12721793D02*
X7020182Y-12759888D01*
X7020182Y-12759888D02*
X7010658Y-12778936D01*
X7010658Y-12778936D02*
X7001134Y-12788460D01*
X7001134Y-12788460D02*
X6982086Y-12797984D01*
X6982086Y-12797984D02*
X6963039Y-12797984D01*
X6963039Y-12797984D02*
X6943991Y-12788460D01*
X6943991Y-12788460D02*
X6934467Y-12778936D01*
X6934467Y-12778936D02*
X6924943Y-12759888D01*
X6924943Y-12759888D02*
X6915420Y-12721793D01*
X6915420Y-12721793D02*
X6915420Y-12674174D01*
X6915420Y-12674174D02*
X6924943Y-12636079D01*
X6924943Y-12636079D02*
X6934467Y-12617031D01*
X6934467Y-12617031D02*
X6943991Y-12607508D01*
X6943991Y-12607508D02*
X6963039Y-12597984D01*
X7115420Y-12797984D02*
X7115420Y-12664650D01*
X7115420Y-12683698D02*
X7124943Y-12674174D01*
X7124943Y-12674174D02*
X7143991Y-12664650D01*
X7143991Y-12664650D02*
X7172563Y-12664650D01*
X7172563Y-12664650D02*
X7191610Y-12674174D01*
X7191610Y-12674174D02*
X7201134Y-12693222D01*
X7201134Y-12693222D02*
X7201134Y-12797984D01*
X7201134Y-12693222D02*
X7210658Y-12674174D01*
X7210658Y-12674174D02*
X7229705Y-12664650D01*
X7229705Y-12664650D02*
X7258277Y-12664650D01*
X7258277Y-12664650D02*
X7277324Y-12674174D01*
X7277324Y-12674174D02*
X7286848Y-12693222D01*
X7286848Y-12693222D02*
X7286848Y-12797984D01*
X7382086Y-12797984D02*
X7382086Y-12664650D01*
X7382086Y-12683698D02*
X7391610Y-12674174D01*
X7391610Y-12674174D02*
X7410658Y-12664650D01*
X7410658Y-12664650D02*
X7439229Y-12664650D01*
X7439229Y-12664650D02*
X7458277Y-12674174D01*
X7458277Y-12674174D02*
X7467801Y-12693222D01*
X7467801Y-12693222D02*
X7467801Y-12797984D01*
X7467801Y-12693222D02*
X7477324Y-12674174D01*
X7477324Y-12674174D02*
X7496372Y-12664650D01*
X7496372Y-12664650D02*
X7524943Y-12664650D01*
X7524943Y-12664650D02*
X7543991Y-12674174D01*
X7543991Y-12674174D02*
X7553515Y-12693222D01*
X7553515Y-12693222D02*
X7553515Y-12797984D01*
X7943991Y-12588460D02*
X7772563Y-12845603D01*
X8201134Y-12597984D02*
X8220182Y-12597984D01*
X8220182Y-12597984D02*
X8239229Y-12607508D01*
X8239229Y-12607508D02*
X8248753Y-12617031D01*
X8248753Y-12617031D02*
X8258277Y-12636079D01*
X8258277Y-12636079D02*
X8267801Y-12674174D01*
X8267801Y-12674174D02*
X8267801Y-12721793D01*
X8267801Y-12721793D02*
X8258277Y-12759888D01*
X8258277Y-12759888D02*
X8248753Y-12778936D01*
X8248753Y-12778936D02*
X8239229Y-12788460D01*
X8239229Y-12788460D02*
X8220182Y-12797984D01*
X8220182Y-12797984D02*
X8201134Y-12797984D01*
X8201134Y-12797984D02*
X8182086Y-12788460D01*
X8182086Y-12788460D02*
X8172563Y-12778936D01*
X8172563Y-12778936D02*
X8163039Y-12759888D01*
X8163039Y-12759888D02*
X8153515Y-12721793D01*
X8153515Y-12721793D02*
X8153515Y-12674174D01*
X8153515Y-12674174D02*
X8163039Y-12636079D01*
X8163039Y-12636079D02*
X8172563Y-12617031D01*
X8172563Y-12617031D02*
X8182086Y-12607508D01*
X8182086Y-12607508D02*
X8201134Y-12597984D01*
X8353515Y-12778936D02*
X8363039Y-12788460D01*
X8363039Y-12788460D02*
X8353515Y-12797984D01*
X8353515Y-12797984D02*
X8343991Y-12788460D01*
X8343991Y-12788460D02*
X8353515Y-12778936D01*
X8353515Y-12778936D02*
X8353515Y-12797984D01*
X8486848Y-12597984D02*
X8505896Y-12597984D01*
X8505896Y-12597984D02*
X8524944Y-12607508D01*
X8524944Y-12607508D02*
X8534468Y-12617031D01*
X8534468Y-12617031D02*
X8543991Y-12636079D01*
X8543991Y-12636079D02*
X8553515Y-12674174D01*
X8553515Y-12674174D02*
X8553515Y-12721793D01*
X8553515Y-12721793D02*
X8543991Y-12759888D01*
X8543991Y-12759888D02*
X8534468Y-12778936D01*
X8534468Y-12778936D02*
X8524944Y-12788460D01*
X8524944Y-12788460D02*
X8505896Y-12797984D01*
X8505896Y-12797984D02*
X8486848Y-12797984D01*
X8486848Y-12797984D02*
X8467801Y-12788460D01*
X8467801Y-12788460D02*
X8458277Y-12778936D01*
X8458277Y-12778936D02*
X8448753Y-12759888D01*
X8448753Y-12759888D02*
X8439229Y-12721793D01*
X8439229Y-12721793D02*
X8439229Y-12674174D01*
X8439229Y-12674174D02*
X8448753Y-12636079D01*
X8448753Y-12636079D02*
X8458277Y-12617031D01*
X8458277Y-12617031D02*
X8467801Y-12607508D01*
X8467801Y-12607508D02*
X8486848Y-12597984D01*
X8620182Y-12597984D02*
X8743991Y-12597984D01*
X8743991Y-12597984D02*
X8677325Y-12674174D01*
X8677325Y-12674174D02*
X8705896Y-12674174D01*
X8705896Y-12674174D02*
X8724944Y-12683698D01*
X8724944Y-12683698D02*
X8734468Y-12693222D01*
X8734468Y-12693222D02*
X8743991Y-12712269D01*
X8743991Y-12712269D02*
X8743991Y-12759888D01*
X8743991Y-12759888D02*
X8734468Y-12778936D01*
X8734468Y-12778936D02*
X8724944Y-12788460D01*
X8724944Y-12788460D02*
X8705896Y-12797984D01*
X8705896Y-12797984D02*
X8648753Y-12797984D01*
X8648753Y-12797984D02*
X8629706Y-12788460D01*
X8629706Y-12788460D02*
X8620182Y-12778936D01*
X8839229Y-12797984D02*
X8877325Y-12797984D01*
X8877325Y-12797984D02*
X8896372Y-12788460D01*
X8896372Y-12788460D02*
X8905896Y-12778936D01*
X8905896Y-12778936D02*
X8924944Y-12750365D01*
X8924944Y-12750365D02*
X8934468Y-12712269D01*
X8934468Y-12712269D02*
X8934468Y-12636079D01*
X8934468Y-12636079D02*
X8924944Y-12617031D01*
X8924944Y-12617031D02*
X8915420Y-12607508D01*
X8915420Y-12607508D02*
X8896372Y-12597984D01*
X8896372Y-12597984D02*
X8858277Y-12597984D01*
X8858277Y-12597984D02*
X8839229Y-12607508D01*
X8839229Y-12607508D02*
X8829706Y-12617031D01*
X8829706Y-12617031D02*
X8820182Y-12636079D01*
X8820182Y-12636079D02*
X8820182Y-12683698D01*
X8820182Y-12683698D02*
X8829706Y-12702746D01*
X8829706Y-12702746D02*
X8839229Y-12712269D01*
X8839229Y-12712269D02*
X8858277Y-12721793D01*
X8858277Y-12721793D02*
X8896372Y-12721793D01*
X8896372Y-12721793D02*
X8915420Y-12712269D01*
X8915420Y-12712269D02*
X8924944Y-12702746D01*
X8924944Y-12702746D02*
X8934468Y-12683698D01*
X9105896Y-12664650D02*
X9105896Y-12797984D01*
X9058277Y-12588460D02*
X9010658Y-12731317D01*
X9010658Y-12731317D02*
X9134468Y-12731317D01*
X9201134Y-12597984D02*
X9201134Y-12636079D01*
X9277325Y-12597984D02*
X9277325Y-12636079D01*
X9572563Y-12874174D02*
X9563039Y-12864650D01*
X9563039Y-12864650D02*
X9543991Y-12836079D01*
X9543991Y-12836079D02*
X9534468Y-12817031D01*
X9534468Y-12817031D02*
X9524944Y-12788460D01*
X9524944Y-12788460D02*
X9515420Y-12740841D01*
X9515420Y-12740841D02*
X9515420Y-12702746D01*
X9515420Y-12702746D02*
X9524944Y-12655127D01*
X9524944Y-12655127D02*
X9534468Y-12626555D01*
X9534468Y-12626555D02*
X9543991Y-12607508D01*
X9543991Y-12607508D02*
X9563039Y-12578936D01*
X9563039Y-12578936D02*
X9572563Y-12569412D01*
X9639230Y-12617031D02*
X9648753Y-12607508D01*
X9648753Y-12607508D02*
X9667801Y-12597984D01*
X9667801Y-12597984D02*
X9715420Y-12597984D01*
X9715420Y-12597984D02*
X9734468Y-12607508D01*
X9734468Y-12607508D02*
X9743991Y-12617031D01*
X9743991Y-12617031D02*
X9753515Y-12636079D01*
X9753515Y-12636079D02*
X9753515Y-12655127D01*
X9753515Y-12655127D02*
X9743991Y-12683698D01*
X9743991Y-12683698D02*
X9629706Y-12797984D01*
X9629706Y-12797984D02*
X9753515Y-12797984D01*
X9934468Y-12597984D02*
X9839230Y-12597984D01*
X9839230Y-12597984D02*
X9829706Y-12693222D01*
X9829706Y-12693222D02*
X9839230Y-12683698D01*
X9839230Y-12683698D02*
X9858277Y-12674174D01*
X9858277Y-12674174D02*
X9905896Y-12674174D01*
X9905896Y-12674174D02*
X9924944Y-12683698D01*
X9924944Y-12683698D02*
X9934468Y-12693222D01*
X9934468Y-12693222D02*
X9943991Y-12712269D01*
X9943991Y-12712269D02*
X9943991Y-12759888D01*
X9943991Y-12759888D02*
X9934468Y-12778936D01*
X9934468Y-12778936D02*
X9924944Y-12788460D01*
X9924944Y-12788460D02*
X9905896Y-12797984D01*
X9905896Y-12797984D02*
X9858277Y-12797984D01*
X9858277Y-12797984D02*
X9839230Y-12788460D01*
X9839230Y-12788460D02*
X9829706Y-12778936D01*
X10182087Y-12797984D02*
X10182087Y-12597984D01*
X10267801Y-12797984D02*
X10267801Y-12693222D01*
X10267801Y-12693222D02*
X10258277Y-12674174D01*
X10258277Y-12674174D02*
X10239230Y-12664650D01*
X10239230Y-12664650D02*
X10210658Y-12664650D01*
X10210658Y-12664650D02*
X10191611Y-12674174D01*
X10191611Y-12674174D02*
X10182087Y-12683698D01*
X10391611Y-12797984D02*
X10372563Y-12788460D01*
X10372563Y-12788460D02*
X10363039Y-12778936D01*
X10363039Y-12778936D02*
X10353515Y-12759888D01*
X10353515Y-12759888D02*
X10353515Y-12702746D01*
X10353515Y-12702746D02*
X10363039Y-12683698D01*
X10363039Y-12683698D02*
X10372563Y-12674174D01*
X10372563Y-12674174D02*
X10391611Y-12664650D01*
X10391611Y-12664650D02*
X10420182Y-12664650D01*
X10420182Y-12664650D02*
X10439230Y-12674174D01*
X10439230Y-12674174D02*
X10448753Y-12683698D01*
X10448753Y-12683698D02*
X10458277Y-12702746D01*
X10458277Y-12702746D02*
X10458277Y-12759888D01*
X10458277Y-12759888D02*
X10448753Y-12778936D01*
X10448753Y-12778936D02*
X10439230Y-12788460D01*
X10439230Y-12788460D02*
X10420182Y-12797984D01*
X10420182Y-12797984D02*
X10391611Y-12797984D01*
X10572563Y-12797984D02*
X10553515Y-12788460D01*
X10553515Y-12788460D02*
X10543992Y-12769412D01*
X10543992Y-12769412D02*
X10543992Y-12597984D01*
X10724944Y-12788460D02*
X10705896Y-12797984D01*
X10705896Y-12797984D02*
X10667801Y-12797984D01*
X10667801Y-12797984D02*
X10648753Y-12788460D01*
X10648753Y-12788460D02*
X10639230Y-12769412D01*
X10639230Y-12769412D02*
X10639230Y-12693222D01*
X10639230Y-12693222D02*
X10648753Y-12674174D01*
X10648753Y-12674174D02*
X10667801Y-12664650D01*
X10667801Y-12664650D02*
X10705896Y-12664650D01*
X10705896Y-12664650D02*
X10724944Y-12674174D01*
X10724944Y-12674174D02*
X10734468Y-12693222D01*
X10734468Y-12693222D02*
X10734468Y-12712269D01*
X10734468Y-12712269D02*
X10639230Y-12731317D01*
X10810658Y-12788460D02*
X10829706Y-12797984D01*
X10829706Y-12797984D02*
X10867801Y-12797984D01*
X10867801Y-12797984D02*
X10886849Y-12788460D01*
X10886849Y-12788460D02*
X10896373Y-12769412D01*
X10896373Y-12769412D02*
X10896373Y-12759888D01*
X10896373Y-12759888D02*
X10886849Y-12740841D01*
X10886849Y-12740841D02*
X10867801Y-12731317D01*
X10867801Y-12731317D02*
X10839230Y-12731317D01*
X10839230Y-12731317D02*
X10820182Y-12721793D01*
X10820182Y-12721793D02*
X10810658Y-12702746D01*
X10810658Y-12702746D02*
X10810658Y-12693222D01*
X10810658Y-12693222D02*
X10820182Y-12674174D01*
X10820182Y-12674174D02*
X10839230Y-12664650D01*
X10839230Y-12664650D02*
X10867801Y-12664650D01*
X10867801Y-12664650D02*
X10886849Y-12674174D01*
X10963039Y-12874174D02*
X10972563Y-12864650D01*
X10972563Y-12864650D02*
X10991611Y-12836079D01*
X10991611Y-12836079D02*
X11001134Y-12817031D01*
X11001134Y-12817031D02*
X11010658Y-12788460D01*
X11010658Y-12788460D02*
X11020182Y-12740841D01*
X11020182Y-12740841D02*
X11020182Y-12702746D01*
X11020182Y-12702746D02*
X11010658Y-12655127D01*
X11010658Y-12655127D02*
X11001134Y-12626555D01*
X11001134Y-12626555D02*
X10991611Y-12607508D01*
X10991611Y-12607508D02*
X10972563Y-12578936D01*
X10972563Y-12578936D02*
X10963039Y-12569412D01*
D13*
X5937500Y-12910500D02*
X5937500Y-13030500D01*
X5877500Y-12970500D02*
X5997500Y-12970500D01*
D11*
X6363039Y-13061984D02*
X6248753Y-13061984D01*
X6305896Y-13061984D02*
X6305896Y-12861984D01*
X6305896Y-12861984D02*
X6286848Y-12890555D01*
X6286848Y-12890555D02*
X6267801Y-12909603D01*
X6267801Y-12909603D02*
X6248753Y-12919127D01*
X6448753Y-13042936D02*
X6458277Y-13052460D01*
X6458277Y-13052460D02*
X6448753Y-13061984D01*
X6448753Y-13061984D02*
X6439229Y-13052460D01*
X6439229Y-13052460D02*
X6448753Y-13042936D01*
X6448753Y-13042936D02*
X6448753Y-13061984D01*
X6534467Y-12881031D02*
X6543991Y-12871508D01*
X6543991Y-12871508D02*
X6563039Y-12861984D01*
X6563039Y-12861984D02*
X6610658Y-12861984D01*
X6610658Y-12861984D02*
X6629705Y-12871508D01*
X6629705Y-12871508D02*
X6639229Y-12881031D01*
X6639229Y-12881031D02*
X6648753Y-12900079D01*
X6648753Y-12900079D02*
X6648753Y-12919127D01*
X6648753Y-12919127D02*
X6639229Y-12947698D01*
X6639229Y-12947698D02*
X6524943Y-13061984D01*
X6524943Y-13061984D02*
X6648753Y-13061984D01*
X6772562Y-12861984D02*
X6791610Y-12861984D01*
X6791610Y-12861984D02*
X6810658Y-12871508D01*
X6810658Y-12871508D02*
X6820182Y-12881031D01*
X6820182Y-12881031D02*
X6829705Y-12900079D01*
X6829705Y-12900079D02*
X6839229Y-12938174D01*
X6839229Y-12938174D02*
X6839229Y-12985793D01*
X6839229Y-12985793D02*
X6829705Y-13023888D01*
X6829705Y-13023888D02*
X6820182Y-13042936D01*
X6820182Y-13042936D02*
X6810658Y-13052460D01*
X6810658Y-13052460D02*
X6791610Y-13061984D01*
X6791610Y-13061984D02*
X6772562Y-13061984D01*
X6772562Y-13061984D02*
X6753515Y-13052460D01*
X6753515Y-13052460D02*
X6743991Y-13042936D01*
X6743991Y-13042936D02*
X6734467Y-13023888D01*
X6734467Y-13023888D02*
X6724943Y-12985793D01*
X6724943Y-12985793D02*
X6724943Y-12938174D01*
X6724943Y-12938174D02*
X6734467Y-12900079D01*
X6734467Y-12900079D02*
X6743991Y-12881031D01*
X6743991Y-12881031D02*
X6753515Y-12871508D01*
X6753515Y-12871508D02*
X6772562Y-12861984D01*
X6963039Y-12861984D02*
X6982086Y-12861984D01*
X6982086Y-12861984D02*
X7001134Y-12871508D01*
X7001134Y-12871508D02*
X7010658Y-12881031D01*
X7010658Y-12881031D02*
X7020182Y-12900079D01*
X7020182Y-12900079D02*
X7029705Y-12938174D01*
X7029705Y-12938174D02*
X7029705Y-12985793D01*
X7029705Y-12985793D02*
X7020182Y-13023888D01*
X7020182Y-13023888D02*
X7010658Y-13042936D01*
X7010658Y-13042936D02*
X7001134Y-13052460D01*
X7001134Y-13052460D02*
X6982086Y-13061984D01*
X6982086Y-13061984D02*
X6963039Y-13061984D01*
X6963039Y-13061984D02*
X6943991Y-13052460D01*
X6943991Y-13052460D02*
X6934467Y-13042936D01*
X6934467Y-13042936D02*
X6924943Y-13023888D01*
X6924943Y-13023888D02*
X6915420Y-12985793D01*
X6915420Y-12985793D02*
X6915420Y-12938174D01*
X6915420Y-12938174D02*
X6924943Y-12900079D01*
X6924943Y-12900079D02*
X6934467Y-12881031D01*
X6934467Y-12881031D02*
X6943991Y-12871508D01*
X6943991Y-12871508D02*
X6963039Y-12861984D01*
X7115420Y-13061984D02*
X7115420Y-12928650D01*
X7115420Y-12947698D02*
X7124943Y-12938174D01*
X7124943Y-12938174D02*
X7143991Y-12928650D01*
X7143991Y-12928650D02*
X7172563Y-12928650D01*
X7172563Y-12928650D02*
X7191610Y-12938174D01*
X7191610Y-12938174D02*
X7201134Y-12957222D01*
X7201134Y-12957222D02*
X7201134Y-13061984D01*
X7201134Y-12957222D02*
X7210658Y-12938174D01*
X7210658Y-12938174D02*
X7229705Y-12928650D01*
X7229705Y-12928650D02*
X7258277Y-12928650D01*
X7258277Y-12928650D02*
X7277324Y-12938174D01*
X7277324Y-12938174D02*
X7286848Y-12957222D01*
X7286848Y-12957222D02*
X7286848Y-13061984D01*
X7382086Y-13061984D02*
X7382086Y-12928650D01*
X7382086Y-12947698D02*
X7391610Y-12938174D01*
X7391610Y-12938174D02*
X7410658Y-12928650D01*
X7410658Y-12928650D02*
X7439229Y-12928650D01*
X7439229Y-12928650D02*
X7458277Y-12938174D01*
X7458277Y-12938174D02*
X7467801Y-12957222D01*
X7467801Y-12957222D02*
X7467801Y-13061984D01*
X7467801Y-12957222D02*
X7477324Y-12938174D01*
X7477324Y-12938174D02*
X7496372Y-12928650D01*
X7496372Y-12928650D02*
X7524943Y-12928650D01*
X7524943Y-12928650D02*
X7543991Y-12938174D01*
X7543991Y-12938174D02*
X7553515Y-12957222D01*
X7553515Y-12957222D02*
X7553515Y-13061984D01*
X7943991Y-12852460D02*
X7772563Y-13109603D01*
X8201134Y-12861984D02*
X8220182Y-12861984D01*
X8220182Y-12861984D02*
X8239229Y-12871508D01*
X8239229Y-12871508D02*
X8248753Y-12881031D01*
X8248753Y-12881031D02*
X8258277Y-12900079D01*
X8258277Y-12900079D02*
X8267801Y-12938174D01*
X8267801Y-12938174D02*
X8267801Y-12985793D01*
X8267801Y-12985793D02*
X8258277Y-13023888D01*
X8258277Y-13023888D02*
X8248753Y-13042936D01*
X8248753Y-13042936D02*
X8239229Y-13052460D01*
X8239229Y-13052460D02*
X8220182Y-13061984D01*
X8220182Y-13061984D02*
X8201134Y-13061984D01*
X8201134Y-13061984D02*
X8182086Y-13052460D01*
X8182086Y-13052460D02*
X8172563Y-13042936D01*
X8172563Y-13042936D02*
X8163039Y-13023888D01*
X8163039Y-13023888D02*
X8153515Y-12985793D01*
X8153515Y-12985793D02*
X8153515Y-12938174D01*
X8153515Y-12938174D02*
X8163039Y-12900079D01*
X8163039Y-12900079D02*
X8172563Y-12881031D01*
X8172563Y-12881031D02*
X8182086Y-12871508D01*
X8182086Y-12871508D02*
X8201134Y-12861984D01*
X8353515Y-13042936D02*
X8363039Y-13052460D01*
X8363039Y-13052460D02*
X8353515Y-13061984D01*
X8353515Y-13061984D02*
X8343991Y-13052460D01*
X8343991Y-13052460D02*
X8353515Y-13042936D01*
X8353515Y-13042936D02*
X8353515Y-13061984D01*
X8486848Y-12861984D02*
X8505896Y-12861984D01*
X8505896Y-12861984D02*
X8524944Y-12871508D01*
X8524944Y-12871508D02*
X8534468Y-12881031D01*
X8534468Y-12881031D02*
X8543991Y-12900079D01*
X8543991Y-12900079D02*
X8553515Y-12938174D01*
X8553515Y-12938174D02*
X8553515Y-12985793D01*
X8553515Y-12985793D02*
X8543991Y-13023888D01*
X8543991Y-13023888D02*
X8534468Y-13042936D01*
X8534468Y-13042936D02*
X8524944Y-13052460D01*
X8524944Y-13052460D02*
X8505896Y-13061984D01*
X8505896Y-13061984D02*
X8486848Y-13061984D01*
X8486848Y-13061984D02*
X8467801Y-13052460D01*
X8467801Y-13052460D02*
X8458277Y-13042936D01*
X8458277Y-13042936D02*
X8448753Y-13023888D01*
X8448753Y-13023888D02*
X8439229Y-12985793D01*
X8439229Y-12985793D02*
X8439229Y-12938174D01*
X8439229Y-12938174D02*
X8448753Y-12900079D01*
X8448753Y-12900079D02*
X8458277Y-12881031D01*
X8458277Y-12881031D02*
X8467801Y-12871508D01*
X8467801Y-12871508D02*
X8486848Y-12861984D01*
X8724944Y-12928650D02*
X8724944Y-13061984D01*
X8677325Y-12852460D02*
X8629706Y-12995317D01*
X8629706Y-12995317D02*
X8753515Y-12995317D01*
X8810658Y-12861984D02*
X8943991Y-12861984D01*
X8943991Y-12861984D02*
X8858277Y-13061984D01*
X9010658Y-12881031D02*
X9020182Y-12871508D01*
X9020182Y-12871508D02*
X9039229Y-12861984D01*
X9039229Y-12861984D02*
X9086849Y-12861984D01*
X9086849Y-12861984D02*
X9105896Y-12871508D01*
X9105896Y-12871508D02*
X9115420Y-12881031D01*
X9115420Y-12881031D02*
X9124944Y-12900079D01*
X9124944Y-12900079D02*
X9124944Y-12919127D01*
X9124944Y-12919127D02*
X9115420Y-12947698D01*
X9115420Y-12947698D02*
X9001134Y-13061984D01*
X9001134Y-13061984D02*
X9124944Y-13061984D01*
X9201134Y-12861984D02*
X9201134Y-12900079D01*
X9277325Y-12861984D02*
X9277325Y-12900079D01*
X9572563Y-13138174D02*
X9563039Y-13128650D01*
X9563039Y-13128650D02*
X9543991Y-13100079D01*
X9543991Y-13100079D02*
X9534468Y-13081031D01*
X9534468Y-13081031D02*
X9524944Y-13052460D01*
X9524944Y-13052460D02*
X9515420Y-13004841D01*
X9515420Y-13004841D02*
X9515420Y-12966746D01*
X9515420Y-12966746D02*
X9524944Y-12919127D01*
X9524944Y-12919127D02*
X9534468Y-12890555D01*
X9534468Y-12890555D02*
X9543991Y-12871508D01*
X9543991Y-12871508D02*
X9563039Y-12842936D01*
X9563039Y-12842936D02*
X9572563Y-12833412D01*
X9639230Y-12881031D02*
X9648753Y-12871508D01*
X9648753Y-12871508D02*
X9667801Y-12861984D01*
X9667801Y-12861984D02*
X9715420Y-12861984D01*
X9715420Y-12861984D02*
X9734468Y-12871508D01*
X9734468Y-12871508D02*
X9743991Y-12881031D01*
X9743991Y-12881031D02*
X9753515Y-12900079D01*
X9753515Y-12900079D02*
X9753515Y-12919127D01*
X9753515Y-12919127D02*
X9743991Y-12947698D01*
X9743991Y-12947698D02*
X9629706Y-13061984D01*
X9629706Y-13061984D02*
X9753515Y-13061984D01*
X9991611Y-13061984D02*
X9991611Y-12861984D01*
X10077325Y-13061984D02*
X10077325Y-12957222D01*
X10077325Y-12957222D02*
X10067801Y-12938174D01*
X10067801Y-12938174D02*
X10048753Y-12928650D01*
X10048753Y-12928650D02*
X10020182Y-12928650D01*
X10020182Y-12928650D02*
X10001134Y-12938174D01*
X10001134Y-12938174D02*
X9991611Y-12947698D01*
X10201134Y-13061984D02*
X10182087Y-13052460D01*
X10182087Y-13052460D02*
X10172563Y-13042936D01*
X10172563Y-13042936D02*
X10163039Y-13023888D01*
X10163039Y-13023888D02*
X10163039Y-12966746D01*
X10163039Y-12966746D02*
X10172563Y-12947698D01*
X10172563Y-12947698D02*
X10182087Y-12938174D01*
X10182087Y-12938174D02*
X10201134Y-12928650D01*
X10201134Y-12928650D02*
X10229706Y-12928650D01*
X10229706Y-12928650D02*
X10248753Y-12938174D01*
X10248753Y-12938174D02*
X10258277Y-12947698D01*
X10258277Y-12947698D02*
X10267801Y-12966746D01*
X10267801Y-12966746D02*
X10267801Y-13023888D01*
X10267801Y-13023888D02*
X10258277Y-13042936D01*
X10258277Y-13042936D02*
X10248753Y-13052460D01*
X10248753Y-13052460D02*
X10229706Y-13061984D01*
X10229706Y-13061984D02*
X10201134Y-13061984D01*
X10382087Y-13061984D02*
X10363039Y-13052460D01*
X10363039Y-13052460D02*
X10353515Y-13033412D01*
X10353515Y-13033412D02*
X10353515Y-12861984D01*
X10534468Y-13052460D02*
X10515420Y-13061984D01*
X10515420Y-13061984D02*
X10477325Y-13061984D01*
X10477325Y-13061984D02*
X10458277Y-13052460D01*
X10458277Y-13052460D02*
X10448753Y-13033412D01*
X10448753Y-13033412D02*
X10448753Y-12957222D01*
X10448753Y-12957222D02*
X10458277Y-12938174D01*
X10458277Y-12938174D02*
X10477325Y-12928650D01*
X10477325Y-12928650D02*
X10515420Y-12928650D01*
X10515420Y-12928650D02*
X10534468Y-12938174D01*
X10534468Y-12938174D02*
X10543992Y-12957222D01*
X10543992Y-12957222D02*
X10543992Y-12976269D01*
X10543992Y-12976269D02*
X10448753Y-12995317D01*
X10620182Y-13052460D02*
X10639230Y-13061984D01*
X10639230Y-13061984D02*
X10677325Y-13061984D01*
X10677325Y-13061984D02*
X10696373Y-13052460D01*
X10696373Y-13052460D02*
X10705896Y-13033412D01*
X10705896Y-13033412D02*
X10705896Y-13023888D01*
X10705896Y-13023888D02*
X10696373Y-13004841D01*
X10696373Y-13004841D02*
X10677325Y-12995317D01*
X10677325Y-12995317D02*
X10648753Y-12995317D01*
X10648753Y-12995317D02*
X10629706Y-12985793D01*
X10629706Y-12985793D02*
X10620182Y-12966746D01*
X10620182Y-12966746D02*
X10620182Y-12957222D01*
X10620182Y-12957222D02*
X10629706Y-12938174D01*
X10629706Y-12938174D02*
X10648753Y-12928650D01*
X10648753Y-12928650D02*
X10677325Y-12928650D01*
X10677325Y-12928650D02*
X10696373Y-12938174D01*
X10772563Y-13138174D02*
X10782087Y-13128650D01*
X10782087Y-13128650D02*
X10801134Y-13100079D01*
X10801134Y-13100079D02*
X10810658Y-13081031D01*
X10810658Y-13081031D02*
X10820182Y-13052460D01*
X10820182Y-13052460D02*
X10829706Y-13004841D01*
X10829706Y-13004841D02*
X10829706Y-12966746D01*
X10829706Y-12966746D02*
X10820182Y-12919127D01*
X10820182Y-12919127D02*
X10810658Y-12890555D01*
X10810658Y-12890555D02*
X10801134Y-12871508D01*
X10801134Y-12871508D02*
X10782087Y-12842936D01*
X10782087Y-12842936D02*
X10772563Y-12833412D01*
M02*
