%TF.GenerationSoftware,KiCad,Pcbnew,8.0.3*%
%TF.CreationDate,2024-07-18T11:22:03-07:00*%
%TF.ProjectId,pcb_test,7063625f-7465-4737-942e-6b696361645f,rev?*%
%TF.SameCoordinates,Original*%
%TF.FileFunction,Soldermask,Top*%
%TF.FilePolarity,Negative*%
%FSLAX46Y46*%
G04 Gerber Fmt 4.6, Leading zero omitted, Abs format (unit mm)*
G04 Created by KiCad (PCBNEW 8.0.3) date 2024-07-18 11:22:03*
%MOMM*%
%LPD*%
G01*
G04 APERTURE LIST*
G04 Aperture macros list*
%AMRoundRect*
0 Rectangle with rounded corners*
0 $1 Rounding radius*
0 $2 $3 $4 $5 $6 $7 $8 $9 X,Y pos of 4 corners*
0 Add a 4 corners polygon primitive as box body*
4,1,4,$2,$3,$4,$5,$6,$7,$8,$9,$2,$3,0*
0 Add four circle primitives for the rounded corners*
1,1,$1+$1,$2,$3*
1,1,$1+$1,$4,$5*
1,1,$1+$1,$6,$7*
1,1,$1+$1,$8,$9*
0 Add four rect primitives between the rounded corners*
20,1,$1+$1,$2,$3,$4,$5,0*
20,1,$1+$1,$4,$5,$6,$7,0*
20,1,$1+$1,$6,$7,$8,$9,0*
20,1,$1+$1,$8,$9,$2,$3,0*%
G04 Aperture macros list end*
%ADD10C,2.700000*%
%ADD11C,1.500000*%
%ADD12O,1.700000X1.700000*%
%ADD13R,1.700000X1.700000*%
%ADD14O,1.800000X3.600000*%
%ADD15RoundRect,0.250000X0.650000X1.550000X-0.650000X1.550000X-0.650000X-1.550000X0.650000X-1.550000X0*%
%ADD16O,2.000000X1.200000*%
G04 APERTURE END LIST*
D10*
%TO.C,REF\u002A\u002A*%
X147000000Y-115000000D03*
%TD*%
%TO.C,REF\u002A\u002A*%
X63000000Y-115000000D03*
%TD*%
%TO.C,REF\u002A\u002A*%
X147000000Y-31000000D03*
%TD*%
%TO.C,REF\u002A\u002A*%
X63000000Y-31000000D03*
%TD*%
%TO.C,REF\u002A\u002A*%
X115000000Y-73000000D03*
%TD*%
D11*
%TO.C,J2*%
X122380000Y-98940000D03*
X122380000Y-96400000D03*
X122380000Y-93860000D03*
X122380000Y-91320000D03*
X122380000Y-88780000D03*
X122380000Y-86240000D03*
X122380000Y-83700000D03*
X122380000Y-81160000D03*
X122380000Y-78620000D03*
X122380000Y-76080000D03*
X122380000Y-73540000D03*
X122380000Y-71000000D03*
X122380000Y-68460000D03*
X122380000Y-65920000D03*
X122380000Y-63380000D03*
X122380000Y-60840000D03*
X122380000Y-58300000D03*
X122380000Y-55760000D03*
X122380000Y-53220000D03*
X122380000Y-50680000D03*
X122380000Y-48140000D03*
X122380000Y-45600000D03*
X122380000Y-43060000D03*
X122380000Y-40520000D03*
X107140000Y-98940000D03*
X107140000Y-96400000D03*
X107140000Y-93860000D03*
X107140000Y-91320000D03*
X107140000Y-88780000D03*
X107140000Y-86240000D03*
X107140000Y-83700000D03*
X107140000Y-81160000D03*
X107140000Y-78620000D03*
X107140000Y-76080000D03*
X107140000Y-73540000D03*
X107140000Y-71000000D03*
X107140000Y-68460000D03*
X107140000Y-65920000D03*
X107140000Y-63380000D03*
X107140000Y-60840000D03*
X107140000Y-58300000D03*
X107140000Y-55760000D03*
X107140000Y-53220000D03*
X107140000Y-50680000D03*
X107140000Y-48140000D03*
X107140000Y-45600000D03*
X107140000Y-43060000D03*
X107140000Y-40520000D03*
%TD*%
D12*
%TO.C,J3*%
X67300000Y-89000000D03*
X69840000Y-89000000D03*
X72380000Y-89000000D03*
X74920000Y-89000000D03*
X77460000Y-89000000D03*
X80000000Y-89000000D03*
X82540000Y-89000000D03*
X85080000Y-89000000D03*
D13*
X87620000Y-89000000D03*
%TD*%
D14*
%TO.C,J1*%
X133880000Y-92000000D03*
D15*
X137380000Y-92000000D03*
%TD*%
D16*
%TO.C,J4*%
X67380000Y-40520000D03*
X67380000Y-43060000D03*
X67380000Y-45600000D03*
X67380000Y-48140000D03*
X67380000Y-50680000D03*
X67380000Y-53220000D03*
X67380000Y-55760000D03*
X67380000Y-58300000D03*
X67380000Y-60840000D03*
X67380000Y-63380000D03*
X67380000Y-65920000D03*
X67380000Y-68460000D03*
X67380000Y-71000000D03*
X67380000Y-73540000D03*
X67380000Y-76080000D03*
X67380000Y-78620000D03*
X90380000Y-40520000D03*
X90380000Y-43060000D03*
X90380000Y-45600000D03*
X90380000Y-48140000D03*
X90380000Y-50680000D03*
X90380000Y-53220000D03*
X90380000Y-55760000D03*
X90380000Y-58300000D03*
X90380000Y-60840000D03*
X90380000Y-63380000D03*
X90380000Y-65920000D03*
X90380000Y-68460000D03*
X90380000Y-71000000D03*
X90380000Y-73540000D03*
X90380000Y-76080000D03*
X90380000Y-78620000D03*
%TD*%
D12*
%TO.C,J6*%
X98380000Y-98300000D03*
X98380000Y-95760000D03*
X98380000Y-93220000D03*
X98380000Y-90680000D03*
X98380000Y-88140000D03*
X98380000Y-85600000D03*
X98380000Y-83060000D03*
D13*
X98380000Y-80520000D03*
%TD*%
D12*
%TO.C,J5*%
X135380000Y-66300000D03*
X135380000Y-63760000D03*
X135380000Y-61220000D03*
X135380000Y-58680000D03*
X135380000Y-56140000D03*
X135380000Y-53600000D03*
X135380000Y-51060000D03*
D13*
X135380000Y-48520000D03*
%TD*%
M02*
