M48
; DRILL file {KiCad 8.0.3} date 2024-07-18T11:22:12-0700
; FORMAT={-:-/ absolute / inch / decimal}
; #@! TF.CreationDate,2024-07-18T11:22:12-07:00
; #@! TF.GenerationSoftware,Kicad,Pcbnew,8.0.3
; #@! TF.FileFunction,Plated,1,2,PTH
FMAT,2
INCH
; #@! TA.AperFunction,Plated,PTH,ComponentDrill
T1C0.0315
; #@! TA.AperFunction,Plated,PTH,ComponentDrill
T2C0.0394
; #@! TA.AperFunction,Plated,PTH,ComponentDrill
T3C0.0472
%
G90
G05
T1
X2.6528Y-1.5953
X2.6528Y-1.6953
X2.6528Y-1.7953
X2.6528Y-1.8953
X2.6528Y-1.9953
X2.6528Y-2.0953
X2.6528Y-2.1953
X2.6528Y-2.2953
X2.6528Y-2.3953
X2.6528Y-2.4953
X2.6528Y-2.5953
X2.6528Y-2.6953
X2.6528Y-2.7953
X2.6528Y-2.8953
X2.6528Y-2.9953
X2.6528Y-3.0953
X3.5583Y-1.5953
X3.5583Y-1.6953
X3.5583Y-1.7953
X3.5583Y-1.8953
X3.5583Y-1.9953
X3.5583Y-2.0953
X3.5583Y-2.1953
X3.5583Y-2.2953
X3.5583Y-2.3953
X3.5583Y-2.4953
X3.5583Y-2.5953
X3.5583Y-2.6953
X3.5583Y-2.7953
X3.5583Y-2.8953
X3.5583Y-2.9953
X3.5583Y-3.0953
X4.2181Y-1.5953
X4.2181Y-1.6953
X4.2181Y-1.7953
X4.2181Y-1.8953
X4.2181Y-1.9953
X4.2181Y-2.0953
X4.2181Y-2.1953
X4.2181Y-2.2953
X4.2181Y-2.3953
X4.2181Y-2.4953
X4.2181Y-2.5953
X4.2181Y-2.6953
X4.2181Y-2.7953
X4.2181Y-2.8953
X4.2181Y-2.9953
X4.2181Y-3.0953
X4.2181Y-3.1953
X4.2181Y-3.2953
X4.2181Y-3.3953
X4.2181Y-3.4953
X4.2181Y-3.5953
X4.2181Y-3.6953
X4.2181Y-3.7953
X4.2181Y-3.8953
X4.8181Y-1.5953
X4.8181Y-1.6953
X4.8181Y-1.7953
X4.8181Y-1.8953
X4.8181Y-1.9953
X4.8181Y-2.0953
X4.8181Y-2.1953
X4.8181Y-2.2953
X4.8181Y-2.3953
X4.8181Y-2.4953
X4.8181Y-2.5953
X4.8181Y-2.6953
X4.8181Y-2.7953
X4.8181Y-2.8953
X4.8181Y-2.9953
X4.8181Y-3.0953
X4.8181Y-3.1953
X4.8181Y-3.2953
X4.8181Y-3.3953
X4.8181Y-3.4953
X4.8181Y-3.5953
X4.8181Y-3.6953
X4.8181Y-3.7953
X4.8181Y-3.8953
T2
X2.6496Y-3.5039
X2.7496Y-3.5039
X2.8496Y-3.5039
X2.9496Y-3.5039
X3.0496Y-3.5039
X3.1496Y-3.5039
X3.2496Y-3.5039
X3.3496Y-3.5039
X3.4496Y-3.5039
X3.8732Y-3.1701
X3.8732Y-3.2701
X3.8732Y-3.3701
X3.8732Y-3.4701
X3.8732Y-3.5701
X3.8732Y-3.6701
X3.8732Y-3.7701
X3.8732Y-3.8701
X5.3299Y-1.9102
X5.3299Y-2.0102
X5.3299Y-2.1102
X5.3299Y-2.2102
X5.3299Y-2.3102
X5.3299Y-2.4102
X5.3299Y-2.5102
X5.3299Y-2.6102
T3
X5.2709Y-3.622
X5.4087Y-3.622
M30
