%TF.GenerationSoftware,KiCad,Pcbnew,8.0.3*%
%TF.CreationDate,2024-07-18T11:22:03-07:00*%
%TF.ProjectId,pcb_test,7063625f-7465-4737-942e-6b696361645f,rev?*%
%TF.SameCoordinates,Original*%
%TF.FileFunction,Copper,L1,Top*%
%TF.FilePolarity,Positive*%
%FSLAX46Y46*%
G04 Gerber Fmt 4.6, Leading zero omitted, Abs format (unit mm)*
G04 Created by KiCad (PCBNEW 8.0.3) date 2024-07-18 11:22:03*
%MOMM*%
%LPD*%
G01*
G04 APERTURE LIST*
G04 Aperture macros list*
%AMRoundRect*
0 Rectangle with rounded corners*
0 $1 Rounding radius*
0 $2 $3 $4 $5 $6 $7 $8 $9 X,Y pos of 4 corners*
0 Add a 4 corners polygon primitive as box body*
4,1,4,$2,$3,$4,$5,$6,$7,$8,$9,$2,$3,0*
0 Add four circle primitives for the rounded corners*
1,1,$1+$1,$2,$3*
1,1,$1+$1,$4,$5*
1,1,$1+$1,$6,$7*
1,1,$1+$1,$8,$9*
0 Add four rect primitives between the rounded corners*
20,1,$1+$1,$2,$3,$4,$5,0*
20,1,$1+$1,$4,$5,$6,$7,0*
20,1,$1+$1,$6,$7,$8,$9,0*
20,1,$1+$1,$8,$9,$2,$3,0*%
G04 Aperture macros list end*
%TA.AperFunction,ComponentPad*%
%ADD10C,1.500000*%
%TD*%
%TA.AperFunction,ComponentPad*%
%ADD11O,1.700000X1.700000*%
%TD*%
%TA.AperFunction,ComponentPad*%
%ADD12R,1.700000X1.700000*%
%TD*%
%TA.AperFunction,ComponentPad*%
%ADD13O,1.800000X3.600000*%
%TD*%
%TA.AperFunction,ComponentPad*%
%ADD14RoundRect,0.250000X0.650000X1.550000X-0.650000X1.550000X-0.650000X-1.550000X0.650000X-1.550000X0*%
%TD*%
%TA.AperFunction,ComponentPad*%
%ADD15O,2.000000X1.200000*%
%TD*%
%TA.AperFunction,Conductor*%
%ADD16C,1.000000*%
%TD*%
G04 APERTURE END LIST*
D10*
%TO.P,J2,48,Pin_48*%
%TO.N,unconnected-(J2-Pin_48-Pad48)*%
X122380000Y-98940000D03*
%TO.P,J2,47,Pin_47*%
%TO.N,unconnected-(J2-Pin_47-Pad47)*%
X122380000Y-96400000D03*
%TO.P,J2,46,Pin_46*%
%TO.N,unconnected-(J2-Pin_46-Pad46)*%
X122380000Y-93860000D03*
%TO.P,J2,45,Pin_45*%
%TO.N,unconnected-(J2-Pin_45-Pad45)*%
X122380000Y-91320000D03*
%TO.P,J2,44,Pin_44*%
%TO.N,unconnected-(J2-Pin_44-Pad44)*%
X122380000Y-88780000D03*
%TO.P,J2,43,Pin_43*%
%TO.N,Net-(J2-Pin_43)*%
X122380000Y-86240000D03*
%TO.P,J2,42,Pin_42*%
%TO.N,Net-(J2-Pin_42)*%
X122380000Y-83700000D03*
%TO.P,J2,41,Pin_41*%
%TO.N,Net-(J2-Pin_41)*%
X122380000Y-81160000D03*
%TO.P,J2,40,Pin_40*%
%TO.N,Net-(J2-Pin_40)*%
X122380000Y-78620000D03*
%TO.P,J2,39,Pin_39*%
%TO.N,Net-(J2-Pin_39)*%
X122380000Y-76080000D03*
%TO.P,J2,38,Pin_38*%
%TO.N,Net-(J2-Pin_38)*%
X122380000Y-73540000D03*
%TO.P,J2,37,Pin_37*%
%TO.N,unconnected-(J2-Pin_37-Pad37)*%
X122380000Y-71000000D03*
%TO.P,J2,36,Pin_36*%
%TO.N,unconnected-(J2-Pin_36-Pad36)*%
X122380000Y-68460000D03*
%TO.P,J2,35,Pin_35*%
%TO.N,unconnected-(J2-Pin_35-Pad35)*%
X122380000Y-65920000D03*
%TO.P,J2,34,Pin_34*%
%TO.N,unconnected-(J2-Pin_34-Pad34)*%
X122380000Y-63380000D03*
%TO.P,J2,33,Pin_33*%
%TO.N,Net-(J2-Pin_33)*%
X122380000Y-60840000D03*
%TO.P,J2,32,Pin_32*%
%TO.N,Net-(J2-Pin_32)*%
X122380000Y-58300000D03*
%TO.P,J2,31,Pin_31*%
%TO.N,Net-(J2-Pin_31)*%
X122380000Y-55760000D03*
%TO.P,J2,30,Pin_30*%
%TO.N,unconnected-(J2-Pin_30-Pad30)*%
X122380000Y-53220000D03*
%TO.P,J2,29,Pin_29*%
%TO.N,unconnected-(J2-Pin_29-Pad29)*%
X122380000Y-50680000D03*
%TO.P,J2,28,Pin_28*%
%TO.N,unconnected-(J2-Pin_28-Pad28)*%
X122380000Y-48140000D03*
%TO.P,J2,27,Pin_27*%
%TO.N,Net-(J2-Pin_27)*%
X122380000Y-45600000D03*
%TO.P,J2,26,Pin_26*%
%TO.N,Net-(J1-Pin_2)*%
X122380000Y-43060000D03*
%TO.P,J2,25,Pin_25*%
%TO.N,Net-(J1-Pin_1)*%
X122380000Y-40520000D03*
%TO.P,J2,24,Pin_24*%
%TO.N,Net-(J2-Pin_24)*%
X107140000Y-98940000D03*
%TO.P,J2,23,Pin_23*%
%TO.N,Net-(J2-Pin_23)*%
X107140000Y-96400000D03*
%TO.P,J2,22,Pin_22*%
%TO.N,Net-(J2-Pin_22)*%
X107140000Y-93860000D03*
%TO.P,J2,21,Pin_21*%
%TO.N,Net-(J2-Pin_21)*%
X107140000Y-91320000D03*
%TO.P,J2,20,Pin_20*%
%TO.N,unconnected-(J2-Pin_20-Pad20)*%
X107140000Y-88780000D03*
%TO.P,J2,19,Pin_19*%
%TO.N,unconnected-(J2-Pin_19-Pad19)*%
X107140000Y-86240000D03*
%TO.P,J2,18,Pin_18*%
%TO.N,unconnected-(J2-Pin_18-Pad18)*%
X107140000Y-83700000D03*
%TO.P,J2,17,Pin_17*%
%TO.N,unconnected-(J2-Pin_17-Pad17)*%
X107140000Y-81160000D03*
%TO.P,J2,16,Pin_16*%
%TO.N,unconnected-(J2-Pin_16-Pad16)*%
X107140000Y-78620000D03*
%TO.P,J2,15,Pin_15*%
%TO.N,unconnected-(J2-Pin_15-Pad15)*%
X107140000Y-76080000D03*
%TO.P,J2,14,Pin_14*%
%TO.N,Net-(J2-Pin_14)*%
X107140000Y-73540000D03*
%TO.P,J2,13,Pin_13*%
%TO.N,Net-(J2-Pin_13)*%
X107140000Y-71000000D03*
%TO.P,J2,12,Pin_12*%
%TO.N,Net-(J2-Pin_12)*%
X107140000Y-68460000D03*
%TO.P,J2,11,Pin_11*%
%TO.N,Net-(J2-Pin_11)*%
X107140000Y-65920000D03*
%TO.P,J2,10,Pin_10*%
%TO.N,unconnected-(J2-Pin_10-Pad10)*%
X107140000Y-63380000D03*
%TO.P,J2,9,Pin_9*%
%TO.N,unconnected-(J2-Pin_9-Pad9)*%
X107140000Y-60840000D03*
%TO.P,J2,8,Pin_8*%
%TO.N,unconnected-(J2-Pin_8-Pad8)*%
X107140000Y-58300000D03*
%TO.P,J2,7,Pin_7*%
%TO.N,unconnected-(J2-Pin_7-Pad7)*%
X107140000Y-55760000D03*
%TO.P,J2,6,Pin_6*%
%TO.N,unconnected-(J2-Pin_6-Pad6)*%
X107140000Y-53220000D03*
%TO.P,J2,5,Pin_5*%
%TO.N,unconnected-(J2-Pin_5-Pad5)*%
X107140000Y-50680000D03*
%TO.P,J2,4,Pin_4*%
%TO.N,unconnected-(J2-Pin_4-Pad4)*%
X107140000Y-48140000D03*
%TO.P,J2,3,Pin_3*%
%TO.N,unconnected-(J2-Pin_3-Pad3)*%
X107140000Y-45600000D03*
%TO.P,J2,2,Pin_2*%
%TO.N,unconnected-(J2-Pin_2-Pad2)*%
X107140000Y-43060000D03*
%TO.P,J2,1,Pin_1*%
%TO.N,unconnected-(J2-Pin_1-Pad1)*%
X107140000Y-40520000D03*
%TD*%
D11*
%TO.P,J3,9,Pin_9*%
%TO.N,unconnected-(J3-Pin_9-Pad9)*%
X67300000Y-89000000D03*
%TO.P,J3,8,Pin_8*%
%TO.N,unconnected-(J3-Pin_8-Pad8)*%
X69840000Y-89000000D03*
%TO.P,J3,7,Pin_7*%
%TO.N,unconnected-(J3-Pin_7-Pad7)*%
X72380000Y-89000000D03*
%TO.P,J3,6,Pin_6*%
%TO.N,unconnected-(J3-Pin_6-Pad6)*%
X74920000Y-89000000D03*
%TO.P,J3,5,Pin_5*%
%TO.N,Net-(J3-Pin_5)*%
X77460000Y-89000000D03*
%TO.P,J3,4,Pin_4*%
%TO.N,Net-(J3-Pin_4)*%
X80000000Y-89000000D03*
%TO.P,J3,3,Pin_3*%
%TO.N,unconnected-(J3-Pin_3-Pad3)*%
X82540000Y-89000000D03*
%TO.P,J3,2,Pin_2*%
%TO.N,Net-(J1-Pin_2)*%
X85080000Y-89000000D03*
D12*
%TO.P,J3,1,Pin_1*%
%TO.N,Net-(J1-Pin_1)*%
X87620000Y-89000000D03*
%TD*%
D13*
%TO.P,J1,2,Pin_2*%
%TO.N,Net-(J1-Pin_2)*%
X133880000Y-92000000D03*
D14*
%TO.P,J1,1,Pin_1*%
%TO.N,Net-(J1-Pin_1)*%
X137380000Y-92000000D03*
%TD*%
D15*
%TO.P,J4,32,Pin_32*%
%TO.N,unconnected-(J4-Pin_32-Pad32)*%
X67380000Y-40520000D03*
%TO.P,J4,31,Pin_31*%
%TO.N,unconnected-(J4-Pin_31-Pad31)*%
X67380000Y-43060000D03*
%TO.P,J4,30,Pin_30*%
%TO.N,Net-(J2-Pin_12)*%
X67380000Y-45600000D03*
%TO.P,J4,29,Pin_29*%
%TO.N,Net-(J2-Pin_11)*%
X67380000Y-48140000D03*
%TO.P,J4,28,Pin_28*%
%TO.N,Net-(J2-Pin_38)*%
X67380000Y-50680000D03*
%TO.P,J4,27,Pin_27*%
%TO.N,Net-(J2-Pin_13)*%
X67380000Y-53220000D03*
%TO.P,J4,26,Pin_26*%
%TO.N,Net-(J2-Pin_14)*%
X67380000Y-55760000D03*
%TO.P,J4,25,Pin_25*%
%TO.N,Net-(J1-Pin_2)*%
X67380000Y-58300000D03*
%TO.P,J4,24,Pin_24*%
%TO.N,unconnected-(J4-Pin_24-Pad24)*%
X67380000Y-60840000D03*
%TO.P,J4,23,Pin_23*%
%TO.N,Net-(J1-Pin_1)*%
X67380000Y-63380000D03*
%TO.P,J4,22,Pin_22*%
%TO.N,unconnected-(J4-Pin_22-Pad22)*%
X67380000Y-65920000D03*
%TO.P,J4,21,Pin_21*%
%TO.N,unconnected-(J4-Pin_21-Pad21)*%
X67380000Y-68460000D03*
%TO.P,J4,20,Pin_20*%
%TO.N,unconnected-(J4-Pin_20-Pad20)*%
X67380000Y-71000000D03*
%TO.P,J4,19,Pin_19*%
%TO.N,Net-(J3-Pin_5)*%
X67380000Y-73540000D03*
%TO.P,J4,18,Pin_18*%
%TO.N,Net-(J3-Pin_4)*%
X67380000Y-76080000D03*
%TO.P,J4,17,Pin_17*%
%TO.N,unconnected-(J4-Pin_17-Pad17)*%
X67380000Y-78620000D03*
%TO.P,J4,16,Pin_16*%
%TO.N,unconnected-(J4-Pin_16-Pad16)*%
X90380000Y-40520000D03*
%TO.P,J4,15,Pin_15*%
%TO.N,Net-(J2-Pin_31)*%
X90380000Y-43060000D03*
%TO.P,J4,14,Pin_14*%
%TO.N,unconnected-(J4-Pin_14-Pad14)*%
X90380000Y-45600000D03*
%TO.P,J4,13,Pin_13*%
%TO.N,unconnected-(J4-Pin_13-Pad13)*%
X90380000Y-48140000D03*
%TO.P,J4,12,Pin_12*%
%TO.N,unconnected-(J4-Pin_12-Pad12)*%
X90380000Y-50680000D03*
%TO.P,J4,11,Pin_11*%
%TO.N,unconnected-(J4-Pin_11-Pad11)*%
X90380000Y-53220000D03*
%TO.P,J4,10,Pin_10*%
%TO.N,unconnected-(J4-Pin_10-Pad10)*%
X90380000Y-55760000D03*
%TO.P,J4,9,Pin_9*%
%TO.N,unconnected-(J4-Pin_9-Pad9)*%
X90380000Y-58300000D03*
%TO.P,J4,8,Pin_8*%
%TO.N,unconnected-(J4-Pin_8-Pad8)*%
X90380000Y-60840000D03*
%TO.P,J4,7,Pin_7*%
%TO.N,Net-(J2-Pin_27)*%
X90380000Y-63380000D03*
%TO.P,J4,6,Pin_6*%
%TO.N,Net-(J2-Pin_39)*%
X90380000Y-65920000D03*
%TO.P,J4,5,Pin_5*%
%TO.N,unconnected-(J4-Pin_5-Pad5)*%
X90380000Y-68460000D03*
%TO.P,J4,4,Pin_4*%
%TO.N,unconnected-(J4-Pin_4-Pad4)*%
X90380000Y-71000000D03*
%TO.P,J4,3,Pin_3*%
%TO.N,unconnected-(J4-Pin_3-Pad3)*%
X90380000Y-73540000D03*
%TO.P,J4,2,Pin_2*%
%TO.N,unconnected-(J4-Pin_2-Pad2)*%
X90380000Y-76080000D03*
%TO.P,J4,1,Pin_1*%
%TO.N,unconnected-(J4-Pin_1-Pad1)*%
X90380000Y-78620000D03*
%TD*%
D11*
%TO.P,J6,8,Pin_8*%
%TO.N,Net-(J2-Pin_24)*%
X98380000Y-98300000D03*
%TO.P,J6,7,Pin_7*%
%TO.N,Net-(J2-Pin_23)*%
X98380000Y-95760000D03*
%TO.P,J6,6,Pin_6*%
%TO.N,Net-(J2-Pin_22)*%
X98380000Y-93220000D03*
%TO.P,J6,5,Pin_5*%
%TO.N,Net-(J2-Pin_21)*%
X98380000Y-90680000D03*
%TO.P,J6,4,Pin_4*%
%TO.N,unconnected-(J6-Pin_4-Pad4)*%
X98380000Y-88140000D03*
%TO.P,J6,3,Pin_3*%
%TO.N,unconnected-(J6-Pin_3-Pad3)*%
X98380000Y-85600000D03*
%TO.P,J6,2,Pin_2*%
%TO.N,Net-(J1-Pin_2)*%
X98380000Y-83060000D03*
D12*
%TO.P,J6,1,Pin_1*%
%TO.N,Net-(J1-Pin_1)*%
X98380000Y-80520000D03*
%TD*%
D11*
%TO.P,J5,8,Pin_8*%
%TO.N,Net-(J2-Pin_40)*%
X135380000Y-66300000D03*
%TO.P,J5,7,Pin_7*%
%TO.N,Net-(J2-Pin_41)*%
X135380000Y-63760000D03*
%TO.P,J5,6,Pin_6*%
%TO.N,Net-(J2-Pin_42)*%
X135380000Y-61220000D03*
%TO.P,J5,5,Pin_5*%
%TO.N,Net-(J2-Pin_43)*%
X135380000Y-58680000D03*
%TO.P,J5,4,Pin_4*%
%TO.N,Net-(J2-Pin_33)*%
X135380000Y-56140000D03*
%TO.P,J5,3,Pin_3*%
%TO.N,Net-(J2-Pin_32)*%
X135380000Y-53600000D03*
%TO.P,J5,2,Pin_2*%
%TO.N,Net-(J1-Pin_2)*%
X135380000Y-51060000D03*
D12*
%TO.P,J5,1,Pin_1*%
%TO.N,Net-(J1-Pin_1)*%
X135380000Y-48520000D03*
%TD*%
D16*
%TO.N,Net-(J1-Pin_1)*%
X97000000Y-106000000D02*
X126000000Y-106000000D01*
X126000000Y-106000000D02*
X137380000Y-94620000D01*
X137380000Y-94620000D02*
X137380000Y-92000000D01*
X91380000Y-100380000D02*
X97000000Y-106000000D01*
X91380000Y-87520000D02*
X91380000Y-100380000D01*
%TO.N,Net-(J1-Pin_2)*%
X94380000Y-87060000D02*
X98380000Y-83060000D01*
X94380000Y-101000000D02*
X94380000Y-87060000D01*
X97380000Y-104000000D02*
X94380000Y-101000000D01*
X125000000Y-104000000D02*
X97380000Y-104000000D01*
X133880000Y-95120000D02*
X125000000Y-104000000D01*
X133880000Y-92000000D02*
X133880000Y-95120000D01*
%TO.N,Net-(J1-Pin_1)*%
X89900000Y-89000000D02*
X91380000Y-87520000D01*
X87620000Y-89000000D02*
X89900000Y-89000000D01*
%TO.N,Net-(J3-Pin_5)*%
X72920000Y-73540000D02*
X77460000Y-78080000D01*
X77460000Y-78080000D02*
X77460000Y-89000000D01*
X67380000Y-73540000D02*
X72920000Y-73540000D01*
%TO.N,Net-(J3-Pin_4)*%
X80000000Y-90380000D02*
X80000000Y-89000000D01*
X66380000Y-92000000D02*
X78380000Y-92000000D01*
X64380000Y-87000000D02*
X64380000Y-90000000D01*
X66380000Y-85000000D02*
X64380000Y-87000000D01*
X71380000Y-82000000D02*
X68380000Y-85000000D01*
X78380000Y-92000000D02*
X80000000Y-90380000D01*
X68380000Y-85000000D02*
X66380000Y-85000000D01*
X71380000Y-78000000D02*
X71380000Y-82000000D01*
X69380000Y-76000000D02*
X71380000Y-78000000D01*
X69300000Y-76080000D02*
X69380000Y-76000000D01*
X67380000Y-76080000D02*
X69300000Y-76080000D01*
X64380000Y-90000000D02*
X66380000Y-92000000D01*
%TO.N,Net-(J1-Pin_2)*%
X79380000Y-96000000D02*
X85080000Y-90300000D01*
X85080000Y-90300000D02*
X85080000Y-89000000D01*
X62380000Y-92000000D02*
X66380000Y-96000000D01*
X62380000Y-63300000D02*
X62380000Y-92000000D01*
X67380000Y-58300000D02*
X62380000Y-63300000D01*
X66380000Y-96000000D02*
X79380000Y-96000000D01*
%TO.N,Net-(J2-Pin_13)*%
X76680000Y-53220000D02*
X67380000Y-53220000D01*
X85380000Y-44520000D02*
X76680000Y-53220000D01*
X98380000Y-39520000D02*
X93860000Y-35000000D01*
X98380000Y-66520000D02*
X98380000Y-39520000D01*
X88900000Y-35000000D02*
X85380000Y-38520000D01*
X93860000Y-35000000D02*
X88900000Y-35000000D01*
X102860000Y-71000000D02*
X98380000Y-66520000D01*
X85380000Y-38520000D02*
X85380000Y-44520000D01*
X107140000Y-71000000D02*
X102860000Y-71000000D01*
%TO.N,Net-(J1-Pin_1)*%
X91380000Y-87520000D02*
X98380000Y-80520000D01*
%TO.N,Net-(J2-Pin_38)*%
X110380000Y-38520000D02*
X110380000Y-61540000D01*
X104860000Y-33000000D02*
X110380000Y-38520000D01*
X110380000Y-61540000D02*
X122380000Y-73540000D01*
X83380000Y-43520000D02*
X83380000Y-36750000D01*
X87130000Y-33000000D02*
X104860000Y-33000000D01*
X76220000Y-50680000D02*
X83380000Y-43520000D01*
X83380000Y-36750000D02*
X87130000Y-33000000D01*
X67380000Y-50680000D02*
X76220000Y-50680000D01*
%TO.N,Net-(J2-Pin_14)*%
X101400000Y-73540000D02*
X107140000Y-73540000D01*
X95380000Y-67520000D02*
X101400000Y-73540000D01*
X95380000Y-39520000D02*
X95380000Y-67520000D01*
X89380000Y-37520000D02*
X93380000Y-37520000D01*
X93380000Y-37520000D02*
X95380000Y-39520000D01*
X87380000Y-39520000D02*
X89380000Y-37520000D01*
X77140000Y-55760000D02*
X87380000Y-45520000D01*
X67380000Y-55760000D02*
X77140000Y-55760000D01*
X87380000Y-45520000D02*
X87380000Y-39520000D01*
%TO.N,Net-(J2-Pin_24)*%
X107140000Y-98940000D02*
X99020000Y-98940000D01*
X99020000Y-98940000D02*
X98380000Y-98300000D01*
%TO.N,Net-(J2-Pin_23)*%
X99020000Y-96400000D02*
X98380000Y-95760000D01*
X107140000Y-96400000D02*
X99020000Y-96400000D01*
%TO.N,Net-(J2-Pin_22)*%
X99020000Y-93860000D02*
X98380000Y-93220000D01*
X107140000Y-93860000D02*
X99020000Y-93860000D01*
%TO.N,Net-(J2-Pin_21)*%
X99020000Y-91320000D02*
X98380000Y-90680000D01*
X107140000Y-91320000D02*
X99020000Y-91320000D01*
%TO.N,Net-(J1-Pin_2)*%
X133880000Y-88500000D02*
X133880000Y-92000000D01*
%TO.N,Net-(J2-Pin_40)*%
X130280000Y-78620000D02*
X122380000Y-78620000D01*
%TO.N,Net-(J2-Pin_42)*%
X131200000Y-83700000D02*
X122380000Y-83700000D01*
%TO.N,Net-(J2-Pin_43)*%
X132140000Y-86240000D02*
X122380000Y-86240000D01*
%TO.N,Net-(J2-Pin_41)*%
X130740000Y-81160000D02*
X122380000Y-81160000D01*
%TO.N,Net-(J2-Pin_40)*%
X135380000Y-73520000D02*
X130280000Y-78620000D01*
%TO.N,Net-(J1-Pin_2)*%
X144380000Y-78000000D02*
X133880000Y-88500000D01*
%TO.N,Net-(J2-Pin_41)*%
X138380000Y-73520000D02*
X130740000Y-81160000D01*
%TO.N,Net-(J2-Pin_43)*%
X142380000Y-76000000D02*
X132140000Y-86240000D01*
%TO.N,Net-(J2-Pin_42)*%
X140380000Y-74520000D02*
X131200000Y-83700000D01*
%TO.N,Net-(J2-Pin_32)*%
X125600000Y-58300000D02*
X122380000Y-58300000D01*
%TO.N,Net-(J2-Pin_33)*%
X122380000Y-60840000D02*
X126060000Y-60840000D01*
X126060000Y-60840000D02*
X130760000Y-56140000D01*
%TO.N,Net-(J2-Pin_32)*%
X130300000Y-53600000D02*
X125600000Y-58300000D01*
%TO.N,Net-(J2-Pin_42)*%
X139080000Y-61220000D02*
X140380000Y-62520000D01*
%TO.N,Net-(J2-Pin_41)*%
X137620000Y-63760000D02*
X138380000Y-64520000D01*
%TO.N,Net-(J1-Pin_2)*%
X144380000Y-57520000D02*
X144380000Y-78000000D01*
%TO.N,Net-(J2-Pin_42)*%
X140380000Y-62520000D02*
X140380000Y-74520000D01*
%TO.N,Net-(J2-Pin_43)*%
X142380000Y-59520000D02*
X142380000Y-76000000D01*
%TO.N,Net-(J2-Pin_40)*%
X135380000Y-66300000D02*
X135380000Y-73520000D01*
%TO.N,Net-(J2-Pin_41)*%
X138380000Y-64520000D02*
X138380000Y-73520000D01*
X135380000Y-63760000D02*
X137620000Y-63760000D01*
%TO.N,Net-(J2-Pin_42)*%
X135380000Y-61220000D02*
X139080000Y-61220000D01*
%TO.N,Net-(J1-Pin_2)*%
X124920000Y-43060000D02*
X122380000Y-43060000D01*
%TO.N,Net-(J1-Pin_1)*%
X126900000Y-40520000D02*
X122380000Y-40520000D01*
X146380000Y-55520000D02*
X146380000Y-81000000D01*
X146380000Y-81000000D02*
X137380000Y-90000000D01*
X137380000Y-90000000D02*
X137380000Y-92000000D01*
X135380000Y-48520000D02*
X134900000Y-48520000D01*
X135380000Y-48520000D02*
X139380000Y-48520000D01*
%TO.N,Net-(J1-Pin_2)*%
X135380000Y-51060000D02*
X137920000Y-51060000D01*
X135380000Y-51060000D02*
X132920000Y-51060000D01*
%TO.N,Net-(J1-Pin_1)*%
X134900000Y-48520000D02*
X126900000Y-40520000D01*
%TO.N,Net-(J1-Pin_2)*%
X132920000Y-51060000D02*
X124920000Y-43060000D01*
%TO.N,Net-(J2-Pin_32)*%
X135380000Y-53600000D02*
X130300000Y-53600000D01*
%TO.N,Net-(J2-Pin_33)*%
X130760000Y-56140000D02*
X135380000Y-56140000D01*
%TO.N,Net-(J2-Pin_43)*%
X141540000Y-58680000D02*
X142380000Y-59520000D01*
%TO.N,Net-(J1-Pin_2)*%
X137920000Y-51060000D02*
X144380000Y-57520000D01*
%TO.N,Net-(J1-Pin_1)*%
X139380000Y-48520000D02*
X146380000Y-55520000D01*
%TO.N,Net-(J2-Pin_43)*%
X135380000Y-58680000D02*
X141540000Y-58680000D01*
%TO.N,Net-(J1-Pin_1)*%
X67380000Y-63380000D02*
X74760000Y-63380000D01*
X74760000Y-63380000D02*
X82380000Y-71000000D01*
X82380000Y-71000000D02*
X82380000Y-82000000D01*
X87620000Y-87240000D02*
X87620000Y-89000000D01*
X82380000Y-82000000D02*
X87620000Y-87240000D01*
%TO.N,Net-(J1-Pin_2)*%
X85380000Y-69000000D02*
X74680000Y-58300000D01*
X74680000Y-58300000D02*
X67380000Y-58300000D01*
X85380000Y-69000000D02*
X85380000Y-81000000D01*
X102380000Y-77000000D02*
X102380000Y-80262081D01*
X85380000Y-81000000D02*
X87380000Y-83000000D01*
X93380000Y-80000000D02*
X97380000Y-76000000D01*
X102380000Y-80262081D02*
X99582081Y-83060000D01*
X87380000Y-83000000D02*
X92380000Y-83000000D01*
X92380000Y-83000000D02*
X93380000Y-82000000D01*
X93380000Y-82000000D02*
X93380000Y-80000000D01*
X97380000Y-76000000D02*
X101380000Y-76000000D01*
X101380000Y-76000000D02*
X102380000Y-77000000D01*
X99582081Y-83060000D02*
X98380000Y-83060000D01*
%TD*%
M02*
