%TF.GenerationSoftware,KiCad,Pcbnew,8.0.3*%
%TF.CreationDate,2024-07-18T11:22:03-07:00*%
%TF.ProjectId,pcb_test,7063625f-7465-4737-942e-6b696361645f,rev?*%
%TF.SameCoordinates,Original*%
%TF.FileFunction,Legend,Top*%
%TF.FilePolarity,Positive*%
%FSLAX46Y46*%
G04 Gerber Fmt 4.6, Leading zero omitted, Abs format (unit mm)*
G04 Created by KiCad (PCBNEW 8.0.3) date 2024-07-18 11:22:03*
%MOMM*%
%LPD*%
G01*
G04 APERTURE LIST*
%ADD10C,0.100000*%
%ADD11C,0.150000*%
%ADD12C,0.120000*%
G04 APERTURE END LIST*
D10*
X100161027Y-30652531D02*
X100732455Y-30652531D01*
X100446741Y-31652531D02*
X100446741Y-30652531D01*
X101065789Y-31652531D02*
X101065789Y-30652531D01*
X101494360Y-31652531D02*
X101494360Y-31128721D01*
X101494360Y-31128721D02*
X101446741Y-31033483D01*
X101446741Y-31033483D02*
X101351503Y-30985864D01*
X101351503Y-30985864D02*
X101208646Y-30985864D01*
X101208646Y-30985864D02*
X101113408Y-31033483D01*
X101113408Y-31033483D02*
X101065789Y-31081102D01*
X102351503Y-31604912D02*
X102256265Y-31652531D01*
X102256265Y-31652531D02*
X102065789Y-31652531D01*
X102065789Y-31652531D02*
X101970551Y-31604912D01*
X101970551Y-31604912D02*
X101922932Y-31509673D01*
X101922932Y-31509673D02*
X101922932Y-31128721D01*
X101922932Y-31128721D02*
X101970551Y-31033483D01*
X101970551Y-31033483D02*
X102065789Y-30985864D01*
X102065789Y-30985864D02*
X102256265Y-30985864D01*
X102256265Y-30985864D02*
X102351503Y-31033483D01*
X102351503Y-31033483D02*
X102399122Y-31128721D01*
X102399122Y-31128721D02*
X102399122Y-31223959D01*
X102399122Y-31223959D02*
X101922932Y-31319197D01*
X104161027Y-31557292D02*
X104113408Y-31604912D01*
X104113408Y-31604912D02*
X103970551Y-31652531D01*
X103970551Y-31652531D02*
X103875313Y-31652531D01*
X103875313Y-31652531D02*
X103732456Y-31604912D01*
X103732456Y-31604912D02*
X103637218Y-31509673D01*
X103637218Y-31509673D02*
X103589599Y-31414435D01*
X103589599Y-31414435D02*
X103541980Y-31223959D01*
X103541980Y-31223959D02*
X103541980Y-31081102D01*
X103541980Y-31081102D02*
X103589599Y-30890626D01*
X103589599Y-30890626D02*
X103637218Y-30795388D01*
X103637218Y-30795388D02*
X103732456Y-30700150D01*
X103732456Y-30700150D02*
X103875313Y-30652531D01*
X103875313Y-30652531D02*
X103970551Y-30652531D01*
X103970551Y-30652531D02*
X104113408Y-30700150D01*
X104113408Y-30700150D02*
X104161027Y-30747769D01*
X104732456Y-31652531D02*
X104637218Y-31604912D01*
X104637218Y-31604912D02*
X104589599Y-31557292D01*
X104589599Y-31557292D02*
X104541980Y-31462054D01*
X104541980Y-31462054D02*
X104541980Y-31176340D01*
X104541980Y-31176340D02*
X104589599Y-31081102D01*
X104589599Y-31081102D02*
X104637218Y-31033483D01*
X104637218Y-31033483D02*
X104732456Y-30985864D01*
X104732456Y-30985864D02*
X104875313Y-30985864D01*
X104875313Y-30985864D02*
X104970551Y-31033483D01*
X104970551Y-31033483D02*
X105018170Y-31081102D01*
X105018170Y-31081102D02*
X105065789Y-31176340D01*
X105065789Y-31176340D02*
X105065789Y-31462054D01*
X105065789Y-31462054D02*
X105018170Y-31557292D01*
X105018170Y-31557292D02*
X104970551Y-31604912D01*
X104970551Y-31604912D02*
X104875313Y-31652531D01*
X104875313Y-31652531D02*
X104732456Y-31652531D01*
X105494361Y-30985864D02*
X105494361Y-31652531D01*
X105494361Y-31081102D02*
X105541980Y-31033483D01*
X105541980Y-31033483D02*
X105637218Y-30985864D01*
X105637218Y-30985864D02*
X105780075Y-30985864D01*
X105780075Y-30985864D02*
X105875313Y-31033483D01*
X105875313Y-31033483D02*
X105922932Y-31128721D01*
X105922932Y-31128721D02*
X105922932Y-31652531D01*
X106827694Y-31652531D02*
X106827694Y-30652531D01*
X106827694Y-31604912D02*
X106732456Y-31652531D01*
X106732456Y-31652531D02*
X106541980Y-31652531D01*
X106541980Y-31652531D02*
X106446742Y-31604912D01*
X106446742Y-31604912D02*
X106399123Y-31557292D01*
X106399123Y-31557292D02*
X106351504Y-31462054D01*
X106351504Y-31462054D02*
X106351504Y-31176340D01*
X106351504Y-31176340D02*
X106399123Y-31081102D01*
X106399123Y-31081102D02*
X106446742Y-31033483D01*
X106446742Y-31033483D02*
X106541980Y-30985864D01*
X106541980Y-30985864D02*
X106732456Y-30985864D01*
X106732456Y-30985864D02*
X106827694Y-31033483D01*
X107732456Y-30985864D02*
X107732456Y-31652531D01*
X107303885Y-30985864D02*
X107303885Y-31509673D01*
X107303885Y-31509673D02*
X107351504Y-31604912D01*
X107351504Y-31604912D02*
X107446742Y-31652531D01*
X107446742Y-31652531D02*
X107589599Y-31652531D01*
X107589599Y-31652531D02*
X107684837Y-31604912D01*
X107684837Y-31604912D02*
X107732456Y-31557292D01*
X108637218Y-31604912D02*
X108541980Y-31652531D01*
X108541980Y-31652531D02*
X108351504Y-31652531D01*
X108351504Y-31652531D02*
X108256266Y-31604912D01*
X108256266Y-31604912D02*
X108208647Y-31557292D01*
X108208647Y-31557292D02*
X108161028Y-31462054D01*
X108161028Y-31462054D02*
X108161028Y-31176340D01*
X108161028Y-31176340D02*
X108208647Y-31081102D01*
X108208647Y-31081102D02*
X108256266Y-31033483D01*
X108256266Y-31033483D02*
X108351504Y-30985864D01*
X108351504Y-30985864D02*
X108541980Y-30985864D01*
X108541980Y-30985864D02*
X108637218Y-31033483D01*
X108922933Y-30985864D02*
X109303885Y-30985864D01*
X109065790Y-30652531D02*
X109065790Y-31509673D01*
X109065790Y-31509673D02*
X109113409Y-31604912D01*
X109113409Y-31604912D02*
X109208647Y-31652531D01*
X109208647Y-31652531D02*
X109303885Y-31652531D01*
X109780076Y-31652531D02*
X109684838Y-31604912D01*
X109684838Y-31604912D02*
X109637219Y-31557292D01*
X109637219Y-31557292D02*
X109589600Y-31462054D01*
X109589600Y-31462054D02*
X109589600Y-31176340D01*
X109589600Y-31176340D02*
X109637219Y-31081102D01*
X109637219Y-31081102D02*
X109684838Y-31033483D01*
X109684838Y-31033483D02*
X109780076Y-30985864D01*
X109780076Y-30985864D02*
X109922933Y-30985864D01*
X109922933Y-30985864D02*
X110018171Y-31033483D01*
X110018171Y-31033483D02*
X110065790Y-31081102D01*
X110065790Y-31081102D02*
X110113409Y-31176340D01*
X110113409Y-31176340D02*
X110113409Y-31462054D01*
X110113409Y-31462054D02*
X110065790Y-31557292D01*
X110065790Y-31557292D02*
X110018171Y-31604912D01*
X110018171Y-31604912D02*
X109922933Y-31652531D01*
X109922933Y-31652531D02*
X109780076Y-31652531D01*
X110541981Y-31652531D02*
X110541981Y-30985864D01*
X110541981Y-31176340D02*
X110589600Y-31081102D01*
X110589600Y-31081102D02*
X110637219Y-31033483D01*
X110637219Y-31033483D02*
X110732457Y-30985864D01*
X110732457Y-30985864D02*
X110827695Y-30985864D01*
X111922934Y-31652531D02*
X111922934Y-30652531D01*
X111922934Y-31033483D02*
X112018172Y-30985864D01*
X112018172Y-30985864D02*
X112208648Y-30985864D01*
X112208648Y-30985864D02*
X112303886Y-31033483D01*
X112303886Y-31033483D02*
X112351505Y-31081102D01*
X112351505Y-31081102D02*
X112399124Y-31176340D01*
X112399124Y-31176340D02*
X112399124Y-31462054D01*
X112399124Y-31462054D02*
X112351505Y-31557292D01*
X112351505Y-31557292D02*
X112303886Y-31604912D01*
X112303886Y-31604912D02*
X112208648Y-31652531D01*
X112208648Y-31652531D02*
X112018172Y-31652531D01*
X112018172Y-31652531D02*
X111922934Y-31604912D01*
X112732458Y-30985864D02*
X112970553Y-31652531D01*
X113208648Y-30985864D02*
X112970553Y-31652531D01*
X112970553Y-31652531D02*
X112875315Y-31890626D01*
X112875315Y-31890626D02*
X112827696Y-31938245D01*
X112827696Y-31938245D02*
X112732458Y-31985864D01*
X114541982Y-30652531D02*
X114732458Y-30652531D01*
X114732458Y-30652531D02*
X114827696Y-30700150D01*
X114827696Y-30700150D02*
X114922934Y-30795388D01*
X114922934Y-30795388D02*
X114970553Y-30985864D01*
X114970553Y-30985864D02*
X114970553Y-31319197D01*
X114970553Y-31319197D02*
X114922934Y-31509673D01*
X114922934Y-31509673D02*
X114827696Y-31604912D01*
X114827696Y-31604912D02*
X114732458Y-31652531D01*
X114732458Y-31652531D02*
X114541982Y-31652531D01*
X114541982Y-31652531D02*
X114446744Y-31604912D01*
X114446744Y-31604912D02*
X114351506Y-31509673D01*
X114351506Y-31509673D02*
X114303887Y-31319197D01*
X114303887Y-31319197D02*
X114303887Y-30985864D01*
X114303887Y-30985864D02*
X114351506Y-30795388D01*
X114351506Y-30795388D02*
X114446744Y-30700150D01*
X114446744Y-30700150D02*
X114541982Y-30652531D01*
X115827696Y-31604912D02*
X115732458Y-31652531D01*
X115732458Y-31652531D02*
X115541982Y-31652531D01*
X115541982Y-31652531D02*
X115446744Y-31604912D01*
X115446744Y-31604912D02*
X115399125Y-31557292D01*
X115399125Y-31557292D02*
X115351506Y-31462054D01*
X115351506Y-31462054D02*
X115351506Y-31176340D01*
X115351506Y-31176340D02*
X115399125Y-31081102D01*
X115399125Y-31081102D02*
X115446744Y-31033483D01*
X115446744Y-31033483D02*
X115541982Y-30985864D01*
X115541982Y-30985864D02*
X115732458Y-30985864D01*
X115732458Y-30985864D02*
X115827696Y-31033483D01*
X116113411Y-30985864D02*
X116494363Y-30985864D01*
X116256268Y-30652531D02*
X116256268Y-31509673D01*
X116256268Y-31509673D02*
X116303887Y-31604912D01*
X116303887Y-31604912D02*
X116399125Y-31652531D01*
X116399125Y-31652531D02*
X116494363Y-31652531D01*
X117256268Y-31652531D02*
X117256268Y-31128721D01*
X117256268Y-31128721D02*
X117208649Y-31033483D01*
X117208649Y-31033483D02*
X117113411Y-30985864D01*
X117113411Y-30985864D02*
X116922935Y-30985864D01*
X116922935Y-30985864D02*
X116827697Y-31033483D01*
X117256268Y-31604912D02*
X117161030Y-31652531D01*
X117161030Y-31652531D02*
X116922935Y-31652531D01*
X116922935Y-31652531D02*
X116827697Y-31604912D01*
X116827697Y-31604912D02*
X116780078Y-31509673D01*
X116780078Y-31509673D02*
X116780078Y-31414435D01*
X116780078Y-31414435D02*
X116827697Y-31319197D01*
X116827697Y-31319197D02*
X116922935Y-31271578D01*
X116922935Y-31271578D02*
X117161030Y-31271578D01*
X117161030Y-31271578D02*
X117256268Y-31223959D01*
X117637221Y-30985864D02*
X117875316Y-31652531D01*
X117875316Y-31652531D02*
X118113411Y-30985864D01*
X118875316Y-31604912D02*
X118780078Y-31652531D01*
X118780078Y-31652531D02*
X118589602Y-31652531D01*
X118589602Y-31652531D02*
X118494364Y-31604912D01*
X118494364Y-31604912D02*
X118446745Y-31509673D01*
X118446745Y-31509673D02*
X118446745Y-31128721D01*
X118446745Y-31128721D02*
X118494364Y-31033483D01*
X118494364Y-31033483D02*
X118589602Y-30985864D01*
X118589602Y-30985864D02*
X118780078Y-30985864D01*
X118780078Y-30985864D02*
X118875316Y-31033483D01*
X118875316Y-31033483D02*
X118922935Y-31128721D01*
X118922935Y-31128721D02*
X118922935Y-31223959D01*
X118922935Y-31223959D02*
X118446745Y-31319197D01*
X119303888Y-31604912D02*
X119399126Y-31652531D01*
X119399126Y-31652531D02*
X119589602Y-31652531D01*
X119589602Y-31652531D02*
X119684840Y-31604912D01*
X119684840Y-31604912D02*
X119732459Y-31509673D01*
X119732459Y-31509673D02*
X119732459Y-31462054D01*
X119732459Y-31462054D02*
X119684840Y-31366816D01*
X119684840Y-31366816D02*
X119589602Y-31319197D01*
X119589602Y-31319197D02*
X119446745Y-31319197D01*
X119446745Y-31319197D02*
X119351507Y-31271578D01*
X119351507Y-31271578D02*
X119303888Y-31176340D01*
X119303888Y-31176340D02*
X119303888Y-31128721D01*
X119303888Y-31128721D02*
X119351507Y-31033483D01*
X119351507Y-31033483D02*
X119446745Y-30985864D01*
X119446745Y-30985864D02*
X119589602Y-30985864D01*
X119589602Y-30985864D02*
X119684840Y-31033483D01*
X120446745Y-32033483D02*
X120399126Y-31985864D01*
X120399126Y-31985864D02*
X120303888Y-31843007D01*
X120303888Y-31843007D02*
X120256269Y-31747769D01*
X120256269Y-31747769D02*
X120208650Y-31604912D01*
X120208650Y-31604912D02*
X120161031Y-31366816D01*
X120161031Y-31366816D02*
X120161031Y-31176340D01*
X120161031Y-31176340D02*
X120208650Y-30938245D01*
X120208650Y-30938245D02*
X120256269Y-30795388D01*
X120256269Y-30795388D02*
X120303888Y-30700150D01*
X120303888Y-30700150D02*
X120399126Y-30557292D01*
X120399126Y-30557292D02*
X120446745Y-30509673D01*
X121256269Y-31652531D02*
X121256269Y-30652531D01*
X121256269Y-31604912D02*
X121161031Y-31652531D01*
X121161031Y-31652531D02*
X120970555Y-31652531D01*
X120970555Y-31652531D02*
X120875317Y-31604912D01*
X120875317Y-31604912D02*
X120827698Y-31557292D01*
X120827698Y-31557292D02*
X120780079Y-31462054D01*
X120780079Y-31462054D02*
X120780079Y-31176340D01*
X120780079Y-31176340D02*
X120827698Y-31081102D01*
X120827698Y-31081102D02*
X120875317Y-31033483D01*
X120875317Y-31033483D02*
X120970555Y-30985864D01*
X120970555Y-30985864D02*
X121161031Y-30985864D01*
X121161031Y-30985864D02*
X121256269Y-31033483D01*
X122113412Y-31604912D02*
X122018174Y-31652531D01*
X122018174Y-31652531D02*
X121827698Y-31652531D01*
X121827698Y-31652531D02*
X121732460Y-31604912D01*
X121732460Y-31604912D02*
X121684841Y-31509673D01*
X121684841Y-31509673D02*
X121684841Y-31128721D01*
X121684841Y-31128721D02*
X121732460Y-31033483D01*
X121732460Y-31033483D02*
X121827698Y-30985864D01*
X121827698Y-30985864D02*
X122018174Y-30985864D01*
X122018174Y-30985864D02*
X122113412Y-31033483D01*
X122113412Y-31033483D02*
X122161031Y-31128721D01*
X122161031Y-31128721D02*
X122161031Y-31223959D01*
X122161031Y-31223959D02*
X121684841Y-31319197D01*
X122446746Y-30985864D02*
X122827698Y-30985864D01*
X122589603Y-31652531D02*
X122589603Y-30795388D01*
X122589603Y-30795388D02*
X122637222Y-30700150D01*
X122637222Y-30700150D02*
X122732460Y-30652531D01*
X122732460Y-30652531D02*
X122827698Y-30652531D01*
X123161032Y-31652531D02*
X123161032Y-30985864D01*
X123161032Y-30652531D02*
X123113413Y-30700150D01*
X123113413Y-30700150D02*
X123161032Y-30747769D01*
X123161032Y-30747769D02*
X123208651Y-30700150D01*
X123208651Y-30700150D02*
X123161032Y-30652531D01*
X123161032Y-30652531D02*
X123161032Y-30747769D01*
X123637222Y-30985864D02*
X123637222Y-31652531D01*
X123637222Y-31081102D02*
X123684841Y-31033483D01*
X123684841Y-31033483D02*
X123780079Y-30985864D01*
X123780079Y-30985864D02*
X123922936Y-30985864D01*
X123922936Y-30985864D02*
X124018174Y-31033483D01*
X124018174Y-31033483D02*
X124065793Y-31128721D01*
X124065793Y-31128721D02*
X124065793Y-31652531D01*
X124541984Y-31652531D02*
X124541984Y-30985864D01*
X124541984Y-30652531D02*
X124494365Y-30700150D01*
X124494365Y-30700150D02*
X124541984Y-30747769D01*
X124541984Y-30747769D02*
X124589603Y-30700150D01*
X124589603Y-30700150D02*
X124541984Y-30652531D01*
X124541984Y-30652531D02*
X124541984Y-30747769D01*
X124875317Y-30985864D02*
X125256269Y-30985864D01*
X125018174Y-30652531D02*
X125018174Y-31509673D01*
X125018174Y-31509673D02*
X125065793Y-31604912D01*
X125065793Y-31604912D02*
X125161031Y-31652531D01*
X125161031Y-31652531D02*
X125256269Y-31652531D01*
X125970555Y-31604912D02*
X125875317Y-31652531D01*
X125875317Y-31652531D02*
X125684841Y-31652531D01*
X125684841Y-31652531D02*
X125589603Y-31604912D01*
X125589603Y-31604912D02*
X125541984Y-31509673D01*
X125541984Y-31509673D02*
X125541984Y-31128721D01*
X125541984Y-31128721D02*
X125589603Y-31033483D01*
X125589603Y-31033483D02*
X125684841Y-30985864D01*
X125684841Y-30985864D02*
X125875317Y-30985864D01*
X125875317Y-30985864D02*
X125970555Y-31033483D01*
X125970555Y-31033483D02*
X126018174Y-31128721D01*
X126018174Y-31128721D02*
X126018174Y-31223959D01*
X126018174Y-31223959D02*
X125541984Y-31319197D01*
X126589603Y-31652531D02*
X126494365Y-31604912D01*
X126494365Y-31604912D02*
X126446746Y-31509673D01*
X126446746Y-31509673D02*
X126446746Y-30652531D01*
X126875318Y-30985864D02*
X127113413Y-31652531D01*
X127351508Y-30985864D02*
X127113413Y-31652531D01*
X127113413Y-31652531D02*
X127018175Y-31890626D01*
X127018175Y-31890626D02*
X126970556Y-31938245D01*
X126970556Y-31938245D02*
X126875318Y-31985864D01*
X128684842Y-30652531D02*
X128875318Y-30652531D01*
X128875318Y-30652531D02*
X128970556Y-30700150D01*
X128970556Y-30700150D02*
X129065794Y-30795388D01*
X129065794Y-30795388D02*
X129113413Y-30985864D01*
X129113413Y-30985864D02*
X129113413Y-31319197D01*
X129113413Y-31319197D02*
X129065794Y-31509673D01*
X129065794Y-31509673D02*
X128970556Y-31604912D01*
X128970556Y-31604912D02*
X128875318Y-31652531D01*
X128875318Y-31652531D02*
X128684842Y-31652531D01*
X128684842Y-31652531D02*
X128589604Y-31604912D01*
X128589604Y-31604912D02*
X128494366Y-31509673D01*
X128494366Y-31509673D02*
X128446747Y-31319197D01*
X128446747Y-31319197D02*
X128446747Y-30985864D01*
X128446747Y-30985864D02*
X128494366Y-30795388D01*
X128494366Y-30795388D02*
X128589604Y-30700150D01*
X128589604Y-30700150D02*
X128684842Y-30652531D01*
X129494366Y-31604912D02*
X129637223Y-31652531D01*
X129637223Y-31652531D02*
X129875318Y-31652531D01*
X129875318Y-31652531D02*
X129970556Y-31604912D01*
X129970556Y-31604912D02*
X130018175Y-31557292D01*
X130018175Y-31557292D02*
X130065794Y-31462054D01*
X130065794Y-31462054D02*
X130065794Y-31366816D01*
X130065794Y-31366816D02*
X130018175Y-31271578D01*
X130018175Y-31271578D02*
X129970556Y-31223959D01*
X129970556Y-31223959D02*
X129875318Y-31176340D01*
X129875318Y-31176340D02*
X129684842Y-31128721D01*
X129684842Y-31128721D02*
X129589604Y-31081102D01*
X129589604Y-31081102D02*
X129541985Y-31033483D01*
X129541985Y-31033483D02*
X129494366Y-30938245D01*
X129494366Y-30938245D02*
X129494366Y-30843007D01*
X129494366Y-30843007D02*
X129541985Y-30747769D01*
X129541985Y-30747769D02*
X129589604Y-30700150D01*
X129589604Y-30700150D02*
X129684842Y-30652531D01*
X129684842Y-30652531D02*
X129922937Y-30652531D01*
X129922937Y-30652531D02*
X130065794Y-30700150D01*
X130494366Y-31652531D02*
X130494366Y-30652531D01*
X130494366Y-31128721D02*
X131065794Y-31128721D01*
X131065794Y-31652531D02*
X131065794Y-30652531D01*
X131494366Y-31366816D02*
X131970556Y-31366816D01*
X131399128Y-31652531D02*
X131732461Y-30652531D01*
X131732461Y-30652531D02*
X132065794Y-31652531D01*
X133589604Y-31604912D02*
X133494366Y-31652531D01*
X133494366Y-31652531D02*
X133303890Y-31652531D01*
X133303890Y-31652531D02*
X133208652Y-31604912D01*
X133208652Y-31604912D02*
X133161033Y-31557292D01*
X133161033Y-31557292D02*
X133113414Y-31462054D01*
X133113414Y-31462054D02*
X133113414Y-31176340D01*
X133113414Y-31176340D02*
X133161033Y-31081102D01*
X133161033Y-31081102D02*
X133208652Y-31033483D01*
X133208652Y-31033483D02*
X133303890Y-30985864D01*
X133303890Y-30985864D02*
X133494366Y-30985864D01*
X133494366Y-30985864D02*
X133589604Y-31033483D01*
X134161033Y-31652531D02*
X134065795Y-31604912D01*
X134065795Y-31604912D02*
X134018176Y-31557292D01*
X134018176Y-31557292D02*
X133970557Y-31462054D01*
X133970557Y-31462054D02*
X133970557Y-31176340D01*
X133970557Y-31176340D02*
X134018176Y-31081102D01*
X134018176Y-31081102D02*
X134065795Y-31033483D01*
X134065795Y-31033483D02*
X134161033Y-30985864D01*
X134161033Y-30985864D02*
X134303890Y-30985864D01*
X134303890Y-30985864D02*
X134399128Y-31033483D01*
X134399128Y-31033483D02*
X134446747Y-31081102D01*
X134446747Y-31081102D02*
X134494366Y-31176340D01*
X134494366Y-31176340D02*
X134494366Y-31462054D01*
X134494366Y-31462054D02*
X134446747Y-31557292D01*
X134446747Y-31557292D02*
X134399128Y-31604912D01*
X134399128Y-31604912D02*
X134303890Y-31652531D01*
X134303890Y-31652531D02*
X134161033Y-31652531D01*
X134922938Y-31652531D02*
X134922938Y-30985864D01*
X134922938Y-31081102D02*
X134970557Y-31033483D01*
X134970557Y-31033483D02*
X135065795Y-30985864D01*
X135065795Y-30985864D02*
X135208652Y-30985864D01*
X135208652Y-30985864D02*
X135303890Y-31033483D01*
X135303890Y-31033483D02*
X135351509Y-31128721D01*
X135351509Y-31128721D02*
X135351509Y-31652531D01*
X135351509Y-31128721D02*
X135399128Y-31033483D01*
X135399128Y-31033483D02*
X135494366Y-30985864D01*
X135494366Y-30985864D02*
X135637223Y-30985864D01*
X135637223Y-30985864D02*
X135732462Y-31033483D01*
X135732462Y-31033483D02*
X135780081Y-31128721D01*
X135780081Y-31128721D02*
X135780081Y-31652531D01*
X136256271Y-30985864D02*
X136256271Y-31985864D01*
X136256271Y-31033483D02*
X136351509Y-30985864D01*
X136351509Y-30985864D02*
X136541985Y-30985864D01*
X136541985Y-30985864D02*
X136637223Y-31033483D01*
X136637223Y-31033483D02*
X136684842Y-31081102D01*
X136684842Y-31081102D02*
X136732461Y-31176340D01*
X136732461Y-31176340D02*
X136732461Y-31462054D01*
X136732461Y-31462054D02*
X136684842Y-31557292D01*
X136684842Y-31557292D02*
X136637223Y-31604912D01*
X136637223Y-31604912D02*
X136541985Y-31652531D01*
X136541985Y-31652531D02*
X136351509Y-31652531D01*
X136351509Y-31652531D02*
X136256271Y-31604912D01*
X137303890Y-31652531D02*
X137208652Y-31604912D01*
X137208652Y-31604912D02*
X137161033Y-31509673D01*
X137161033Y-31509673D02*
X137161033Y-30652531D01*
X137684843Y-31652531D02*
X137684843Y-30985864D01*
X137684843Y-30652531D02*
X137637224Y-30700150D01*
X137637224Y-30700150D02*
X137684843Y-30747769D01*
X137684843Y-30747769D02*
X137732462Y-30700150D01*
X137732462Y-30700150D02*
X137684843Y-30652531D01*
X137684843Y-30652531D02*
X137684843Y-30747769D01*
X138589604Y-31652531D02*
X138589604Y-31128721D01*
X138589604Y-31128721D02*
X138541985Y-31033483D01*
X138541985Y-31033483D02*
X138446747Y-30985864D01*
X138446747Y-30985864D02*
X138256271Y-30985864D01*
X138256271Y-30985864D02*
X138161033Y-31033483D01*
X138589604Y-31604912D02*
X138494366Y-31652531D01*
X138494366Y-31652531D02*
X138256271Y-31652531D01*
X138256271Y-31652531D02*
X138161033Y-31604912D01*
X138161033Y-31604912D02*
X138113414Y-31509673D01*
X138113414Y-31509673D02*
X138113414Y-31414435D01*
X138113414Y-31414435D02*
X138161033Y-31319197D01*
X138161033Y-31319197D02*
X138256271Y-31271578D01*
X138256271Y-31271578D02*
X138494366Y-31271578D01*
X138494366Y-31271578D02*
X138589604Y-31223959D01*
X139065795Y-30985864D02*
X139065795Y-31652531D01*
X139065795Y-31081102D02*
X139113414Y-31033483D01*
X139113414Y-31033483D02*
X139208652Y-30985864D01*
X139208652Y-30985864D02*
X139351509Y-30985864D01*
X139351509Y-30985864D02*
X139446747Y-31033483D01*
X139446747Y-31033483D02*
X139494366Y-31128721D01*
X139494366Y-31128721D02*
X139494366Y-31652531D01*
X139827700Y-30985864D02*
X140208652Y-30985864D01*
X139970557Y-30652531D02*
X139970557Y-31509673D01*
X139970557Y-31509673D02*
X140018176Y-31604912D01*
X140018176Y-31604912D02*
X140113414Y-31652531D01*
X140113414Y-31652531D02*
X140208652Y-31652531D01*
X140446748Y-32033483D02*
X140494367Y-31985864D01*
X140494367Y-31985864D02*
X140589605Y-31843007D01*
X140589605Y-31843007D02*
X140637224Y-31747769D01*
X140637224Y-31747769D02*
X140684843Y-31604912D01*
X140684843Y-31604912D02*
X140732462Y-31366816D01*
X140732462Y-31366816D02*
X140732462Y-31176340D01*
X140732462Y-31176340D02*
X140684843Y-30938245D01*
X140684843Y-30938245D02*
X140637224Y-30795388D01*
X140637224Y-30795388D02*
X140589605Y-30700150D01*
X140589605Y-30700150D02*
X140494367Y-30557292D01*
X140494367Y-30557292D02*
X140446748Y-30509673D01*
X100303884Y-32738665D02*
X100637217Y-32738665D01*
X100780074Y-33262475D02*
X100303884Y-33262475D01*
X100303884Y-33262475D02*
X100303884Y-32262475D01*
X100303884Y-32262475D02*
X100780074Y-32262475D01*
X101351503Y-33262475D02*
X101256265Y-33214856D01*
X101256265Y-33214856D02*
X101208646Y-33119617D01*
X101208646Y-33119617D02*
X101208646Y-32262475D01*
X101732456Y-33262475D02*
X101732456Y-32595808D01*
X101732456Y-32262475D02*
X101684837Y-32310094D01*
X101684837Y-32310094D02*
X101732456Y-32357713D01*
X101732456Y-32357713D02*
X101780075Y-32310094D01*
X101780075Y-32310094D02*
X101732456Y-32262475D01*
X101732456Y-32262475D02*
X101732456Y-32357713D01*
X102113408Y-32595808D02*
X102637217Y-32595808D01*
X102637217Y-32595808D02*
X102113408Y-33262475D01*
X102113408Y-33262475D02*
X102637217Y-33262475D01*
X103446741Y-33262475D02*
X103446741Y-32738665D01*
X103446741Y-32738665D02*
X103399122Y-32643427D01*
X103399122Y-32643427D02*
X103303884Y-32595808D01*
X103303884Y-32595808D02*
X103113408Y-32595808D01*
X103113408Y-32595808D02*
X103018170Y-32643427D01*
X103446741Y-33214856D02*
X103351503Y-33262475D01*
X103351503Y-33262475D02*
X103113408Y-33262475D01*
X103113408Y-33262475D02*
X103018170Y-33214856D01*
X103018170Y-33214856D02*
X102970551Y-33119617D01*
X102970551Y-33119617D02*
X102970551Y-33024379D01*
X102970551Y-33024379D02*
X103018170Y-32929141D01*
X103018170Y-32929141D02*
X103113408Y-32881522D01*
X103113408Y-32881522D02*
X103351503Y-32881522D01*
X103351503Y-32881522D02*
X103446741Y-32833903D01*
X103922932Y-33262475D02*
X103922932Y-32262475D01*
X103922932Y-32643427D02*
X104018170Y-32595808D01*
X104018170Y-32595808D02*
X104208646Y-32595808D01*
X104208646Y-32595808D02*
X104303884Y-32643427D01*
X104303884Y-32643427D02*
X104351503Y-32691046D01*
X104351503Y-32691046D02*
X104399122Y-32786284D01*
X104399122Y-32786284D02*
X104399122Y-33071998D01*
X104399122Y-33071998D02*
X104351503Y-33167236D01*
X104351503Y-33167236D02*
X104303884Y-33214856D01*
X104303884Y-33214856D02*
X104208646Y-33262475D01*
X104208646Y-33262475D02*
X104018170Y-33262475D01*
X104018170Y-33262475D02*
X103922932Y-33214856D01*
X105208646Y-33214856D02*
X105113408Y-33262475D01*
X105113408Y-33262475D02*
X104922932Y-33262475D01*
X104922932Y-33262475D02*
X104827694Y-33214856D01*
X104827694Y-33214856D02*
X104780075Y-33119617D01*
X104780075Y-33119617D02*
X104780075Y-32738665D01*
X104780075Y-32738665D02*
X104827694Y-32643427D01*
X104827694Y-32643427D02*
X104922932Y-32595808D01*
X104922932Y-32595808D02*
X105113408Y-32595808D01*
X105113408Y-32595808D02*
X105208646Y-32643427D01*
X105208646Y-32643427D02*
X105256265Y-32738665D01*
X105256265Y-32738665D02*
X105256265Y-32833903D01*
X105256265Y-32833903D02*
X104780075Y-32929141D01*
X105541980Y-32595808D02*
X105922932Y-32595808D01*
X105684837Y-32262475D02*
X105684837Y-33119617D01*
X105684837Y-33119617D02*
X105732456Y-33214856D01*
X105732456Y-33214856D02*
X105827694Y-33262475D01*
X105827694Y-33262475D02*
X105922932Y-33262475D01*
X106256266Y-33262475D02*
X106256266Y-32262475D01*
X106684837Y-33262475D02*
X106684837Y-32738665D01*
X106684837Y-32738665D02*
X106637218Y-32643427D01*
X106637218Y-32643427D02*
X106541980Y-32595808D01*
X106541980Y-32595808D02*
X106399123Y-32595808D01*
X106399123Y-32595808D02*
X106303885Y-32643427D01*
X106303885Y-32643427D02*
X106256266Y-32691046D01*
X107208647Y-33214856D02*
X107208647Y-33262475D01*
X107208647Y-33262475D02*
X107161028Y-33357713D01*
X107161028Y-33357713D02*
X107113409Y-33405332D01*
X108399123Y-33262475D02*
X108399123Y-32262475D01*
X108399123Y-32262475D02*
X108732456Y-32976760D01*
X108732456Y-32976760D02*
X109065789Y-32262475D01*
X109065789Y-32262475D02*
X109065789Y-33262475D01*
X109922932Y-33214856D02*
X109827694Y-33262475D01*
X109827694Y-33262475D02*
X109637218Y-33262475D01*
X109637218Y-33262475D02*
X109541980Y-33214856D01*
X109541980Y-33214856D02*
X109494361Y-33119617D01*
X109494361Y-33119617D02*
X109494361Y-32738665D01*
X109494361Y-32738665D02*
X109541980Y-32643427D01*
X109541980Y-32643427D02*
X109637218Y-32595808D01*
X109637218Y-32595808D02*
X109827694Y-32595808D01*
X109827694Y-32595808D02*
X109922932Y-32643427D01*
X109922932Y-32643427D02*
X109970551Y-32738665D01*
X109970551Y-32738665D02*
X109970551Y-32833903D01*
X109970551Y-32833903D02*
X109494361Y-32929141D01*
X110541980Y-33262475D02*
X110446742Y-33214856D01*
X110446742Y-33214856D02*
X110399123Y-33119617D01*
X110399123Y-33119617D02*
X110399123Y-32262475D01*
X110922933Y-33262475D02*
X110922933Y-32595808D01*
X110922933Y-32262475D02*
X110875314Y-32310094D01*
X110875314Y-32310094D02*
X110922933Y-32357713D01*
X110922933Y-32357713D02*
X110970552Y-32310094D01*
X110970552Y-32310094D02*
X110922933Y-32262475D01*
X110922933Y-32262475D02*
X110922933Y-32357713D01*
X111351504Y-33214856D02*
X111446742Y-33262475D01*
X111446742Y-33262475D02*
X111637218Y-33262475D01*
X111637218Y-33262475D02*
X111732456Y-33214856D01*
X111732456Y-33214856D02*
X111780075Y-33119617D01*
X111780075Y-33119617D02*
X111780075Y-33071998D01*
X111780075Y-33071998D02*
X111732456Y-32976760D01*
X111732456Y-32976760D02*
X111637218Y-32929141D01*
X111637218Y-32929141D02*
X111494361Y-32929141D01*
X111494361Y-32929141D02*
X111399123Y-32881522D01*
X111399123Y-32881522D02*
X111351504Y-32786284D01*
X111351504Y-32786284D02*
X111351504Y-32738665D01*
X111351504Y-32738665D02*
X111399123Y-32643427D01*
X111399123Y-32643427D02*
X111494361Y-32595808D01*
X111494361Y-32595808D02*
X111637218Y-32595808D01*
X111637218Y-32595808D02*
X111732456Y-32643427D01*
X112161028Y-33214856D02*
X112256266Y-33262475D01*
X112256266Y-33262475D02*
X112446742Y-33262475D01*
X112446742Y-33262475D02*
X112541980Y-33214856D01*
X112541980Y-33214856D02*
X112589599Y-33119617D01*
X112589599Y-33119617D02*
X112589599Y-33071998D01*
X112589599Y-33071998D02*
X112541980Y-32976760D01*
X112541980Y-32976760D02*
X112446742Y-32929141D01*
X112446742Y-32929141D02*
X112303885Y-32929141D01*
X112303885Y-32929141D02*
X112208647Y-32881522D01*
X112208647Y-32881522D02*
X112161028Y-32786284D01*
X112161028Y-32786284D02*
X112161028Y-32738665D01*
X112161028Y-32738665D02*
X112208647Y-32643427D01*
X112208647Y-32643427D02*
X112303885Y-32595808D01*
X112303885Y-32595808D02*
X112446742Y-32595808D01*
X112446742Y-32595808D02*
X112541980Y-32643427D01*
X113446742Y-33262475D02*
X113446742Y-32738665D01*
X113446742Y-32738665D02*
X113399123Y-32643427D01*
X113399123Y-32643427D02*
X113303885Y-32595808D01*
X113303885Y-32595808D02*
X113113409Y-32595808D01*
X113113409Y-32595808D02*
X113018171Y-32643427D01*
X113446742Y-33214856D02*
X113351504Y-33262475D01*
X113351504Y-33262475D02*
X113113409Y-33262475D01*
X113113409Y-33262475D02*
X113018171Y-33214856D01*
X113018171Y-33214856D02*
X112970552Y-33119617D01*
X112970552Y-33119617D02*
X112970552Y-33024379D01*
X112970552Y-33024379D02*
X113018171Y-32929141D01*
X113018171Y-32929141D02*
X113113409Y-32881522D01*
X113113409Y-32881522D02*
X113351504Y-32881522D01*
X113351504Y-32881522D02*
X113446742Y-32833903D01*
X113970552Y-33214856D02*
X113970552Y-33262475D01*
X113970552Y-33262475D02*
X113922933Y-33357713D01*
X113922933Y-33357713D02*
X113875314Y-33405332D01*
X115161028Y-33262475D02*
X115161028Y-32262475D01*
X115161028Y-32262475D02*
X115399123Y-32262475D01*
X115399123Y-32262475D02*
X115541980Y-32310094D01*
X115541980Y-32310094D02*
X115637218Y-32405332D01*
X115637218Y-32405332D02*
X115684837Y-32500570D01*
X115684837Y-32500570D02*
X115732456Y-32691046D01*
X115732456Y-32691046D02*
X115732456Y-32833903D01*
X115732456Y-32833903D02*
X115684837Y-33024379D01*
X115684837Y-33024379D02*
X115637218Y-33119617D01*
X115637218Y-33119617D02*
X115541980Y-33214856D01*
X115541980Y-33214856D02*
X115399123Y-33262475D01*
X115399123Y-33262475D02*
X115161028Y-33262475D01*
X116161028Y-33262475D02*
X116161028Y-32595808D01*
X116161028Y-32262475D02*
X116113409Y-32310094D01*
X116113409Y-32310094D02*
X116161028Y-32357713D01*
X116161028Y-32357713D02*
X116208647Y-32310094D01*
X116208647Y-32310094D02*
X116161028Y-32262475D01*
X116161028Y-32262475D02*
X116161028Y-32357713D01*
X117065789Y-33262475D02*
X117065789Y-32738665D01*
X117065789Y-32738665D02*
X117018170Y-32643427D01*
X117018170Y-32643427D02*
X116922932Y-32595808D01*
X116922932Y-32595808D02*
X116732456Y-32595808D01*
X116732456Y-32595808D02*
X116637218Y-32643427D01*
X117065789Y-33214856D02*
X116970551Y-33262475D01*
X116970551Y-33262475D02*
X116732456Y-33262475D01*
X116732456Y-33262475D02*
X116637218Y-33214856D01*
X116637218Y-33214856D02*
X116589599Y-33119617D01*
X116589599Y-33119617D02*
X116589599Y-33024379D01*
X116589599Y-33024379D02*
X116637218Y-32929141D01*
X116637218Y-32929141D02*
X116732456Y-32881522D01*
X116732456Y-32881522D02*
X116970551Y-32881522D01*
X116970551Y-32881522D02*
X117065789Y-32833903D01*
X117541980Y-32595808D02*
X117541980Y-33262475D01*
X117541980Y-32691046D02*
X117589599Y-32643427D01*
X117589599Y-32643427D02*
X117684837Y-32595808D01*
X117684837Y-32595808D02*
X117827694Y-32595808D01*
X117827694Y-32595808D02*
X117922932Y-32643427D01*
X117922932Y-32643427D02*
X117970551Y-32738665D01*
X117970551Y-32738665D02*
X117970551Y-33262475D01*
X118875313Y-33262475D02*
X118875313Y-32738665D01*
X118875313Y-32738665D02*
X118827694Y-32643427D01*
X118827694Y-32643427D02*
X118732456Y-32595808D01*
X118732456Y-32595808D02*
X118541980Y-32595808D01*
X118541980Y-32595808D02*
X118446742Y-32643427D01*
X118875313Y-33214856D02*
X118780075Y-33262475D01*
X118780075Y-33262475D02*
X118541980Y-33262475D01*
X118541980Y-33262475D02*
X118446742Y-33214856D01*
X118446742Y-33214856D02*
X118399123Y-33119617D01*
X118399123Y-33119617D02*
X118399123Y-33024379D01*
X118399123Y-33024379D02*
X118446742Y-32929141D01*
X118446742Y-32929141D02*
X118541980Y-32881522D01*
X118541980Y-32881522D02*
X118780075Y-32881522D01*
X118780075Y-32881522D02*
X118875313Y-32833903D01*
X119399123Y-33214856D02*
X119399123Y-33262475D01*
X119399123Y-33262475D02*
X119351504Y-33357713D01*
X119351504Y-33357713D02*
X119303885Y-33405332D01*
X120446742Y-32262475D02*
X121018170Y-32262475D01*
X120732456Y-33262475D02*
X120732456Y-32262475D01*
X121494361Y-33262475D02*
X121399123Y-33214856D01*
X121399123Y-33214856D02*
X121351504Y-33167236D01*
X121351504Y-33167236D02*
X121303885Y-33071998D01*
X121303885Y-33071998D02*
X121303885Y-32786284D01*
X121303885Y-32786284D02*
X121351504Y-32691046D01*
X121351504Y-32691046D02*
X121399123Y-32643427D01*
X121399123Y-32643427D02*
X121494361Y-32595808D01*
X121494361Y-32595808D02*
X121637218Y-32595808D01*
X121637218Y-32595808D02*
X121732456Y-32643427D01*
X121732456Y-32643427D02*
X121780075Y-32691046D01*
X121780075Y-32691046D02*
X121827694Y-32786284D01*
X121827694Y-32786284D02*
X121827694Y-33071998D01*
X121827694Y-33071998D02*
X121780075Y-33167236D01*
X121780075Y-33167236D02*
X121732456Y-33214856D01*
X121732456Y-33214856D02*
X121637218Y-33262475D01*
X121637218Y-33262475D02*
X121494361Y-33262475D01*
X122256266Y-33262475D02*
X122256266Y-32595808D01*
X122256266Y-32691046D02*
X122303885Y-32643427D01*
X122303885Y-32643427D02*
X122399123Y-32595808D01*
X122399123Y-32595808D02*
X122541980Y-32595808D01*
X122541980Y-32595808D02*
X122637218Y-32643427D01*
X122637218Y-32643427D02*
X122684837Y-32738665D01*
X122684837Y-32738665D02*
X122684837Y-33262475D01*
X122684837Y-32738665D02*
X122732456Y-32643427D01*
X122732456Y-32643427D02*
X122827694Y-32595808D01*
X122827694Y-32595808D02*
X122970551Y-32595808D01*
X122970551Y-32595808D02*
X123065790Y-32643427D01*
X123065790Y-32643427D02*
X123113409Y-32738665D01*
X123113409Y-32738665D02*
X123113409Y-33262475D01*
X123589599Y-33262475D02*
X123589599Y-32595808D01*
X123589599Y-32691046D02*
X123637218Y-32643427D01*
X123637218Y-32643427D02*
X123732456Y-32595808D01*
X123732456Y-32595808D02*
X123875313Y-32595808D01*
X123875313Y-32595808D02*
X123970551Y-32643427D01*
X123970551Y-32643427D02*
X124018170Y-32738665D01*
X124018170Y-32738665D02*
X124018170Y-33262475D01*
X124018170Y-32738665D02*
X124065789Y-32643427D01*
X124065789Y-32643427D02*
X124161027Y-32595808D01*
X124161027Y-32595808D02*
X124303884Y-32595808D01*
X124303884Y-32595808D02*
X124399123Y-32643427D01*
X124399123Y-32643427D02*
X124446742Y-32738665D01*
X124446742Y-32738665D02*
X124446742Y-33262475D01*
X124827694Y-32595808D02*
X125065789Y-33262475D01*
X125303884Y-32595808D02*
X125065789Y-33262475D01*
X125065789Y-33262475D02*
X124970551Y-33500570D01*
X124970551Y-33500570D02*
X124922932Y-33548189D01*
X124922932Y-33548189D02*
X124827694Y-33595808D01*
X125732456Y-33214856D02*
X125732456Y-33262475D01*
X125732456Y-33262475D02*
X125684837Y-33357713D01*
X125684837Y-33357713D02*
X125637218Y-33405332D01*
X127256265Y-32738665D02*
X127399122Y-32786284D01*
X127399122Y-32786284D02*
X127446741Y-32833903D01*
X127446741Y-32833903D02*
X127494360Y-32929141D01*
X127494360Y-32929141D02*
X127494360Y-33071998D01*
X127494360Y-33071998D02*
X127446741Y-33167236D01*
X127446741Y-33167236D02*
X127399122Y-33214856D01*
X127399122Y-33214856D02*
X127303884Y-33262475D01*
X127303884Y-33262475D02*
X126922932Y-33262475D01*
X126922932Y-33262475D02*
X126922932Y-32262475D01*
X126922932Y-32262475D02*
X127256265Y-32262475D01*
X127256265Y-32262475D02*
X127351503Y-32310094D01*
X127351503Y-32310094D02*
X127399122Y-32357713D01*
X127399122Y-32357713D02*
X127446741Y-32452951D01*
X127446741Y-32452951D02*
X127446741Y-32548189D01*
X127446741Y-32548189D02*
X127399122Y-32643427D01*
X127399122Y-32643427D02*
X127351503Y-32691046D01*
X127351503Y-32691046D02*
X127256265Y-32738665D01*
X127256265Y-32738665D02*
X126922932Y-32738665D01*
X127922932Y-33262475D02*
X127922932Y-32262475D01*
X127922932Y-32643427D02*
X128018170Y-32595808D01*
X128018170Y-32595808D02*
X128208646Y-32595808D01*
X128208646Y-32595808D02*
X128303884Y-32643427D01*
X128303884Y-32643427D02*
X128351503Y-32691046D01*
X128351503Y-32691046D02*
X128399122Y-32786284D01*
X128399122Y-32786284D02*
X128399122Y-33071998D01*
X128399122Y-33071998D02*
X128351503Y-33167236D01*
X128351503Y-33167236D02*
X128303884Y-33214856D01*
X128303884Y-33214856D02*
X128208646Y-33262475D01*
X128208646Y-33262475D02*
X128018170Y-33262475D01*
X128018170Y-33262475D02*
X127922932Y-33214856D01*
X129256265Y-33262475D02*
X129256265Y-32738665D01*
X129256265Y-32738665D02*
X129208646Y-32643427D01*
X129208646Y-32643427D02*
X129113408Y-32595808D01*
X129113408Y-32595808D02*
X128922932Y-32595808D01*
X128922932Y-32595808D02*
X128827694Y-32643427D01*
X129256265Y-33214856D02*
X129161027Y-33262475D01*
X129161027Y-33262475D02*
X128922932Y-33262475D01*
X128922932Y-33262475D02*
X128827694Y-33214856D01*
X128827694Y-33214856D02*
X128780075Y-33119617D01*
X128780075Y-33119617D02*
X128780075Y-33024379D01*
X128780075Y-33024379D02*
X128827694Y-32929141D01*
X128827694Y-32929141D02*
X128922932Y-32881522D01*
X128922932Y-32881522D02*
X129161027Y-32881522D01*
X129161027Y-32881522D02*
X129256265Y-32833903D01*
X129875313Y-33262475D02*
X129780075Y-33214856D01*
X129780075Y-33214856D02*
X129732456Y-33167236D01*
X129732456Y-33167236D02*
X129684837Y-33071998D01*
X129684837Y-33071998D02*
X129684837Y-32786284D01*
X129684837Y-32786284D02*
X129732456Y-32691046D01*
X129732456Y-32691046D02*
X129780075Y-32643427D01*
X129780075Y-32643427D02*
X129875313Y-32595808D01*
X129875313Y-32595808D02*
X130018170Y-32595808D01*
X130018170Y-32595808D02*
X130113408Y-32643427D01*
X130113408Y-32643427D02*
X130161027Y-32691046D01*
X130161027Y-32691046D02*
X130208646Y-32786284D01*
X130208646Y-32786284D02*
X130208646Y-33071998D01*
X130208646Y-33071998D02*
X130161027Y-33167236D01*
X130161027Y-33167236D02*
X130113408Y-33214856D01*
X130113408Y-33214856D02*
X130018170Y-33262475D01*
X130018170Y-33262475D02*
X129875313Y-33262475D01*
X130637218Y-33262475D02*
X130637218Y-32595808D01*
X130637218Y-32786284D02*
X130684837Y-32691046D01*
X130684837Y-32691046D02*
X130732456Y-32643427D01*
X130732456Y-32643427D02*
X130827694Y-32595808D01*
X130827694Y-32595808D02*
X130922932Y-32595808D01*
X132018171Y-33262475D02*
X132018171Y-32262475D01*
X132018171Y-32262475D02*
X132684837Y-32262475D01*
X132684837Y-32262475D02*
X132684837Y-33262475D01*
X132684837Y-33262475D02*
X132018171Y-33262475D01*
X134351504Y-33262475D02*
X134351504Y-32738665D01*
X134351504Y-32738665D02*
X134303885Y-32643427D01*
X134303885Y-32643427D02*
X134208647Y-32595808D01*
X134208647Y-32595808D02*
X134018171Y-32595808D01*
X134018171Y-32595808D02*
X133922933Y-32643427D01*
X134351504Y-33214856D02*
X134256266Y-33262475D01*
X134256266Y-33262475D02*
X134018171Y-33262475D01*
X134018171Y-33262475D02*
X133922933Y-33214856D01*
X133922933Y-33214856D02*
X133875314Y-33119617D01*
X133875314Y-33119617D02*
X133875314Y-33024379D01*
X133875314Y-33024379D02*
X133922933Y-32929141D01*
X133922933Y-32929141D02*
X134018171Y-32881522D01*
X134018171Y-32881522D02*
X134256266Y-32881522D01*
X134256266Y-32881522D02*
X134351504Y-32833903D01*
X134827695Y-32595808D02*
X134827695Y-33262475D01*
X134827695Y-32691046D02*
X134875314Y-32643427D01*
X134875314Y-32643427D02*
X134970552Y-32595808D01*
X134970552Y-32595808D02*
X135113409Y-32595808D01*
X135113409Y-32595808D02*
X135208647Y-32643427D01*
X135208647Y-32643427D02*
X135256266Y-32738665D01*
X135256266Y-32738665D02*
X135256266Y-33262475D01*
X136161028Y-33262475D02*
X136161028Y-32262475D01*
X136161028Y-33214856D02*
X136065790Y-33262475D01*
X136065790Y-33262475D02*
X135875314Y-33262475D01*
X135875314Y-33262475D02*
X135780076Y-33214856D01*
X135780076Y-33214856D02*
X135732457Y-33167236D01*
X135732457Y-33167236D02*
X135684838Y-33071998D01*
X135684838Y-33071998D02*
X135684838Y-32786284D01*
X135684838Y-32786284D02*
X135732457Y-32691046D01*
X135732457Y-32691046D02*
X135780076Y-32643427D01*
X135780076Y-32643427D02*
X135875314Y-32595808D01*
X135875314Y-32595808D02*
X136065790Y-32595808D01*
X136065790Y-32595808D02*
X136161028Y-32643427D01*
X137399124Y-33262475D02*
X137399124Y-32262475D01*
X137827695Y-33214856D02*
X137922933Y-33262475D01*
X137922933Y-33262475D02*
X138113409Y-33262475D01*
X138113409Y-33262475D02*
X138208647Y-33214856D01*
X138208647Y-33214856D02*
X138256266Y-33119617D01*
X138256266Y-33119617D02*
X138256266Y-33071998D01*
X138256266Y-33071998D02*
X138208647Y-32976760D01*
X138208647Y-32976760D02*
X138113409Y-32929141D01*
X138113409Y-32929141D02*
X137970552Y-32929141D01*
X137970552Y-32929141D02*
X137875314Y-32881522D01*
X137875314Y-32881522D02*
X137827695Y-32786284D01*
X137827695Y-32786284D02*
X137827695Y-32738665D01*
X137827695Y-32738665D02*
X137875314Y-32643427D01*
X137875314Y-32643427D02*
X137970552Y-32595808D01*
X137970552Y-32595808D02*
X138113409Y-32595808D01*
X138113409Y-32595808D02*
X138208647Y-32643427D01*
X139113409Y-32595808D02*
X139113409Y-33262475D01*
X138684838Y-32595808D02*
X138684838Y-33119617D01*
X138684838Y-33119617D02*
X138732457Y-33214856D01*
X138732457Y-33214856D02*
X138827695Y-33262475D01*
X138827695Y-33262475D02*
X138970552Y-33262475D01*
X138970552Y-33262475D02*
X139065790Y-33214856D01*
X139065790Y-33214856D02*
X139113409Y-33167236D01*
X139589600Y-33262475D02*
X139589600Y-32595808D01*
X139589600Y-32786284D02*
X139637219Y-32691046D01*
X139637219Y-32691046D02*
X139684838Y-32643427D01*
X139684838Y-32643427D02*
X139780076Y-32595808D01*
X139780076Y-32595808D02*
X139875314Y-32595808D01*
X140637219Y-32595808D02*
X140637219Y-33262475D01*
X140208648Y-32595808D02*
X140208648Y-33119617D01*
X140208648Y-33119617D02*
X140256267Y-33214856D01*
X140256267Y-33214856D02*
X140351505Y-33262475D01*
X140351505Y-33262475D02*
X140494362Y-33262475D01*
X140494362Y-33262475D02*
X140589600Y-33214856D01*
X140589600Y-33214856D02*
X140637219Y-33167236D01*
X100256265Y-34586704D02*
X100732455Y-34586704D01*
X100161027Y-34872419D02*
X100494360Y-33872419D01*
X100494360Y-33872419D02*
X100827693Y-34872419D01*
X101589598Y-34872419D02*
X101589598Y-33872419D01*
X101589598Y-34824800D02*
X101494360Y-34872419D01*
X101494360Y-34872419D02*
X101303884Y-34872419D01*
X101303884Y-34872419D02*
X101208646Y-34824800D01*
X101208646Y-34824800D02*
X101161027Y-34777180D01*
X101161027Y-34777180D02*
X101113408Y-34681942D01*
X101113408Y-34681942D02*
X101113408Y-34396228D01*
X101113408Y-34396228D02*
X101161027Y-34300990D01*
X101161027Y-34300990D02*
X101208646Y-34253371D01*
X101208646Y-34253371D02*
X101303884Y-34205752D01*
X101303884Y-34205752D02*
X101494360Y-34205752D01*
X101494360Y-34205752D02*
X101589598Y-34253371D01*
X101970551Y-34205752D02*
X102208646Y-34872419D01*
X102208646Y-34872419D02*
X102446741Y-34205752D01*
X102827694Y-34872419D02*
X102827694Y-34205752D01*
X102827694Y-33872419D02*
X102780075Y-33920038D01*
X102780075Y-33920038D02*
X102827694Y-33967657D01*
X102827694Y-33967657D02*
X102875313Y-33920038D01*
X102875313Y-33920038D02*
X102827694Y-33872419D01*
X102827694Y-33872419D02*
X102827694Y-33967657D01*
X103256265Y-34824800D02*
X103351503Y-34872419D01*
X103351503Y-34872419D02*
X103541979Y-34872419D01*
X103541979Y-34872419D02*
X103637217Y-34824800D01*
X103637217Y-34824800D02*
X103684836Y-34729561D01*
X103684836Y-34729561D02*
X103684836Y-34681942D01*
X103684836Y-34681942D02*
X103637217Y-34586704D01*
X103637217Y-34586704D02*
X103541979Y-34539085D01*
X103541979Y-34539085D02*
X103399122Y-34539085D01*
X103399122Y-34539085D02*
X103303884Y-34491466D01*
X103303884Y-34491466D02*
X103256265Y-34396228D01*
X103256265Y-34396228D02*
X103256265Y-34348609D01*
X103256265Y-34348609D02*
X103303884Y-34253371D01*
X103303884Y-34253371D02*
X103399122Y-34205752D01*
X103399122Y-34205752D02*
X103541979Y-34205752D01*
X103541979Y-34205752D02*
X103637217Y-34253371D01*
X104256265Y-34872419D02*
X104161027Y-34824800D01*
X104161027Y-34824800D02*
X104113408Y-34777180D01*
X104113408Y-34777180D02*
X104065789Y-34681942D01*
X104065789Y-34681942D02*
X104065789Y-34396228D01*
X104065789Y-34396228D02*
X104113408Y-34300990D01*
X104113408Y-34300990D02*
X104161027Y-34253371D01*
X104161027Y-34253371D02*
X104256265Y-34205752D01*
X104256265Y-34205752D02*
X104399122Y-34205752D01*
X104399122Y-34205752D02*
X104494360Y-34253371D01*
X104494360Y-34253371D02*
X104541979Y-34300990D01*
X104541979Y-34300990D02*
X104589598Y-34396228D01*
X104589598Y-34396228D02*
X104589598Y-34681942D01*
X104589598Y-34681942D02*
X104541979Y-34777180D01*
X104541979Y-34777180D02*
X104494360Y-34824800D01*
X104494360Y-34824800D02*
X104399122Y-34872419D01*
X104399122Y-34872419D02*
X104256265Y-34872419D01*
X105018170Y-34872419D02*
X105018170Y-34205752D01*
X105018170Y-34396228D02*
X105065789Y-34300990D01*
X105065789Y-34300990D02*
X105113408Y-34253371D01*
X105113408Y-34253371D02*
X105208646Y-34205752D01*
X105208646Y-34205752D02*
X105303884Y-34205752D01*
X106589599Y-34396228D02*
X106589599Y-34872419D01*
X106256266Y-33872419D02*
X106589599Y-34396228D01*
X106589599Y-34396228D02*
X106922932Y-33872419D01*
X107827694Y-34777180D02*
X107780075Y-34824800D01*
X107780075Y-34824800D02*
X107637218Y-34872419D01*
X107637218Y-34872419D02*
X107541980Y-34872419D01*
X107541980Y-34872419D02*
X107399123Y-34824800D01*
X107399123Y-34824800D02*
X107303885Y-34729561D01*
X107303885Y-34729561D02*
X107256266Y-34634323D01*
X107256266Y-34634323D02*
X107208647Y-34443847D01*
X107208647Y-34443847D02*
X107208647Y-34300990D01*
X107208647Y-34300990D02*
X107256266Y-34110514D01*
X107256266Y-34110514D02*
X107303885Y-34015276D01*
X107303885Y-34015276D02*
X107399123Y-33920038D01*
X107399123Y-33920038D02*
X107541980Y-33872419D01*
X107541980Y-33872419D02*
X107637218Y-33872419D01*
X107637218Y-33872419D02*
X107780075Y-33920038D01*
X107780075Y-33920038D02*
X107827694Y-33967657D01*
X108161028Y-33872419D02*
X108399123Y-34872419D01*
X108399123Y-34872419D02*
X108589599Y-34158133D01*
X108589599Y-34158133D02*
X108780075Y-34872419D01*
X108780075Y-34872419D02*
X109018171Y-33872419D01*
D11*
X113666666Y-70104819D02*
X113333333Y-69628628D01*
X113095238Y-70104819D02*
X113095238Y-69104819D01*
X113095238Y-69104819D02*
X113476190Y-69104819D01*
X113476190Y-69104819D02*
X113571428Y-69152438D01*
X113571428Y-69152438D02*
X113619047Y-69200057D01*
X113619047Y-69200057D02*
X113666666Y-69295295D01*
X113666666Y-69295295D02*
X113666666Y-69438152D01*
X113666666Y-69438152D02*
X113619047Y-69533390D01*
X113619047Y-69533390D02*
X113571428Y-69581009D01*
X113571428Y-69581009D02*
X113476190Y-69628628D01*
X113476190Y-69628628D02*
X113095238Y-69628628D01*
X114095238Y-69581009D02*
X114428571Y-69581009D01*
X114571428Y-70104819D02*
X114095238Y-70104819D01*
X114095238Y-70104819D02*
X114095238Y-69104819D01*
X114095238Y-69104819D02*
X114571428Y-69104819D01*
X115333333Y-69581009D02*
X115000000Y-69581009D01*
X115000000Y-70104819D02*
X115000000Y-69104819D01*
X115000000Y-69104819D02*
X115476190Y-69104819D01*
X116000000Y-69104819D02*
X116000000Y-69342914D01*
X115761905Y-69247676D02*
X116000000Y-69342914D01*
X116000000Y-69342914D02*
X116238095Y-69247676D01*
X115857143Y-69533390D02*
X116000000Y-69342914D01*
X116000000Y-69342914D02*
X116142857Y-69533390D01*
X116761905Y-69104819D02*
X116761905Y-69342914D01*
X116523810Y-69247676D02*
X116761905Y-69342914D01*
X116761905Y-69342914D02*
X117000000Y-69247676D01*
X116619048Y-69533390D02*
X116761905Y-69342914D01*
X116761905Y-69342914D02*
X116904762Y-69533390D01*
X114426666Y-37724819D02*
X114426666Y-38439104D01*
X114426666Y-38439104D02*
X114379047Y-38581961D01*
X114379047Y-38581961D02*
X114283809Y-38677200D01*
X114283809Y-38677200D02*
X114140952Y-38724819D01*
X114140952Y-38724819D02*
X114045714Y-38724819D01*
X114855238Y-37820057D02*
X114902857Y-37772438D01*
X114902857Y-37772438D02*
X114998095Y-37724819D01*
X114998095Y-37724819D02*
X115236190Y-37724819D01*
X115236190Y-37724819D02*
X115331428Y-37772438D01*
X115331428Y-37772438D02*
X115379047Y-37820057D01*
X115379047Y-37820057D02*
X115426666Y-37915295D01*
X115426666Y-37915295D02*
X115426666Y-38010533D01*
X115426666Y-38010533D02*
X115379047Y-38153390D01*
X115379047Y-38153390D02*
X114807619Y-38724819D01*
X114807619Y-38724819D02*
X115426666Y-38724819D01*
X135296666Y-96904819D02*
X135296666Y-97619104D01*
X135296666Y-97619104D02*
X135249047Y-97761961D01*
X135249047Y-97761961D02*
X135153809Y-97857200D01*
X135153809Y-97857200D02*
X135010952Y-97904819D01*
X135010952Y-97904819D02*
X134915714Y-97904819D01*
X136296666Y-97904819D02*
X135725238Y-97904819D01*
X136010952Y-97904819D02*
X136010952Y-96904819D01*
X136010952Y-96904819D02*
X135915714Y-97047676D01*
X135915714Y-97047676D02*
X135820476Y-97142914D01*
X135820476Y-97142914D02*
X135725238Y-97190533D01*
X78546666Y-80174819D02*
X78546666Y-80889104D01*
X78546666Y-80889104D02*
X78499047Y-81031961D01*
X78499047Y-81031961D02*
X78403809Y-81127200D01*
X78403809Y-81127200D02*
X78260952Y-81174819D01*
X78260952Y-81174819D02*
X78165714Y-81174819D01*
X79451428Y-80508152D02*
X79451428Y-81174819D01*
X79213333Y-80127200D02*
X78975238Y-80841485D01*
X78975238Y-80841485D02*
X79594285Y-80841485D01*
X98046666Y-77644819D02*
X98046666Y-78359104D01*
X98046666Y-78359104D02*
X97999047Y-78501961D01*
X97999047Y-78501961D02*
X97903809Y-78597200D01*
X97903809Y-78597200D02*
X97760952Y-78644819D01*
X97760952Y-78644819D02*
X97665714Y-78644819D01*
X98951428Y-77644819D02*
X98760952Y-77644819D01*
X98760952Y-77644819D02*
X98665714Y-77692438D01*
X98665714Y-77692438D02*
X98618095Y-77740057D01*
X98618095Y-77740057D02*
X98522857Y-77882914D01*
X98522857Y-77882914D02*
X98475238Y-78073390D01*
X98475238Y-78073390D02*
X98475238Y-78454342D01*
X98475238Y-78454342D02*
X98522857Y-78549580D01*
X98522857Y-78549580D02*
X98570476Y-78597200D01*
X98570476Y-78597200D02*
X98665714Y-78644819D01*
X98665714Y-78644819D02*
X98856190Y-78644819D01*
X98856190Y-78644819D02*
X98951428Y-78597200D01*
X98951428Y-78597200D02*
X98999047Y-78549580D01*
X98999047Y-78549580D02*
X99046666Y-78454342D01*
X99046666Y-78454342D02*
X99046666Y-78216247D01*
X99046666Y-78216247D02*
X98999047Y-78121009D01*
X98999047Y-78121009D02*
X98951428Y-78073390D01*
X98951428Y-78073390D02*
X98856190Y-78025771D01*
X98856190Y-78025771D02*
X98665714Y-78025771D01*
X98665714Y-78025771D02*
X98570476Y-78073390D01*
X98570476Y-78073390D02*
X98522857Y-78121009D01*
X98522857Y-78121009D02*
X98475238Y-78216247D01*
X135046666Y-45644819D02*
X135046666Y-46359104D01*
X135046666Y-46359104D02*
X134999047Y-46501961D01*
X134999047Y-46501961D02*
X134903809Y-46597200D01*
X134903809Y-46597200D02*
X134760952Y-46644819D01*
X134760952Y-46644819D02*
X134665714Y-46644819D01*
X135999047Y-45644819D02*
X135522857Y-45644819D01*
X135522857Y-45644819D02*
X135475238Y-46121009D01*
X135475238Y-46121009D02*
X135522857Y-46073390D01*
X135522857Y-46073390D02*
X135618095Y-46025771D01*
X135618095Y-46025771D02*
X135856190Y-46025771D01*
X135856190Y-46025771D02*
X135951428Y-46073390D01*
X135951428Y-46073390D02*
X135999047Y-46121009D01*
X135999047Y-46121009D02*
X136046666Y-46216247D01*
X136046666Y-46216247D02*
X136046666Y-46454342D01*
X136046666Y-46454342D02*
X135999047Y-46549580D01*
X135999047Y-46549580D02*
X135951428Y-46597200D01*
X135951428Y-46597200D02*
X135856190Y-46644819D01*
X135856190Y-46644819D02*
X135618095Y-46644819D01*
X135618095Y-46644819D02*
X135522857Y-46597200D01*
X135522857Y-46597200D02*
X135475238Y-46549580D01*
D12*
%TO.C,J2*%
X105890000Y-100190000D02*
X123629999Y-100190000D01*
X123629999Y-100190000D02*
X123630000Y-39270000D01*
X111803334Y-39630000D02*
X111803334Y-39270000D01*
X117716666Y-39630000D02*
X111803334Y-39630000D01*
X105890001Y-39270000D02*
X105890000Y-100190000D01*
X111803334Y-39270000D02*
X105890001Y-39270000D01*
X117716666Y-39270000D02*
X117716666Y-39630000D01*
X123630000Y-39270000D02*
X117716666Y-39270000D01*
%TO.C,J3*%
X86350000Y-90330000D02*
X65970000Y-90330000D01*
X88950000Y-90330000D02*
X87620000Y-90330000D01*
X88950000Y-89000000D02*
X88950000Y-90330000D01*
X65970000Y-87670000D02*
X65970000Y-90330000D01*
X86350000Y-87670000D02*
X86350000Y-90330000D01*
X86350000Y-87670000D02*
X65970000Y-87670000D01*
%TO.C,J1*%
X134630000Y-89750000D02*
G75*
G02*
X133130353Y-89750156I-750000J1700000D01*
G01*
X138130000Y-89750000D02*
G75*
G02*
X136630353Y-89750156I-750000J1700000D01*
G01*
X131320000Y-88890000D02*
X131320000Y-96360000D01*
X131320000Y-96360000D02*
X139940000Y-96360000D01*
X132380000Y-89750000D02*
X133130000Y-89750000D01*
X132380000Y-94050000D02*
X132380000Y-89750000D01*
X132380000Y-95400000D02*
X132630000Y-94400000D01*
X132630000Y-94400000D02*
X133130000Y-94400000D01*
X133130000Y-94050000D02*
X132380000Y-94050000D01*
X133130000Y-94400000D02*
X133130000Y-94050000D01*
X134630000Y-89750000D02*
X135380000Y-89750000D01*
X134630000Y-94050000D02*
X134630000Y-94400000D01*
X134630000Y-94400000D02*
X135130000Y-94400000D01*
X135130000Y-94400000D02*
X135380000Y-95400000D01*
X135380000Y-89750000D02*
X135380000Y-94050000D01*
X135380000Y-94050000D02*
X134630000Y-94050000D01*
X135380000Y-95400000D02*
X132380000Y-95400000D01*
X135880000Y-89750000D02*
X136630000Y-89750000D01*
X135880000Y-94050000D02*
X135880000Y-89750000D01*
X135880000Y-95400000D02*
X136130000Y-94400000D01*
X136130000Y-94400000D02*
X136630000Y-94400000D01*
X136630000Y-94050000D02*
X135880000Y-94050000D01*
X136630000Y-94400000D02*
X136630000Y-94050000D01*
X138130000Y-89750000D02*
X138880000Y-89750000D01*
X138130000Y-94050000D02*
X138130000Y-94400000D01*
X138130000Y-94400000D02*
X138630000Y-94400000D01*
X138630000Y-94400000D02*
X138880000Y-95400000D01*
X138880000Y-89750000D02*
X138880000Y-94050000D01*
X138880000Y-94050000D02*
X138130000Y-94050000D01*
X138880000Y-95400000D02*
X135880000Y-95400000D01*
X139940000Y-88890000D02*
X131320000Y-88890000D01*
X139940000Y-96360000D02*
X139940000Y-88890000D01*
X140330000Y-95500000D02*
X140330000Y-96750000D01*
X140330000Y-96750000D02*
X138330000Y-96750000D01*
%TO.C,J4*%
X91880000Y-39420000D02*
X65880001Y-39420000D01*
X65880001Y-39420000D02*
X65880000Y-79720000D01*
X83213333Y-79360000D02*
X83213333Y-79720000D01*
X74546667Y-79360000D02*
X83213333Y-79360000D01*
X91879999Y-79720000D02*
X91880000Y-39420000D01*
X83213333Y-79720000D02*
X91879999Y-79720000D01*
X74546667Y-79720000D02*
X74546667Y-79360000D01*
X65880000Y-79720000D02*
X74546667Y-79720000D01*
%TO.C,J6*%
X99710000Y-81790000D02*
X99710000Y-99630000D01*
X97050000Y-99630000D02*
X99710000Y-99630000D01*
X97050000Y-81790000D02*
X99710000Y-81790000D01*
X97050000Y-81790000D02*
X97050000Y-99630000D01*
X97050000Y-80520000D02*
X97050000Y-79190000D01*
X97050000Y-79190000D02*
X98380000Y-79190000D01*
%TO.C,J5*%
X136710000Y-49790000D02*
X136710000Y-67630000D01*
X134050000Y-67630000D02*
X136710000Y-67630000D01*
X134050000Y-49790000D02*
X136710000Y-49790000D01*
X134050000Y-49790000D02*
X134050000Y-67630000D01*
X134050000Y-48520000D02*
X134050000Y-47190000D01*
X134050000Y-47190000D02*
X135380000Y-47190000D01*
%TD*%
M02*
