%TF.GenerationSoftware,KiCad,Pcbnew,8.0.3*%
%TF.CreationDate,2024-07-16T20:51:18-07:00*%
%TF.ProjectId,pcb_test,7063625f-7465-4737-942e-6b696361645f,rev?*%
%TF.SameCoordinates,Original*%
%TF.FileFunction,Soldermask,Bot*%
%TF.FilePolarity,Negative*%
%FSLAX46Y46*%
G04 Gerber Fmt 4.6, Leading zero omitted, Abs format (unit mm)*
G04 Created by KiCad (PCBNEW 8.0.3) date 2024-07-16 20:51:18*
%MOMM*%
%LPD*%
G01*
G04 APERTURE LIST*
G04 Aperture macros list*
%AMRoundRect*
0 Rectangle with rounded corners*
0 $1 Rounding radius*
0 $2 $3 $4 $5 $6 $7 $8 $9 X,Y pos of 4 corners*
0 Add a 4 corners polygon primitive as box body*
4,1,4,$2,$3,$4,$5,$6,$7,$8,$9,$2,$3,0*
0 Add four circle primitives for the rounded corners*
1,1,$1+$1,$2,$3*
1,1,$1+$1,$4,$5*
1,1,$1+$1,$6,$7*
1,1,$1+$1,$8,$9*
0 Add four rect primitives between the rounded corners*
20,1,$1+$1,$2,$3,$4,$5,0*
20,1,$1+$1,$4,$5,$6,$7,0*
20,1,$1+$1,$6,$7,$8,$9,0*
20,1,$1+$1,$8,$9,$2,$3,0*%
G04 Aperture macros list end*
%ADD10R,1.700000X1.700000*%
%ADD11O,1.700000X1.700000*%
%ADD12O,2.000000X1.200000*%
%ADD13RoundRect,0.250000X0.650000X1.550000X-0.650000X1.550000X-0.650000X-1.550000X0.650000X-1.550000X0*%
%ADD14O,1.800000X3.600000*%
%ADD15O,2.400000X1.600000*%
%ADD16R,2.400000X1.600000*%
G04 APERTURE END LIST*
D10*
%TO.C,J5*%
X113740000Y-32180000D03*
D11*
X113740000Y-34720000D03*
X113740000Y-37260000D03*
X113740000Y-39800000D03*
X113740000Y-42340000D03*
X113740000Y-44880000D03*
X113740000Y-47420000D03*
X113740000Y-49960000D03*
%TD*%
D12*
%TO.C,J4*%
X71740000Y-68780000D03*
X71740000Y-66240000D03*
X71740000Y-63700000D03*
X71740000Y-61160000D03*
X71740000Y-58620000D03*
X71740000Y-56080000D03*
X71740000Y-53540000D03*
X71740000Y-51000000D03*
X71740000Y-48460000D03*
X71740000Y-45920000D03*
X71740000Y-43380000D03*
X71740000Y-40840000D03*
X71740000Y-38300000D03*
X71740000Y-35760000D03*
X71740000Y-33220000D03*
X71740000Y-30680000D03*
X48740000Y-68780000D03*
X48740000Y-66240000D03*
X48740000Y-63700000D03*
X48740000Y-61160000D03*
X48740000Y-58620000D03*
X48740000Y-56080000D03*
X48740000Y-53540000D03*
X48740000Y-51000000D03*
X48740000Y-48460000D03*
X48740000Y-45920000D03*
X48740000Y-43380000D03*
X48740000Y-40840000D03*
X48740000Y-38300000D03*
X48740000Y-35760000D03*
X48740000Y-33220000D03*
X48740000Y-30680000D03*
%TD*%
D10*
%TO.C,J3*%
X39240000Y-48100000D03*
D11*
X39240000Y-50640000D03*
X39240000Y-53180000D03*
X39240000Y-55720000D03*
X39240000Y-58260000D03*
X39240000Y-60800000D03*
X39240000Y-63340000D03*
X39240000Y-65880000D03*
X39240000Y-68420000D03*
%TD*%
D13*
%TO.C,J1*%
X115740000Y-75180000D03*
D14*
X112240000Y-75180000D03*
%TD*%
D15*
%TO.C,J2*%
X103240000Y-29680000D03*
X103240000Y-32220000D03*
X103240000Y-34760000D03*
X103240000Y-37300000D03*
X103240000Y-39840000D03*
X103240000Y-42380000D03*
X103240000Y-44920000D03*
X103240000Y-47460000D03*
X103240000Y-50000000D03*
X103240000Y-52540000D03*
X103240000Y-55080000D03*
X103240000Y-57620000D03*
X103240000Y-60160000D03*
X103240000Y-62700000D03*
X103240000Y-65240000D03*
X103240000Y-67780000D03*
X103240000Y-70320000D03*
X103240000Y-72860000D03*
X103240000Y-75400000D03*
X103240000Y-77940000D03*
X103240000Y-80480000D03*
X103240000Y-83020000D03*
X103240000Y-85560000D03*
X103240000Y-88100000D03*
X88000000Y-88100000D03*
X88000000Y-85560000D03*
X88000000Y-83020000D03*
X88000000Y-80480000D03*
X88000000Y-77940000D03*
X88000000Y-75400000D03*
X88000000Y-72860000D03*
X88000000Y-70320000D03*
X88000000Y-67780000D03*
X88000000Y-65240000D03*
X88000000Y-62700000D03*
X88000000Y-60160000D03*
X88000000Y-57620000D03*
X88000000Y-55080000D03*
X88000000Y-52540000D03*
X88000000Y-50000000D03*
X88000000Y-47460000D03*
X88000000Y-44920000D03*
X88000000Y-42380000D03*
X88000000Y-39840000D03*
X88000000Y-37300000D03*
X88000000Y-34760000D03*
X88000000Y-32220000D03*
D16*
X88000000Y-29680000D03*
%TD*%
M02*
