%TF.GenerationSoftware,KiCad,Pcbnew,8.0.3*%
%TF.CreationDate,2024-07-16T20:51:18-07:00*%
%TF.ProjectId,pcb_test,7063625f-7465-4737-942e-6b696361645f,rev?*%
%TF.SameCoordinates,Original*%
%TF.FileFunction,Legend,Top*%
%TF.FilePolarity,Positive*%
%FSLAX46Y46*%
G04 Gerber Fmt 4.6, Leading zero omitted, Abs format (unit mm)*
G04 Created by KiCad (PCBNEW 8.0.3) date 2024-07-16 20:51:18*
%MOMM*%
%LPD*%
G01*
G04 APERTURE LIST*
%ADD10C,0.150000*%
%ADD11C,0.120000*%
G04 APERTURE END LIST*
D10*
X113406666Y-29304819D02*
X113406666Y-30019104D01*
X113406666Y-30019104D02*
X113359047Y-30161961D01*
X113359047Y-30161961D02*
X113263809Y-30257200D01*
X113263809Y-30257200D02*
X113120952Y-30304819D01*
X113120952Y-30304819D02*
X113025714Y-30304819D01*
X114359047Y-29304819D02*
X113882857Y-29304819D01*
X113882857Y-29304819D02*
X113835238Y-29781009D01*
X113835238Y-29781009D02*
X113882857Y-29733390D01*
X113882857Y-29733390D02*
X113978095Y-29685771D01*
X113978095Y-29685771D02*
X114216190Y-29685771D01*
X114216190Y-29685771D02*
X114311428Y-29733390D01*
X114311428Y-29733390D02*
X114359047Y-29781009D01*
X114359047Y-29781009D02*
X114406666Y-29876247D01*
X114406666Y-29876247D02*
X114406666Y-30114342D01*
X114406666Y-30114342D02*
X114359047Y-30209580D01*
X114359047Y-30209580D02*
X114311428Y-30257200D01*
X114311428Y-30257200D02*
X114216190Y-30304819D01*
X114216190Y-30304819D02*
X113978095Y-30304819D01*
X113978095Y-30304819D02*
X113882857Y-30257200D01*
X113882857Y-30257200D02*
X113835238Y-30209580D01*
X59906666Y-70334819D02*
X59906666Y-71049104D01*
X59906666Y-71049104D02*
X59859047Y-71191961D01*
X59859047Y-71191961D02*
X59763809Y-71287200D01*
X59763809Y-71287200D02*
X59620952Y-71334819D01*
X59620952Y-71334819D02*
X59525714Y-71334819D01*
X60811428Y-70668152D02*
X60811428Y-71334819D01*
X60573333Y-70287200D02*
X60335238Y-71001485D01*
X60335238Y-71001485D02*
X60954285Y-71001485D01*
X38906666Y-44784819D02*
X38906666Y-45499104D01*
X38906666Y-45499104D02*
X38859047Y-45641961D01*
X38859047Y-45641961D02*
X38763809Y-45737200D01*
X38763809Y-45737200D02*
X38620952Y-45784819D01*
X38620952Y-45784819D02*
X38525714Y-45784819D01*
X39287619Y-44784819D02*
X39906666Y-44784819D01*
X39906666Y-44784819D02*
X39573333Y-45165771D01*
X39573333Y-45165771D02*
X39716190Y-45165771D01*
X39716190Y-45165771D02*
X39811428Y-45213390D01*
X39811428Y-45213390D02*
X39859047Y-45261009D01*
X39859047Y-45261009D02*
X39906666Y-45356247D01*
X39906666Y-45356247D02*
X39906666Y-45594342D01*
X39906666Y-45594342D02*
X39859047Y-45689580D01*
X39859047Y-45689580D02*
X39811428Y-45737200D01*
X39811428Y-45737200D02*
X39716190Y-45784819D01*
X39716190Y-45784819D02*
X39430476Y-45784819D01*
X39430476Y-45784819D02*
X39335238Y-45737200D01*
X39335238Y-45737200D02*
X39287619Y-45689580D01*
X113656666Y-80084819D02*
X113656666Y-80799104D01*
X113656666Y-80799104D02*
X113609047Y-80941961D01*
X113609047Y-80941961D02*
X113513809Y-81037200D01*
X113513809Y-81037200D02*
X113370952Y-81084819D01*
X113370952Y-81084819D02*
X113275714Y-81084819D01*
X114656666Y-81084819D02*
X114085238Y-81084819D01*
X114370952Y-81084819D02*
X114370952Y-80084819D01*
X114370952Y-80084819D02*
X114275714Y-80227676D01*
X114275714Y-80227676D02*
X114180476Y-80322914D01*
X114180476Y-80322914D02*
X114085238Y-80370533D01*
X95286666Y-26804819D02*
X95286666Y-27519104D01*
X95286666Y-27519104D02*
X95239047Y-27661961D01*
X95239047Y-27661961D02*
X95143809Y-27757200D01*
X95143809Y-27757200D02*
X95000952Y-27804819D01*
X95000952Y-27804819D02*
X94905714Y-27804819D01*
X95715238Y-26900057D02*
X95762857Y-26852438D01*
X95762857Y-26852438D02*
X95858095Y-26804819D01*
X95858095Y-26804819D02*
X96096190Y-26804819D01*
X96096190Y-26804819D02*
X96191428Y-26852438D01*
X96191428Y-26852438D02*
X96239047Y-26900057D01*
X96239047Y-26900057D02*
X96286666Y-26995295D01*
X96286666Y-26995295D02*
X96286666Y-27090533D01*
X96286666Y-27090533D02*
X96239047Y-27233390D01*
X96239047Y-27233390D02*
X95667619Y-27804819D01*
X95667619Y-27804819D02*
X96286666Y-27804819D01*
D11*
%TO.C,J5*%
X112410000Y-30850000D02*
X113740000Y-30850000D01*
X112410000Y-32180000D02*
X112410000Y-30850000D01*
X112410000Y-33450000D02*
X112410000Y-51290000D01*
X112410000Y-33450000D02*
X115070000Y-33450000D01*
X112410000Y-51290000D02*
X115070000Y-51290000D01*
X115070000Y-33450000D02*
X115070000Y-51290000D01*
%TO.C,J4*%
X47240000Y-69880000D02*
X55906667Y-69880000D01*
X55906667Y-69880000D02*
X55906667Y-69520000D01*
X64573333Y-69880000D02*
X73239999Y-69880000D01*
X73239999Y-69880000D02*
X73240000Y-29580000D01*
X55906667Y-69520000D02*
X64573333Y-69520000D01*
X64573333Y-69520000D02*
X64573333Y-69880000D01*
X47240001Y-29580000D02*
X47240000Y-69880000D01*
X73240000Y-29580000D02*
X47240001Y-29580000D01*
%TO.C,J3*%
X37910000Y-49370000D02*
X37910000Y-69750000D01*
X37910000Y-49370000D02*
X40570000Y-49370000D01*
X37910000Y-69750000D02*
X40570000Y-69750000D01*
X39240000Y-46770000D02*
X40570000Y-46770000D01*
X40570000Y-46770000D02*
X40570000Y-48100000D01*
X40570000Y-49370000D02*
X40570000Y-69750000D01*
%TO.C,J1*%
X118690000Y-79930000D02*
X116690000Y-79930000D01*
X118690000Y-78680000D02*
X118690000Y-79930000D01*
X118300000Y-79540000D02*
X118300000Y-72070000D01*
X118300000Y-72070000D02*
X109680000Y-72070000D01*
X117240000Y-78580000D02*
X114240000Y-78580000D01*
X117240000Y-77230000D02*
X116490000Y-77230000D01*
X117240000Y-72930000D02*
X117240000Y-77230000D01*
X116990000Y-77580000D02*
X117240000Y-78580000D01*
X116490000Y-77580000D02*
X116990000Y-77580000D01*
X116490000Y-77230000D02*
X116490000Y-77580000D01*
X116490000Y-72930000D02*
X117240000Y-72930000D01*
X114990000Y-77580000D02*
X114990000Y-77230000D01*
X114990000Y-77230000D02*
X114240000Y-77230000D01*
X114490000Y-77580000D02*
X114990000Y-77580000D01*
X114240000Y-78580000D02*
X114490000Y-77580000D01*
X114240000Y-77230000D02*
X114240000Y-72930000D01*
X114240000Y-72930000D02*
X114990000Y-72930000D01*
X113740000Y-78580000D02*
X110740000Y-78580000D01*
X113740000Y-77230000D02*
X112990000Y-77230000D01*
X113740000Y-72930000D02*
X113740000Y-77230000D01*
X113490000Y-77580000D02*
X113740000Y-78580000D01*
X112990000Y-77580000D02*
X113490000Y-77580000D01*
X112990000Y-77230000D02*
X112990000Y-77580000D01*
X112990000Y-72930000D02*
X113740000Y-72930000D01*
X111490000Y-77580000D02*
X111490000Y-77230000D01*
X111490000Y-77230000D02*
X110740000Y-77230000D01*
X110990000Y-77580000D02*
X111490000Y-77580000D01*
X110740000Y-78580000D02*
X110990000Y-77580000D01*
X110740000Y-77230000D02*
X110740000Y-72930000D01*
X110740000Y-72930000D02*
X111490000Y-72930000D01*
X109680000Y-79540000D02*
X118300000Y-79540000D01*
X109680000Y-72070000D02*
X109680000Y-79540000D01*
X116490000Y-72930000D02*
G75*
G02*
X114990353Y-72930156I-750000J1700000D01*
G01*
X112990000Y-72930000D02*
G75*
G02*
X111490353Y-72930156I-750000J1700000D01*
G01*
%TO.C,J2*%
X96620000Y-28350000D02*
G75*
G02*
X94620000Y-28350000I-1000000J0D01*
G01*
X104680000Y-89490000D02*
X104680000Y-28290000D01*
X104680000Y-28290000D02*
X86560000Y-28290000D01*
X101680000Y-89430000D02*
X101680000Y-28350000D01*
X101680000Y-28350000D02*
X96620000Y-28350000D01*
X94620000Y-28350000D02*
X89560000Y-28350000D01*
X89560000Y-89430000D02*
X101680000Y-89430000D01*
X89560000Y-28350000D02*
X89560000Y-89430000D01*
X86560000Y-89490000D02*
X104680000Y-89490000D01*
X86560000Y-28290000D02*
X86560000Y-89490000D01*
%TD*%
M02*
