%TF.GenerationSoftware,KiCad,Pcbnew,8.0.3*%
%TF.CreationDate,2024-07-16T20:51:18-07:00*%
%TF.ProjectId,pcb_test,7063625f-7465-4737-942e-6b696361645f,rev?*%
%TF.SameCoordinates,Original*%
%TF.FileFunction,Copper,L1,Top*%
%TF.FilePolarity,Positive*%
%FSLAX46Y46*%
G04 Gerber Fmt 4.6, Leading zero omitted, Abs format (unit mm)*
G04 Created by KiCad (PCBNEW 8.0.3) date 2024-07-16 20:51:18*
%MOMM*%
%LPD*%
G01*
G04 APERTURE LIST*
G04 Aperture macros list*
%AMRoundRect*
0 Rectangle with rounded corners*
0 $1 Rounding radius*
0 $2 $3 $4 $5 $6 $7 $8 $9 X,Y pos of 4 corners*
0 Add a 4 corners polygon primitive as box body*
4,1,4,$2,$3,$4,$5,$6,$7,$8,$9,$2,$3,0*
0 Add four circle primitives for the rounded corners*
1,1,$1+$1,$2,$3*
1,1,$1+$1,$4,$5*
1,1,$1+$1,$6,$7*
1,1,$1+$1,$8,$9*
0 Add four rect primitives between the rounded corners*
20,1,$1+$1,$2,$3,$4,$5,0*
20,1,$1+$1,$4,$5,$6,$7,0*
20,1,$1+$1,$6,$7,$8,$9,0*
20,1,$1+$1,$8,$9,$2,$3,0*%
G04 Aperture macros list end*
%TA.AperFunction,ComponentPad*%
%ADD10R,1.700000X1.700000*%
%TD*%
%TA.AperFunction,ComponentPad*%
%ADD11O,1.700000X1.700000*%
%TD*%
%TA.AperFunction,ComponentPad*%
%ADD12O,2.000000X1.200000*%
%TD*%
%TA.AperFunction,ComponentPad*%
%ADD13RoundRect,0.250000X0.650000X1.550000X-0.650000X1.550000X-0.650000X-1.550000X0.650000X-1.550000X0*%
%TD*%
%TA.AperFunction,ComponentPad*%
%ADD14O,1.800000X3.600000*%
%TD*%
%TA.AperFunction,ComponentPad*%
%ADD15O,2.400000X1.600000*%
%TD*%
%TA.AperFunction,ComponentPad*%
%ADD16R,2.400000X1.600000*%
%TD*%
%TA.AperFunction,Conductor*%
%ADD17C,0.200000*%
%TD*%
G04 APERTURE END LIST*
D10*
%TO.P,J5,1,Pin_1*%
%TO.N,Net-(J1-Pin_1)*%
X113740000Y-32180000D03*
D11*
%TO.P,J5,2,Pin_2*%
%TO.N,Net-(J1-Pin_2)*%
X113740000Y-34720000D03*
%TO.P,J5,3,Pin_3*%
%TO.N,Net-(J2-Pin_32)*%
X113740000Y-37260000D03*
%TO.P,J5,4,Pin_4*%
%TO.N,Net-(J2-Pin_33)*%
X113740000Y-39800000D03*
%TO.P,J5,5,Pin_5*%
%TO.N,Net-(J2-Pin_43)*%
X113740000Y-42340000D03*
%TO.P,J5,6,Pin_6*%
%TO.N,Net-(J2-Pin_42)*%
X113740000Y-44880000D03*
%TO.P,J5,7,Pin_7*%
%TO.N,Net-(J2-Pin_41)*%
X113740000Y-47420000D03*
%TO.P,J5,8,Pin_8*%
%TO.N,Net-(J2-Pin_40)*%
X113740000Y-49960000D03*
%TD*%
D12*
%TO.P,J4,1,Pin_1*%
%TO.N,unconnected-(J4-Pin_1-Pad1)*%
X71740000Y-68780000D03*
%TO.P,J4,2,Pin_2*%
%TO.N,unconnected-(J4-Pin_2-Pad2)*%
X71740000Y-66240000D03*
%TO.P,J4,3,Pin_3*%
%TO.N,unconnected-(J4-Pin_3-Pad3)*%
X71740000Y-63700000D03*
%TO.P,J4,4,Pin_4*%
%TO.N,unconnected-(J4-Pin_4-Pad4)*%
X71740000Y-61160000D03*
%TO.P,J4,5,Pin_5*%
%TO.N,unconnected-(J4-Pin_5-Pad5)*%
X71740000Y-58620000D03*
%TO.P,J4,6,Pin_6*%
%TO.N,Net-(J2-Pin_39)*%
X71740000Y-56080000D03*
%TO.P,J4,7,Pin_7*%
%TO.N,Net-(J2-Pin_27)*%
X71740000Y-53540000D03*
%TO.P,J4,8,Pin_8*%
%TO.N,unconnected-(J4-Pin_8-Pad8)*%
X71740000Y-51000000D03*
%TO.P,J4,9,Pin_9*%
%TO.N,unconnected-(J4-Pin_9-Pad9)*%
X71740000Y-48460000D03*
%TO.P,J4,10,Pin_10*%
%TO.N,unconnected-(J4-Pin_10-Pad10)*%
X71740000Y-45920000D03*
%TO.P,J4,11,Pin_11*%
%TO.N,unconnected-(J4-Pin_11-Pad11)*%
X71740000Y-43380000D03*
%TO.P,J4,12,Pin_12*%
%TO.N,unconnected-(J4-Pin_12-Pad12)*%
X71740000Y-40840000D03*
%TO.P,J4,13,Pin_13*%
%TO.N,unconnected-(J4-Pin_13-Pad13)*%
X71740000Y-38300000D03*
%TO.P,J4,14,Pin_14*%
%TO.N,unconnected-(J4-Pin_14-Pad14)*%
X71740000Y-35760000D03*
%TO.P,J4,15,Pin_15*%
%TO.N,Net-(J2-Pin_30)*%
X71740000Y-33220000D03*
%TO.P,J4,16,Pin_16*%
%TO.N,unconnected-(J4-Pin_16-Pad16)*%
X71740000Y-30680000D03*
%TO.P,J4,17,Pin_17*%
%TO.N,unconnected-(J4-Pin_17-Pad17)*%
X48740000Y-68780000D03*
%TO.P,J4,18,Pin_18*%
%TO.N,Net-(J3-Pin_4)*%
X48740000Y-66240000D03*
%TO.P,J4,19,Pin_19*%
%TO.N,Net-(J3-Pin_5)*%
X48740000Y-63700000D03*
%TO.P,J4,20,Pin_20*%
%TO.N,unconnected-(J4-Pin_20-Pad20)*%
X48740000Y-61160000D03*
%TO.P,J4,21,Pin_21*%
%TO.N,unconnected-(J4-Pin_21-Pad21)*%
X48740000Y-58620000D03*
%TO.P,J4,22,Pin_22*%
%TO.N,unconnected-(J4-Pin_22-Pad22)*%
X48740000Y-56080000D03*
%TO.P,J4,23,Pin_23*%
%TO.N,Net-(J1-Pin_1)*%
X48740000Y-53540000D03*
%TO.P,J4,24,Pin_24*%
%TO.N,unconnected-(J4-Pin_24-Pad24)*%
X48740000Y-51000000D03*
%TO.P,J4,25,Pin_25*%
%TO.N,Net-(J1-Pin_2)*%
X48740000Y-48460000D03*
%TO.P,J4,26,Pin_26*%
%TO.N,Net-(J2-Pin_14)*%
X48740000Y-45920000D03*
%TO.P,J4,27,Pin_27*%
%TO.N,Net-(J2-Pin_13)*%
X48740000Y-43380000D03*
%TO.P,J4,28,Pin_28*%
%TO.N,Net-(J2-Pin_38)*%
X48740000Y-40840000D03*
%TO.P,J4,29,Pin_29*%
%TO.N,Net-(J2-Pin_11)*%
X48740000Y-38300000D03*
%TO.P,J4,30,Pin_30*%
%TO.N,Net-(J2-Pin_12)*%
X48740000Y-35760000D03*
%TO.P,J4,31,Pin_31*%
%TO.N,unconnected-(J4-Pin_31-Pad31)*%
X48740000Y-33220000D03*
%TO.P,J4,32,Pin_32*%
%TO.N,unconnected-(J4-Pin_32-Pad32)*%
X48740000Y-30680000D03*
%TD*%
D10*
%TO.P,J3,1,Pin_1*%
%TO.N,Net-(J1-Pin_1)*%
X39240000Y-48100000D03*
D11*
%TO.P,J3,2,Pin_2*%
%TO.N,Net-(J1-Pin_2)*%
X39240000Y-50640000D03*
%TO.P,J3,3,Pin_3*%
%TO.N,unconnected-(J3-Pin_3-Pad3)*%
X39240000Y-53180000D03*
%TO.P,J3,4,Pin_4*%
%TO.N,Net-(J3-Pin_4)*%
X39240000Y-55720000D03*
%TO.P,J3,5,Pin_5*%
%TO.N,Net-(J3-Pin_5)*%
X39240000Y-58260000D03*
%TO.P,J3,6,Pin_6*%
%TO.N,unconnected-(J3-Pin_6-Pad6)*%
X39240000Y-60800000D03*
%TO.P,J3,7,Pin_7*%
%TO.N,unconnected-(J3-Pin_7-Pad7)*%
X39240000Y-63340000D03*
%TO.P,J3,8,Pin_8*%
%TO.N,unconnected-(J3-Pin_8-Pad8)*%
X39240000Y-65880000D03*
%TO.P,J3,9,Pin_9*%
%TO.N,unconnected-(J3-Pin_9-Pad9)*%
X39240000Y-68420000D03*
%TD*%
D13*
%TO.P,J1,1,Pin_1*%
%TO.N,Net-(J1-Pin_1)*%
X115740000Y-75180000D03*
D14*
%TO.P,J1,2,Pin_2*%
%TO.N,Net-(J1-Pin_2)*%
X112240000Y-75180000D03*
%TD*%
D15*
%TO.P,J2,48,Pin_48*%
%TO.N,unconnected-(J2-Pin_48-Pad48)*%
X103240000Y-29680000D03*
%TO.P,J2,47,Pin_47*%
%TO.N,unconnected-(J2-Pin_47-Pad47)*%
X103240000Y-32220000D03*
%TO.P,J2,46,Pin_46*%
%TO.N,unconnected-(J2-Pin_46-Pad46)*%
X103240000Y-34760000D03*
%TO.P,J2,45,Pin_45*%
%TO.N,unconnected-(J2-Pin_45-Pad45)*%
X103240000Y-37300000D03*
%TO.P,J2,44,Pin_44*%
%TO.N,unconnected-(J2-Pin_44-Pad44)*%
X103240000Y-39840000D03*
%TO.P,J2,43,Pin_43*%
%TO.N,Net-(J2-Pin_43)*%
X103240000Y-42380000D03*
%TO.P,J2,42,Pin_42*%
%TO.N,Net-(J2-Pin_42)*%
X103240000Y-44920000D03*
%TO.P,J2,41,Pin_41*%
%TO.N,Net-(J2-Pin_41)*%
X103240000Y-47460000D03*
%TO.P,J2,40,Pin_40*%
%TO.N,Net-(J2-Pin_40)*%
X103240000Y-50000000D03*
%TO.P,J2,39,Pin_39*%
%TO.N,Net-(J2-Pin_39)*%
X103240000Y-52540000D03*
%TO.P,J2,38,Pin_38*%
%TO.N,Net-(J2-Pin_38)*%
X103240000Y-55080000D03*
%TO.P,J2,37,Pin_37*%
%TO.N,unconnected-(J2-Pin_37-Pad37)*%
X103240000Y-57620000D03*
%TO.P,J2,36,Pin_36*%
%TO.N,unconnected-(J2-Pin_36-Pad36)*%
X103240000Y-60160000D03*
%TO.P,J2,35,Pin_35*%
%TO.N,unconnected-(J2-Pin_35-Pad35)*%
X103240000Y-62700000D03*
%TO.P,J2,34,Pin_34*%
%TO.N,unconnected-(J2-Pin_34-Pad34)*%
X103240000Y-65240000D03*
%TO.P,J2,33,Pin_33*%
%TO.N,Net-(J2-Pin_33)*%
X103240000Y-67780000D03*
%TO.P,J2,32,Pin_32*%
%TO.N,Net-(J2-Pin_32)*%
X103240000Y-70320000D03*
%TO.P,J2,31,Pin_31*%
%TO.N,unconnected-(J2-Pin_31-Pad31)*%
X103240000Y-72860000D03*
%TO.P,J2,30,Pin_30*%
%TO.N,Net-(J2-Pin_30)*%
X103240000Y-75400000D03*
%TO.P,J2,29,Pin_29*%
%TO.N,unconnected-(J2-Pin_29-Pad29)*%
X103240000Y-77940000D03*
%TO.P,J2,28,Pin_28*%
%TO.N,unconnected-(J2-Pin_28-Pad28)*%
X103240000Y-80480000D03*
%TO.P,J2,27,Pin_27*%
%TO.N,Net-(J2-Pin_27)*%
X103240000Y-83020000D03*
%TO.P,J2,26,Pin_26*%
%TO.N,Net-(J1-Pin_2)*%
X103240000Y-85560000D03*
%TO.P,J2,25,Pin_25*%
%TO.N,Net-(J1-Pin_1)*%
X103240000Y-88100000D03*
%TO.P,J2,24,Pin_24*%
%TO.N,unconnected-(J2-Pin_24-Pad24)*%
X88000000Y-88100000D03*
%TO.P,J2,23,Pin_23*%
%TO.N,unconnected-(J2-Pin_23-Pad23)*%
X88000000Y-85560000D03*
%TO.P,J2,22,Pin_22*%
%TO.N,unconnected-(J2-Pin_22-Pad22)*%
X88000000Y-83020000D03*
%TO.P,J2,21,Pin_21*%
%TO.N,unconnected-(J2-Pin_21-Pad21)*%
X88000000Y-80480000D03*
%TO.P,J2,20,Pin_20*%
%TO.N,unconnected-(J2-Pin_20-Pad20)*%
X88000000Y-77940000D03*
%TO.P,J2,19,Pin_19*%
%TO.N,unconnected-(J2-Pin_19-Pad19)*%
X88000000Y-75400000D03*
%TO.P,J2,18,Pin_18*%
%TO.N,unconnected-(J2-Pin_18-Pad18)*%
X88000000Y-72860000D03*
%TO.P,J2,17,Pin_17*%
%TO.N,unconnected-(J2-Pin_17-Pad17)*%
X88000000Y-70320000D03*
%TO.P,J2,16,Pin_16*%
%TO.N,unconnected-(J2-Pin_16-Pad16)*%
X88000000Y-67780000D03*
%TO.P,J2,15,Pin_15*%
%TO.N,unconnected-(J2-Pin_15-Pad15)*%
X88000000Y-65240000D03*
%TO.P,J2,14,Pin_14*%
%TO.N,Net-(J2-Pin_14)*%
X88000000Y-62700000D03*
%TO.P,J2,13,Pin_13*%
%TO.N,Net-(J2-Pin_13)*%
X88000000Y-60160000D03*
%TO.P,J2,12,Pin_12*%
%TO.N,Net-(J2-Pin_12)*%
X88000000Y-57620000D03*
%TO.P,J2,11,Pin_11*%
%TO.N,Net-(J2-Pin_11)*%
X88000000Y-55080000D03*
%TO.P,J2,10,Pin_10*%
%TO.N,unconnected-(J2-Pin_10-Pad10)*%
X88000000Y-52540000D03*
%TO.P,J2,9,Pin_9*%
%TO.N,unconnected-(J2-Pin_9-Pad9)*%
X88000000Y-50000000D03*
%TO.P,J2,8,Pin_8*%
%TO.N,unconnected-(J2-Pin_8-Pad8)*%
X88000000Y-47460000D03*
%TO.P,J2,7,Pin_7*%
%TO.N,unconnected-(J2-Pin_7-Pad7)*%
X88000000Y-44920000D03*
%TO.P,J2,6,Pin_6*%
%TO.N,unconnected-(J2-Pin_6-Pad6)*%
X88000000Y-42380000D03*
%TO.P,J2,5,Pin_5*%
%TO.N,unconnected-(J2-Pin_5-Pad5)*%
X88000000Y-39840000D03*
%TO.P,J2,4,Pin_4*%
%TO.N,unconnected-(J2-Pin_4-Pad4)*%
X88000000Y-37300000D03*
%TO.P,J2,3,Pin_3*%
%TO.N,unconnected-(J2-Pin_3-Pad3)*%
X88000000Y-34760000D03*
%TO.P,J2,2,Pin_2*%
%TO.N,unconnected-(J2-Pin_2-Pad2)*%
X88000000Y-32220000D03*
D16*
%TO.P,J2,1,Pin_1*%
%TO.N,unconnected-(J2-Pin_1-Pad1)*%
X88000000Y-29680000D03*
%TD*%
D17*
%TO.N,Net-(J3-Pin_4)*%
X38200000Y-55720000D02*
X39240000Y-55720000D01*
X35740000Y-58180000D02*
X38200000Y-55720000D01*
X37740000Y-70680000D02*
X35740000Y-68680000D01*
X41740000Y-70680000D02*
X37740000Y-70680000D01*
X35740000Y-68680000D02*
X35740000Y-58180000D01*
X46180000Y-66240000D02*
X41740000Y-70680000D01*
X48740000Y-66240000D02*
X46180000Y-66240000D01*
%TO.N,Net-(J1-Pin_2)*%
X37740000Y-50680000D02*
X37780000Y-50640000D01*
X35240000Y-48180000D02*
X37740000Y-50680000D01*
X35240000Y-45680000D02*
X35240000Y-48180000D01*
X41740000Y-44180000D02*
X36740000Y-44180000D01*
X36740000Y-44180000D02*
X35240000Y-45680000D01*
X46020000Y-48460000D02*
X41740000Y-44180000D01*
X37780000Y-50640000D02*
X39240000Y-50640000D01*
X48740000Y-48460000D02*
X46020000Y-48460000D01*
%TO.N,Net-(J3-Pin_5)*%
X41320000Y-58260000D02*
X39240000Y-58260000D01*
X46760000Y-63700000D02*
X41320000Y-58260000D01*
X48740000Y-63700000D02*
X46760000Y-63700000D01*
%TO.N,Net-(J1-Pin_1)*%
X46600000Y-53540000D02*
X41160000Y-48100000D01*
X41160000Y-48100000D02*
X39240000Y-48100000D01*
X48740000Y-53540000D02*
X46600000Y-53540000D01*
%TO.N,Net-(J2-Pin_27)*%
X100150000Y-83020000D02*
X103240000Y-83020000D01*
X88990000Y-94180000D02*
X100150000Y-83020000D01*
X81240000Y-94180000D02*
X88990000Y-94180000D01*
X59240000Y-56180000D02*
X59240000Y-72180000D01*
X59240000Y-72180000D02*
X81240000Y-94180000D01*
X61880000Y-53540000D02*
X59240000Y-56180000D01*
X71740000Y-53540000D02*
X61880000Y-53540000D01*
%TO.N,Net-(J1-Pin_1)*%
X53990000Y-56430000D02*
X53990000Y-72930000D01*
X51100000Y-53540000D02*
X53990000Y-56430000D01*
X53990000Y-72930000D02*
X79740000Y-98680000D01*
X48740000Y-53540000D02*
X51100000Y-53540000D01*
%TO.N,Net-(J1-Pin_2)*%
X56490000Y-52930000D02*
X56490000Y-72430000D01*
X52020000Y-48460000D02*
X56490000Y-52930000D01*
X80740000Y-96680000D02*
X56490000Y-72430000D01*
X48740000Y-48460000D02*
X52020000Y-48460000D01*
%TO.N,Net-(J2-Pin_38)*%
X95740000Y-26680000D02*
X95740000Y-47580000D01*
X48740000Y-19680000D02*
X88740000Y-19680000D01*
X88740000Y-19680000D02*
X95740000Y-26680000D01*
X43240000Y-25180000D02*
X48740000Y-19680000D01*
X43240000Y-37680000D02*
X43240000Y-25180000D01*
X46400000Y-40840000D02*
X43240000Y-37680000D01*
X95740000Y-47580000D02*
X103240000Y-55080000D01*
X48740000Y-40840000D02*
X46400000Y-40840000D01*
%TO.N,Net-(J2-Pin_11)*%
X93740000Y-50680000D02*
X89340000Y-55080000D01*
X45240000Y-26180000D02*
X49740000Y-21680000D01*
X49740000Y-21680000D02*
X88240000Y-21680000D01*
X46360000Y-38300000D02*
X45240000Y-37180000D01*
X45240000Y-37180000D02*
X45240000Y-26180000D01*
X48740000Y-38300000D02*
X46360000Y-38300000D01*
X88240000Y-21680000D02*
X93740000Y-27180000D01*
X89340000Y-55080000D02*
X88000000Y-55080000D01*
X93740000Y-27180000D02*
X93740000Y-50680000D01*
%TO.N,Net-(J2-Pin_12)*%
X54160000Y-35760000D02*
X48740000Y-35760000D01*
X79240000Y-23680000D02*
X66240000Y-23680000D01*
X83740000Y-56680000D02*
X83740000Y-28180000D01*
X83740000Y-28180000D02*
X79240000Y-23680000D01*
X88000000Y-57620000D02*
X84680000Y-57620000D01*
X84680000Y-57620000D02*
X83740000Y-56680000D01*
X66240000Y-23680000D02*
X54160000Y-35760000D01*
%TO.N,Net-(J2-Pin_13)*%
X63240000Y-34680000D02*
X54540000Y-43380000D01*
X54540000Y-43380000D02*
X48740000Y-43380000D01*
X63240000Y-29680000D02*
X63240000Y-34680000D01*
X67240000Y-25680000D02*
X63240000Y-29680000D01*
X77740000Y-25680000D02*
X67240000Y-25680000D01*
X81240000Y-29180000D02*
X77740000Y-25680000D01*
X88000000Y-60160000D02*
X84220000Y-60160000D01*
X84220000Y-60160000D02*
X81240000Y-57180000D01*
X81240000Y-57180000D02*
X81240000Y-29180000D01*
%TO.N,Net-(J2-Pin_14)*%
X55000000Y-45920000D02*
X48740000Y-45920000D01*
X65740000Y-35180000D02*
X55000000Y-45920000D01*
X65740000Y-30680000D02*
X65740000Y-35180000D01*
X78740000Y-58180000D02*
X78740000Y-30180000D01*
X83260000Y-62700000D02*
X78740000Y-58180000D01*
X68740000Y-27680000D02*
X65740000Y-30680000D01*
X78740000Y-30180000D02*
X76240000Y-27680000D01*
X76240000Y-27680000D02*
X68740000Y-27680000D01*
X88000000Y-62700000D02*
X83260000Y-62700000D01*
%TO.N,Net-(J2-Pin_30)*%
X74780000Y-33220000D02*
X71740000Y-33220000D01*
X76240000Y-85680000D02*
X76240000Y-34680000D01*
X76240000Y-34680000D02*
X74780000Y-33220000D01*
X88240000Y-91680000D02*
X82240000Y-91680000D01*
X98020000Y-75400000D02*
X92240000Y-81180000D01*
X92240000Y-81180000D02*
X92240000Y-87680000D01*
X92240000Y-87680000D02*
X88240000Y-91680000D01*
X82240000Y-91680000D02*
X76240000Y-85680000D01*
X103240000Y-75400000D02*
X98020000Y-75400000D01*
%TO.N,Net-(J1-Pin_2)*%
X100860000Y-85560000D02*
X89740000Y-96680000D01*
X89740000Y-96680000D02*
X80740000Y-96680000D01*
X103240000Y-85560000D02*
X100860000Y-85560000D01*
%TO.N,Net-(J1-Pin_1)*%
X124740000Y-62180000D02*
X124740000Y-36680000D01*
X115740000Y-71180000D02*
X124740000Y-62180000D01*
X124740000Y-36680000D02*
X120240000Y-32180000D01*
X115740000Y-75180000D02*
X115740000Y-71180000D01*
X120240000Y-32180000D02*
X113740000Y-32180000D01*
%TO.N,Net-(J1-Pin_2)*%
X119280000Y-34720000D02*
X113740000Y-34720000D01*
X122240000Y-60680000D02*
X122240000Y-37680000D01*
X122240000Y-37680000D02*
X119280000Y-34720000D01*
X112240000Y-70680000D02*
X122240000Y-60680000D01*
X112240000Y-75180000D02*
X112240000Y-70680000D01*
%TO.N,Net-(J2-Pin_32)*%
X109100000Y-70320000D02*
X103240000Y-70320000D01*
X119740000Y-59680000D02*
X109100000Y-70320000D01*
X119740000Y-39180000D02*
X119740000Y-59680000D01*
X117820000Y-37260000D02*
X119740000Y-39180000D01*
X113740000Y-37260000D02*
X117820000Y-37260000D01*
%TO.N,Net-(J2-Pin_33)*%
X117240000Y-58680000D02*
X108140000Y-67780000D01*
X117240000Y-40680000D02*
X117240000Y-58680000D01*
X116360000Y-39800000D02*
X117240000Y-40680000D01*
X113740000Y-39800000D02*
X116360000Y-39800000D01*
X108140000Y-67780000D02*
X103240000Y-67780000D01*
%TO.N,Net-(J1-Pin_1)*%
X108320000Y-88100000D02*
X103240000Y-88100000D01*
X115740000Y-80680000D02*
X108320000Y-88100000D01*
X115740000Y-75180000D02*
X115740000Y-80680000D01*
%TO.N,Net-(J1-Pin_2)*%
X107360000Y-85560000D02*
X103240000Y-85560000D01*
X112240000Y-80680000D02*
X107360000Y-85560000D01*
X112240000Y-75180000D02*
X112240000Y-80680000D01*
%TO.N,Net-(J2-Pin_40)*%
X103280000Y-49960000D02*
X103240000Y-50000000D01*
X113740000Y-49960000D02*
X103280000Y-49960000D01*
%TO.N,Net-(J2-Pin_41)*%
X113740000Y-47420000D02*
X103280000Y-47420000D01*
X103280000Y-47420000D02*
X103240000Y-47460000D01*
%TO.N,Net-(J2-Pin_42)*%
X103280000Y-44880000D02*
X103240000Y-44920000D01*
X113740000Y-44880000D02*
X103280000Y-44880000D01*
%TO.N,Net-(J2-Pin_43)*%
X103280000Y-42340000D02*
X103240000Y-42380000D01*
X113740000Y-42340000D02*
X103280000Y-42340000D01*
%TO.N,Net-(J1-Pin_1)*%
X101820000Y-88100000D02*
X91240000Y-98680000D01*
X91240000Y-98680000D02*
X79740000Y-98680000D01*
X103240000Y-88100000D02*
X101820000Y-88100000D01*
%TD*%
M02*
